M48
;Layer_Color=9474304
;FILE_FORMAT=2:5
INCH,LZ
;TYPE=PLATED
T1F00S00C0.01300
T2F00S00C0.01500
T3F00S00C0.01800
T4F00S00C0.02600
T5F00S00C0.03150
T6F00S00C0.04000
T7F00S00C0.08200
%
T01
X00253Y00048
X00205Y001
X00159Y00193
X0011667Y0038783
X00303Y00504
X00376Y00435
X00433Y00436
X00564
X00631Y00446
X0073Y00465
X00758Y004405
X00736Y00523
X00732Y00316
X00698Y00323
X00451Y003185
X00371Y00316
X00423Y00165
X00479Y00161
X00535Y00166
X00616Y00151
X00592Y0012
X00613Y0008148
X0093115Y00106
X01111Y00239
X01282Y00116
X01407Y00305
X01384Y00373
X0134Y00397
X0127039Y0045
X00993Y00436
X00944Y00434
X00895Y00436
X00504Y00504
X0029Y00117
X0166301Y0020624
X01755Y0041091
X01817Y00381
X01822Y00464
X01738Y00509
X0154806Y00475
X01942Y00504
X02033Y00505
X01979Y0040056
X01935Y00355
X01958Y00313
X02017Y0033452
X0215Y0024676
X022Y0005385
X02032Y00089
X0195937Y0008148
X0230686Y0048823
X02101Y00628
X0225859Y00843
X02258Y0097
X02324Y0102
X01886Y00832
X01767Y00815
X01653Y00917
X0165209Y007
X01374Y00615
X0129285Y0070583
X0109564Y00675
X0099Y00554
X00905Y00582
X0087062Y0079104
X0081Y01041
X00773Y0105
X00735Y01062
X0072275Y01176
X00718Y01303
X0068Y01346
X0062082Y01369
X0061063Y0141655
X00566Y01454
X00527Y01448
Y01379
X00493Y01346
X00349Y01345
Y01402
X00347Y01477
X00307Y01546
X00349Y0161
X00364Y01673
X00314Y0174447
X00499Y01714
X00519Y0168645
X00538Y01732
X00602Y01635
X00601Y01566
X00618Y01534
X00639Y01578
X00718Y01584
X00748Y01622
X00839Y01627
X00876Y01713
X0086Y01745
X00833Y01807
X0088621Y01887
X00984Y01861
X00909Y01698
X00995Y01625
X01014Y0155756
X01059Y01484
X01135Y0144515
X01247Y01397
X01214Y01362
X01278Y01276
X01344Y01209
X01318Y01113
X0133799Y00978
X01278Y00928
X0116Y00985
X01181Y01047
X0106047Y00938
X010105Y0116
X0093064Y01261
X00899Y01306
X00991Y01327
X00955Y01369
X01007Y01401
X0086891Y0144051
X0074234Y01434
X00772Y01401
X006Y01266
X00491Y01203
X0053044Y00962
X00663Y00985
X0046679Y0079457
X00352Y00758
X0041Y00537
X0061602Y00559
X00691Y00617
X00488Y01487
X00517Y0157
X00457Y0188
X00429Y02017
X00702Y02038
X00688Y019684
X00687Y01909
X01234Y01915
X01266Y01937
X01319Y0185
X01429Y01905
X01759Y01856
X01704Y0174321
X01765Y01629
X01698Y01528
X01666Y01512
X01732Y01433
X01604Y01403
X01631Y01222
Y01175
X01572Y01124
X01764Y0116642
X01704Y01287
X0139144Y0138279
X01347Y01423
X01337Y0150914
X013Y0149912
X01275Y0156656
X01219Y01659
X01185Y01721
X01581Y0163417
X01475Y0151
X00223Y01455
X0023Y01417
X00236Y01372
X00256Y0135
X0017554Y0130995
X0007554Y0128239
X00078Y01389
X0007554Y0148121
Y0158161
X0017554Y0155405
X00247Y01675
X00056Y0170626
X0011667Y0113688
X0011Y0081
T02
X0046962Y0163417
X0064835Y01837
X0059747Y01934
X0165Y0194012
X00235Y0174925
T03
X0050602Y01831
X0093773Y01839
X00994Y0179768
X01081Y01917
X01219Y01851
X01225Y0173885
X01231Y01695
X01109Y01264
X01062Y01301
T04
X00754Y01969
X00804
X00854
X00904
X00954
Y02019
X00904
X00854
X00804
X00754
T05
X00256Y0182426
Y01903
Y0198174
T06
X01065Y000535
X01165
X01265
X01365
X01465
X01456Y00139
Y00239
Y00339
Y00439
X01565Y000535
X01665
X01765
X01456Y00539
Y00639
X01454Y0081
Y0091
Y0101
Y0111
Y0121
Y0131
X01049Y01114
X00949
X00849
X00749
X00649
X00549
X00449
X00349
X00523Y02007
X00623
X01065Y020035
X01165
X01265
X01365
X01465
X01565
X01665
X01765
X00105Y02
Y019
Y018
T07
X0111Y0178956
M30
