G04 Layer_Physical_Order=2*
G04 Layer_Color=16711680*
%FSLAX25Y25*%
%MOIN*%
G70*
G01*
G75*
%ADD10R,0.03347X0.03150*%
%ADD32C,0.00600*%
%ADD33C,0.01200*%
%ADD34C,0.01400*%
%ADD35C,0.02000*%
%ADD37C,0.14000*%
%ADD38C,0.03300*%
%ADD39C,0.05500*%
%ADD40R,0.05500X0.05500*%
%ADD41C,0.04724*%
%ADD42R,0.04724X0.04724*%
%ADD43R,0.05500X0.05500*%
%ADD44C,0.04100*%
%ADD45R,0.04100X0.04100*%
%ADD46C,0.02700*%
%ADD47C,0.03000*%
%ADD48C,0.05000*%
%ADD49R,0.01575X0.11811*%
%ADD50R,0.05000X0.02500*%
%ADD51R,0.02500X0.05000*%
G36*
X73524Y204305D02*
X73225Y204075D01*
X72736Y203438D01*
X72429Y202696D01*
X72324Y201900D01*
X72429Y201104D01*
X72736Y200362D01*
X73225Y199725D01*
X73322Y199650D01*
Y199150D01*
X73225Y199075D01*
X72736Y198438D01*
X72429Y197696D01*
X72324Y196900D01*
X72429Y196104D01*
X72736Y195362D01*
X73225Y194725D01*
X73862Y194236D01*
X74604Y193929D01*
X75400Y193824D01*
X76196Y193929D01*
X76938Y194236D01*
X77575Y194725D01*
X77650Y194822D01*
X78150D01*
X78225Y194725D01*
X78862Y194236D01*
X79604Y193929D01*
X80400Y193824D01*
X81196Y193929D01*
X81938Y194236D01*
X82575Y194725D01*
X82650Y194822D01*
X83150D01*
X83225Y194725D01*
X83862Y194236D01*
X84604Y193929D01*
X85400Y193824D01*
X86196Y193929D01*
X86938Y194236D01*
X87575Y194725D01*
X87650Y194822D01*
X88150D01*
X88225Y194725D01*
X88862Y194236D01*
X89604Y193929D01*
X90400Y193824D01*
X91196Y193929D01*
X91409Y194017D01*
X95288Y190137D01*
X95097Y189675D01*
X94601D01*
X93439Y190837D01*
X93009Y191125D01*
X92502Y191226D01*
X91152D01*
X90490Y191887D01*
X90060Y192175D01*
X89553Y192276D01*
X70607D01*
X70394Y192594D01*
X69617Y193114D01*
X68700Y193296D01*
X67783Y193114D01*
X67006Y192594D01*
X66486Y191817D01*
X66304Y190900D01*
X66409Y190370D01*
X66092Y189983D01*
X46962D01*
X46617Y190214D01*
X45700Y190396D01*
X44783Y190214D01*
X44006Y189694D01*
X43486Y188917D01*
X43304Y188000D01*
X43486Y187083D01*
X44006Y186306D01*
X44783Y185786D01*
X45700Y185604D01*
X46617Y185786D01*
X47394Y186306D01*
X47535Y186517D01*
X87659D01*
X87704Y186486D01*
X88621Y186304D01*
X89538Y186486D01*
X90315Y187006D01*
X90834Y187783D01*
X90992Y188575D01*
X91953D01*
X93115Y187413D01*
X93545Y187125D01*
X93835Y187068D01*
X93773Y186573D01*
X93642Y186556D01*
X93081Y186482D01*
X92437Y186215D01*
X91883Y185790D01*
X91458Y185236D01*
X91191Y184592D01*
X91100Y183900D01*
X91191Y183208D01*
X91458Y182564D01*
X91883Y182010D01*
X92437Y181585D01*
X93081Y181318D01*
X93773Y181227D01*
X94465Y181318D01*
X95110Y181585D01*
X95663Y182010D01*
X96088Y182564D01*
X96355Y183208D01*
X96446Y183900D01*
X96355Y184592D01*
X96088Y185236D01*
X95663Y185790D01*
X95110Y186215D01*
X94465Y186482D01*
X94268Y186508D01*
X94140Y186524D01*
X94173Y187024D01*
X94326Y187024D01*
X98783D01*
X99145Y186663D01*
X99575Y186375D01*
X100082Y186275D01*
X106693D01*
X106814Y185790D01*
X106534Y185640D01*
X105316Y184640D01*
X104316Y183422D01*
X103573Y182032D01*
X103116Y180524D01*
X102961Y178956D01*
X103116Y177388D01*
X103573Y175880D01*
X104316Y174490D01*
X104655Y174077D01*
X104441Y173626D01*
X93849D01*
X92837Y174637D01*
X92407Y174925D01*
X91900Y175025D01*
X88292D01*
X88214Y175417D01*
X87694Y176194D01*
X86917Y176714D01*
X86000Y176896D01*
X85083Y176714D01*
X84306Y176194D01*
X83786Y175417D01*
X83694Y174952D01*
X83273Y174525D01*
X55741D01*
X55494Y174894D01*
X54717Y175414D01*
X53800Y175596D01*
X52883Y175414D01*
X52106Y174894D01*
X51586Y174117D01*
X51495Y173660D01*
X51034Y173469D01*
X50817Y173614D01*
X49900Y173796D01*
X48983Y173614D01*
X48206Y173094D01*
X47686Y172317D01*
X47504Y171400D01*
X47686Y170483D01*
X48206Y169706D01*
X48983Y169186D01*
X49588Y169066D01*
X49504Y168645D01*
X49686Y167728D01*
X50206Y166951D01*
X50983Y166431D01*
X51900Y166249D01*
X52817Y166431D01*
X53594Y166951D01*
X53841Y167319D01*
X69752D01*
X69903Y166819D01*
X69781Y166737D01*
X67869Y164825D01*
X62141D01*
X61894Y165194D01*
X61117Y165714D01*
X60200Y165896D01*
X59283Y165714D01*
X58506Y165194D01*
X57986Y164417D01*
X57804Y163500D01*
X57986Y162583D01*
X58506Y161806D01*
X59283Y161286D01*
X60200Y161104D01*
X61117Y161286D01*
X61894Y161806D01*
X62141Y162174D01*
X68418D01*
X68925Y162275D01*
X69355Y162563D01*
X71267Y164474D01*
X73074D01*
X73226Y163974D01*
X73106Y163894D01*
X72586Y163117D01*
X72404Y162200D01*
X72586Y161283D01*
X72689Y161129D01*
X72389Y160679D01*
X71800Y160796D01*
X70883Y160614D01*
X70106Y160094D01*
X69586Y159317D01*
X69404Y158400D01*
X69586Y157483D01*
X69892Y157026D01*
X69625Y156526D01*
X67049D01*
X66210Y157365D01*
X66296Y157800D01*
X66114Y158717D01*
X65594Y159494D01*
X64817Y160014D01*
X63900Y160196D01*
X62983Y160014D01*
X62206Y159494D01*
X61802Y158890D01*
X61209Y158685D01*
X61017Y158814D01*
X60100Y158996D01*
X59183Y158814D01*
X58406Y158294D01*
X57886Y157517D01*
X57704Y156600D01*
X57886Y155683D01*
X58406Y154906D01*
X59183Y154386D01*
X60100Y154204D01*
X60878Y154359D01*
X61050Y154324D01*
X62183D01*
X64412Y152095D01*
X64221Y151633D01*
X56618D01*
X52676Y155576D01*
X52113Y155951D01*
X51450Y156083D01*
X51320D01*
X49578Y157826D01*
X49016Y158201D01*
X48352Y158333D01*
X39218D01*
X37172Y160379D01*
X37296Y161000D01*
X37114Y161917D01*
X36594Y162694D01*
X35817Y163214D01*
X34900Y163396D01*
X33983Y163214D01*
X33206Y162694D01*
X32959Y162326D01*
X31749D01*
X27009Y167065D01*
X27096Y167500D01*
X26914Y168417D01*
X26394Y169194D01*
X25617Y169714D01*
X24700Y169896D01*
X23783Y169714D01*
X23006Y169194D01*
X22486Y168417D01*
X22304Y167500D01*
X22486Y166583D01*
X23006Y165806D01*
X23783Y165286D01*
X24700Y165104D01*
X25135Y165190D01*
X30263Y160063D01*
X30693Y159775D01*
X31200Y159675D01*
X32959D01*
X33206Y159306D01*
X33652Y159007D01*
X33674Y158974D01*
X37274Y155374D01*
X37837Y154999D01*
X38500Y154867D01*
X47634D01*
X49377Y153124D01*
X49939Y152749D01*
X50602Y152617D01*
X50732D01*
X54674Y148674D01*
X55237Y148299D01*
X55900Y148167D01*
X55901D01*
X55950Y147667D01*
X55683Y147614D01*
X54906Y147094D01*
X54727Y146827D01*
X54055Y146721D01*
X53617Y147014D01*
X52700Y147196D01*
X51783Y147014D01*
X51006Y146494D01*
X50486Y145717D01*
X50428Y145425D01*
X36426D01*
X36274Y145925D01*
X36394Y146006D01*
X36914Y146783D01*
X36970Y147069D01*
X47064D01*
X47106Y147006D01*
X47883Y146486D01*
X48800Y146304D01*
X49717Y146486D01*
X50494Y147006D01*
X51014Y147783D01*
X51196Y148700D01*
X51014Y149617D01*
X50494Y150394D01*
X49717Y150914D01*
X48800Y151096D01*
X47883Y150914D01*
X47106Y150394D01*
X47064Y150331D01*
X35700D01*
X35076Y150207D01*
X34861Y150064D01*
X34700Y150096D01*
X33783Y149914D01*
X33006Y149394D01*
X32486Y148617D01*
X32304Y147700D01*
X32486Y146783D01*
X33006Y146006D01*
X33126Y145925D01*
X32974Y145425D01*
X24757D01*
X24696Y145500D01*
X24514Y146417D01*
X23994Y147194D01*
X23217Y147714D01*
X22300Y147896D01*
X21383Y147714D01*
X20606Y147194D01*
X20086Y146417D01*
X19904Y145500D01*
X20086Y144583D01*
X20606Y143806D01*
X21280Y143355D01*
X20786Y142617D01*
X20604Y141700D01*
X20786Y140783D01*
X21306Y140006D01*
X22083Y139486D01*
X23000Y139304D01*
X23917Y139486D01*
X24694Y140006D01*
X25214Y140783D01*
X25371Y141575D01*
X32462D01*
X32664Y141197D01*
X32678Y141075D01*
X32504Y140200D01*
X32686Y139283D01*
X33206Y138506D01*
X33983Y137986D01*
X34900Y137804D01*
X35817Y137986D01*
X36594Y138506D01*
X37069Y139217D01*
X60358D01*
X60445Y139234D01*
X60640Y138763D01*
X60388Y138594D01*
X59868Y137817D01*
X59686Y136900D01*
X59722Y136720D01*
X59405Y136333D01*
X50936D01*
X50217Y136814D01*
X49300Y136996D01*
X48383Y136814D01*
X47664Y136333D01*
X36386D01*
X35817Y136714D01*
X34900Y136896D01*
X33983Y136714D01*
X33206Y136194D01*
X32686Y135417D01*
X32504Y134500D01*
X32686Y133583D01*
X33206Y132806D01*
X33983Y132286D01*
X34900Y132104D01*
X35817Y132286D01*
X36594Y132806D01*
X36635Y132867D01*
X47664D01*
X48383Y132386D01*
X49300Y132204D01*
X50217Y132386D01*
X50936Y132867D01*
X59995D01*
X60321Y132649D01*
X60984Y132517D01*
X66888D01*
X67083Y132386D01*
X68000Y132204D01*
X68917Y132386D01*
X69636Y132867D01*
X85182D01*
X87518Y130531D01*
X87686Y129683D01*
X88206Y128906D01*
X88983Y128386D01*
X89900Y128204D01*
X90817Y128386D01*
X91536Y128867D01*
X95138D01*
X101874Y122130D01*
X102437Y121755D01*
X103100Y121623D01*
X131356D01*
X131649Y121681D01*
X132075Y121256D01*
X132004Y120900D01*
X132186Y119983D01*
X132706Y119206D01*
X133483Y118686D01*
X134400Y118504D01*
X135317Y118686D01*
X136094Y119206D01*
X136407Y119675D01*
X141890D01*
X142124Y119109D01*
X142726Y118325D01*
X143509Y117724D01*
X143627Y117675D01*
X143527Y117175D01*
X103091D01*
X102744Y117694D01*
X101967Y118214D01*
X101050Y118396D01*
X100133Y118214D01*
X99356Y117694D01*
X98836Y116917D01*
X98654Y116000D01*
X98836Y115083D01*
X99356Y114306D01*
X100133Y113786D01*
X101050Y113604D01*
X101267Y113647D01*
X101443Y113472D01*
X101587Y113201D01*
X101247Y112379D01*
X101183Y111900D01*
X108616D01*
X108554Y112379D01*
X108176Y113291D01*
X107613Y114024D01*
X107705Y114459D01*
X107727Y114524D01*
X143012D01*
X143182Y114024D01*
X142726Y113674D01*
X142124Y112891D01*
X141890Y112326D01*
X133941D01*
X133494Y112994D01*
X132717Y113514D01*
X131800Y113696D01*
X130883Y113514D01*
X130106Y112994D01*
X129586Y112217D01*
X129404Y111300D01*
X129586Y110383D01*
X130106Y109606D01*
X130883Y109086D01*
X131800Y108904D01*
X132717Y109086D01*
X133494Y109606D01*
X133540Y109675D01*
X141890D01*
X142124Y109109D01*
X142726Y108326D01*
X143509Y107724D01*
X144421Y107346D01*
X145400Y107218D01*
X146379Y107346D01*
X147291Y107724D01*
X148074Y108326D01*
X148676Y109109D01*
X148910Y109675D01*
X150651D01*
X159063Y101263D01*
X159493Y100975D01*
X160000Y100874D01*
X230326D01*
X230706Y100306D01*
X231483Y99786D01*
X232400Y99604D01*
X233317Y99786D01*
X234094Y100306D01*
X234614Y101083D01*
X234796Y102000D01*
X234614Y102917D01*
X234094Y103694D01*
X233317Y104214D01*
X232400Y104396D01*
X231483Y104214D01*
X230706Y103694D01*
X230593Y103525D01*
X160549D01*
X152137Y111937D01*
X151707Y112225D01*
X151200Y112326D01*
X148910D01*
X148676Y112891D01*
X148074Y113674D01*
X147618Y114024D01*
X147788Y114524D01*
X160983D01*
X161195Y114313D01*
X161625Y114025D01*
X162132Y113925D01*
X172450D01*
X172957Y114025D01*
X173387Y114313D01*
X174072Y114997D01*
X174706Y114948D01*
X175483Y114429D01*
X176400Y114246D01*
X177317Y114429D01*
X178094Y114948D01*
X178614Y115726D01*
X178796Y116642D01*
X178614Y117559D01*
X178094Y118337D01*
X177317Y118856D01*
X176400Y119039D01*
X175483Y118856D01*
X174706Y118337D01*
X174459Y117968D01*
X173843D01*
X173335Y117867D01*
X172905Y117580D01*
X171901Y116576D01*
X165822D01*
X165412Y117076D01*
X165496Y117500D01*
X165314Y118417D01*
X164794Y119194D01*
X164017Y119714D01*
X163169Y119882D01*
X156226Y126826D01*
X155663Y127201D01*
X155000Y127333D01*
X147603D01*
X147433Y127833D01*
X148074Y128325D01*
X148676Y129109D01*
X149054Y130021D01*
X149182Y131000D01*
X149054Y131979D01*
X148676Y132891D01*
X148074Y133675D01*
X147291Y134276D01*
X146379Y134653D01*
X145400Y134782D01*
X144421Y134653D01*
X143509Y134276D01*
X142726Y133675D01*
X142124Y132891D01*
X141890Y132325D01*
X109455D01*
X108194Y133587D01*
X107764Y133875D01*
X107256Y133976D01*
X101074D01*
X100807Y134374D01*
X100850Y134589D01*
X100937Y134874D01*
X119459D01*
X119706Y134506D01*
X120483Y133986D01*
X121400Y133804D01*
X122317Y133986D01*
X123094Y134506D01*
X123614Y135283D01*
X123796Y136200D01*
X123630Y137033D01*
X123831Y137302D01*
X123996Y137444D01*
X124700Y137304D01*
X125617Y137486D01*
X126394Y138006D01*
X126914Y138783D01*
X127096Y139700D01*
X126914Y140617D01*
X126394Y141394D01*
X125617Y141914D01*
X124700Y142096D01*
X123783Y141914D01*
X123052Y141426D01*
X102641D01*
X102394Y141794D01*
X101617Y142314D01*
X100700Y142496D01*
X99783Y142314D01*
X99006Y141794D01*
X98486Y141017D01*
X98304Y140100D01*
X98486Y139183D01*
X99006Y138406D01*
X99575Y138025D01*
X99423Y137525D01*
X97772D01*
X97714Y137817D01*
X97194Y138594D01*
X96417Y139114D01*
X95500Y139296D01*
X94583Y139114D01*
X93806Y138594D01*
X93286Y137817D01*
X93104Y136900D01*
X93286Y135983D01*
X93806Y135206D01*
X94583Y134686D01*
X95500Y134504D01*
X96417Y134686D01*
X96699Y134874D01*
X97263D01*
X97350Y134589D01*
X97393Y134374D01*
X96886Y133617D01*
X96704Y132700D01*
X96719Y132623D01*
X96284Y132248D01*
X95856Y132333D01*
X91536D01*
X90817Y132814D01*
X89969Y132982D01*
X87126Y135826D01*
X86563Y136201D01*
X85900Y136333D01*
X69636D01*
X68917Y136814D01*
X68000Y136996D01*
X67083Y136814D01*
X66306Y136294D01*
X66098Y135983D01*
X64690D01*
X64373Y136370D01*
X64478Y136900D01*
X64391Y137335D01*
X65831Y138775D01*
X75259D01*
X75506Y138406D01*
X76283Y137886D01*
X77200Y137704D01*
X78117Y137886D01*
X78894Y138406D01*
X79414Y139183D01*
X79596Y140100D01*
X79414Y141017D01*
X78894Y141794D01*
X78117Y142314D01*
X77200Y142496D01*
X76283Y142314D01*
X75506Y141794D01*
X75259Y141426D01*
X65282D01*
X64775Y141325D01*
X64345Y141037D01*
X63541Y140234D01*
X63153Y140552D01*
X63277Y140738D01*
X63459Y141655D01*
X63277Y142572D01*
X62758Y143350D01*
X61980Y143869D01*
X61063Y144051D01*
X60146Y143869D01*
X59369Y143350D01*
X58924Y142683D01*
X57551D01*
X57502Y143183D01*
X57517Y143186D01*
X58294Y143706D01*
X58814Y144483D01*
X58996Y145400D01*
X58814Y146317D01*
X58294Y147094D01*
X57517Y147614D01*
X57250Y147667D01*
X57300Y148167D01*
X69382D01*
X70374Y147174D01*
X70937Y146799D01*
X71600Y146667D01*
X104264D01*
X104983Y146186D01*
X105900Y146004D01*
X106817Y146186D01*
X107594Y146706D01*
X107841Y147074D01*
X127781D01*
X132346Y142510D01*
X132304Y142300D01*
X132486Y141383D01*
X133006Y140606D01*
X133783Y140086D01*
X134700Y139904D01*
X135617Y140086D01*
X136394Y140606D01*
X136641Y140974D01*
X156400D01*
X156907Y141075D01*
X157130Y141225D01*
X172076D01*
X172283Y141086D01*
X173200Y140904D01*
X174117Y141086D01*
X174894Y141606D01*
X175414Y142383D01*
X175596Y143300D01*
X175414Y144217D01*
X174894Y144994D01*
X174117Y145514D01*
X173200Y145696D01*
X172283Y145514D01*
X171506Y144994D01*
X170986Y144217D01*
X170918Y143876D01*
X156650D01*
X156143Y143775D01*
X155920Y143625D01*
X136641D01*
X136394Y143994D01*
X135617Y144514D01*
X134700Y144696D01*
X134040Y144565D01*
X131271Y147333D01*
X131334Y147977D01*
X131694Y148217D01*
X132214Y148995D01*
X132293Y149028D01*
X132783Y148700D01*
X133700Y148518D01*
X134617Y148700D01*
X135394Y149219D01*
X135914Y149997D01*
X136096Y150914D01*
X135914Y151831D01*
X135394Y152608D01*
X134617Y153127D01*
X133700Y153310D01*
X133265Y153223D01*
X132045Y154443D01*
X131615Y154730D01*
X131294Y154794D01*
X131043Y155127D01*
X130997Y155331D01*
X131076Y155724D01*
Y157124D01*
X140751D01*
X145556Y152320D01*
X145286Y151917D01*
X145104Y151000D01*
X145286Y150083D01*
X145806Y149306D01*
X146583Y148786D01*
X147500Y148604D01*
X148417Y148786D01*
X149194Y149306D01*
X149714Y150083D01*
X149896Y151000D01*
X149714Y151917D01*
X149194Y152694D01*
X148417Y153214D01*
X148409Y153215D01*
X143662Y157963D01*
X143853Y158424D01*
X157501D01*
X164290Y151635D01*
X164204Y151200D01*
X164386Y150283D01*
X164906Y149506D01*
X165683Y148986D01*
X166600Y148804D01*
X167517Y148986D01*
X168294Y149506D01*
X168723Y150147D01*
X168814Y150283D01*
X169365Y150490D01*
X169800Y150404D01*
X170717Y150586D01*
X171494Y151106D01*
X172014Y151883D01*
X172196Y152800D01*
X172014Y153717D01*
X171494Y154494D01*
X170717Y155014D01*
X169800Y155196D01*
X168883Y155014D01*
X168106Y154494D01*
X167677Y153853D01*
X167586Y153717D01*
X167035Y153509D01*
X166600Y153596D01*
X166165Y153509D01*
X158987Y160687D01*
X158987Y160687D01*
X159004Y160975D01*
X159066Y161236D01*
X159794Y161723D01*
X160314Y162500D01*
X160496Y163417D01*
X160314Y164334D01*
X159794Y165111D01*
X159017Y165631D01*
X158100Y165813D01*
X157183Y165631D01*
X156406Y165111D01*
X155886Y164334D01*
X155704Y163417D01*
X155790Y162982D01*
X155084Y162276D01*
X131997D01*
X131806Y162737D01*
X133543Y164474D01*
X141950D01*
X142457Y164575D01*
X142887Y164863D01*
X174625Y196600D01*
X179461D01*
Y113600D01*
X179616Y112820D01*
X180058Y112158D01*
X180720Y111716D01*
X181500Y111561D01*
X238061D01*
Y2039D01*
X180250D01*
Y9100D01*
X175634D01*
X172292Y12442D01*
X171630Y12884D01*
X170850Y13039D01*
X157107D01*
X150455Y19692D01*
X149793Y20134D01*
X149013Y20289D01*
X147876D01*
X147706Y20789D01*
X148275Y21226D01*
X148876Y22009D01*
X149253Y22921D01*
X149382Y23900D01*
X149253Y24879D01*
X148876Y25791D01*
X148275Y26575D01*
X147491Y27176D01*
X146579Y27553D01*
X145600Y27682D01*
X144621Y27553D01*
X143709Y27176D01*
X142926Y26575D01*
X142324Y25791D01*
X141946Y24879D01*
X141818Y23900D01*
X141946Y22921D01*
X142324Y22009D01*
X142926Y21226D01*
X143494Y20789D01*
X143324Y20289D01*
X129950D01*
X129170Y20134D01*
X128508Y19692D01*
X122255Y13439D01*
X102100D01*
X101320Y13284D01*
X100658Y12842D01*
X93055Y5239D01*
X27745D01*
X27575Y5409D01*
X27514Y5717D01*
X26994Y6494D01*
X26217Y7014D01*
X25300Y7196D01*
X24383Y7014D01*
X23606Y6494D01*
X23086Y5717D01*
X22904Y4800D01*
X23086Y3883D01*
X23606Y3106D01*
X24383Y2586D01*
X24396Y2539D01*
X24013Y2039D01*
X2039D01*
Y204805D01*
X48200D01*
X48550Y204450D01*
X48550Y204305D01*
Y201574D01*
X30246Y183271D01*
X29893Y182741D01*
X29769Y182117D01*
Y176183D01*
X29706Y176141D01*
X29186Y175364D01*
X29004Y174447D01*
X29186Y173530D01*
X29706Y172752D01*
X30483Y172233D01*
X31400Y172051D01*
X32317Y172233D01*
X33094Y172752D01*
X33614Y173530D01*
X33796Y174447D01*
X33614Y175364D01*
X33094Y176141D01*
X33031Y176183D01*
Y181441D01*
X48214Y196624D01*
X48550Y196950D01*
Y196950D01*
X48550Y196950D01*
X56050D01*
Y204305D01*
X56050Y204450D01*
X56400Y204805D01*
X61104D01*
X61204Y204305D01*
X60409Y203976D01*
X59626Y203375D01*
X59024Y202591D01*
X58647Y201679D01*
X58583Y201200D01*
X62300D01*
X66017D01*
X65953Y201679D01*
X65576Y202591D01*
X64974Y203375D01*
X64191Y203976D01*
X63396Y204305D01*
X63496Y204805D01*
X73354D01*
X73524Y204305D01*
D02*
G37*
G36*
X179461Y204100D02*
X172750D01*
Y198475D01*
X141401Y167125D01*
X133507D01*
X133300Y167625D01*
X155399Y189725D01*
X157200D01*
X157707Y189825D01*
X158137Y190113D01*
X164955Y196931D01*
X165521Y196696D01*
X166500Y196568D01*
X167479Y196696D01*
X168391Y197074D01*
X169175Y197676D01*
X169776Y198459D01*
X170153Y199371D01*
X170282Y200350D01*
X170153Y201329D01*
X169776Y202241D01*
X169175Y203025D01*
X168391Y203626D01*
X167479Y204004D01*
X166500Y204132D01*
X165521Y204004D01*
X164609Y203626D01*
X163826Y203025D01*
X163224Y202241D01*
X162847Y201329D01*
X162718Y200350D01*
X162847Y199371D01*
X163081Y198805D01*
X156651Y192376D01*
X155257D01*
X155050Y192876D01*
X157437Y195263D01*
X157725Y195693D01*
X157826Y196200D01*
Y196840D01*
X158391Y197074D01*
X159175Y197676D01*
X159776Y198459D01*
X160153Y199371D01*
X160282Y200350D01*
X160153Y201329D01*
X159776Y202241D01*
X159175Y203025D01*
X158391Y203626D01*
X157479Y204004D01*
X156500Y204132D01*
X155521Y204004D01*
X154609Y203626D01*
X153825Y203025D01*
X153224Y202241D01*
X152847Y201329D01*
X152718Y200350D01*
X152847Y199371D01*
X153224Y198459D01*
X153825Y197676D01*
X154609Y197074D01*
X154739Y197020D01*
X154856Y196431D01*
X126094Y167669D01*
X125585Y167701D01*
X125382Y168121D01*
X125415Y168164D01*
X125682Y168808D01*
X125773Y169500D01*
X125682Y170192D01*
X125415Y170836D01*
X124990Y171390D01*
X124702Y171611D01*
X124468Y171899D01*
X124611Y172283D01*
X124815Y172549D01*
X125082Y173193D01*
X125173Y173885D01*
X125082Y174577D01*
X124815Y175221D01*
X124390Y175775D01*
X123836Y176200D01*
X123192Y176467D01*
X122500Y176558D01*
X121808Y176467D01*
X121164Y176200D01*
X120610Y175775D01*
X120185Y175221D01*
X119918Y174577D01*
X119908Y174496D01*
X119524Y174323D01*
X119380Y174321D01*
X118500Y174496D01*
X118225Y174441D01*
X117895Y174886D01*
X118427Y175880D01*
X118884Y177388D01*
X119039Y178956D01*
X118884Y180524D01*
X118427Y182032D01*
X117684Y183422D01*
X116684Y184640D01*
X115466Y185640D01*
X115186Y185790D01*
X115307Y186275D01*
X119010D01*
X119320Y185879D01*
X119316Y185775D01*
X119227Y185100D01*
X119318Y184408D01*
X119585Y183764D01*
X120010Y183210D01*
X120564Y182785D01*
X121208Y182518D01*
X121900Y182427D01*
X122592Y182518D01*
X123236Y182785D01*
X123790Y183210D01*
X124215Y183764D01*
X124482Y184408D01*
X124573Y185100D01*
X124482Y185792D01*
X124215Y186436D01*
X123858Y186901D01*
X126131Y189174D01*
X130912D01*
X131161Y189008D01*
X131668Y188908D01*
X133532D01*
X134039Y189008D01*
X134288Y189174D01*
X140959D01*
X141206Y188806D01*
X141983Y188286D01*
X142900Y188104D01*
X143817Y188286D01*
X144594Y188806D01*
X145114Y189583D01*
X145296Y190500D01*
X145114Y191417D01*
X144594Y192194D01*
X143817Y192714D01*
X142900Y192896D01*
X141983Y192714D01*
X141206Y192194D01*
X140959Y191825D01*
X133799D01*
X133292Y191725D01*
X133043Y191559D01*
X132157D01*
X131908Y191725D01*
X131401Y191825D01*
X128775D01*
X128508Y192325D01*
X128814Y192783D01*
X128996Y193700D01*
X128814Y194617D01*
X128294Y195394D01*
X127517Y195914D01*
X126995Y196018D01*
X126600Y196096D01*
X126558Y196575D01*
X127479Y196696D01*
X128391Y197074D01*
X129174Y197676D01*
X129776Y198459D01*
X130154Y199371D01*
X130282Y200350D01*
X130154Y201329D01*
X129776Y202241D01*
X129174Y203025D01*
X128391Y203626D01*
X127479Y204004D01*
X126500Y204132D01*
X125521Y204004D01*
X124609Y203626D01*
X123826Y203025D01*
X123224Y202241D01*
X122846Y201329D01*
X122718Y200350D01*
X122846Y199371D01*
X123224Y198459D01*
X123826Y197676D01*
X124609Y197074D01*
X125521Y196696D01*
X126089Y196622D01*
X126500Y196568D01*
X126528Y196082D01*
X125683Y195914D01*
X125177Y195575D01*
X98621D01*
X98310Y195956D01*
X98371Y196104D01*
X98476Y196900D01*
X98371Y197696D01*
X98101Y198350D01*
X98306Y198850D01*
X98450D01*
Y204805D01*
X179461D01*
Y204100D01*
D02*
G37*
G36*
X119265Y154993D02*
X119074Y154531D01*
X101317D01*
X99711Y156137D01*
X99281Y156425D01*
X98774Y156526D01*
X74446D01*
X74163Y157026D01*
X74222Y157124D01*
X117134D01*
X119265Y154993D01*
D02*
G37*
G36*
X103667Y130909D02*
X103618Y130792D01*
X103527Y130100D01*
X103618Y129408D01*
X103885Y128764D01*
X104310Y128210D01*
X104864Y127785D01*
X105508Y127518D01*
X106200Y127427D01*
X106892Y127518D01*
X107536Y127785D01*
X108090Y128210D01*
X108515Y128764D01*
X108782Y129408D01*
X108808Y129604D01*
X108906Y129674D01*
X141890D01*
X142124Y129109D01*
X142726Y128325D01*
X143367Y127833D01*
X143197Y127333D01*
X133600D01*
X132937Y127201D01*
X132374Y126826D01*
X130638Y125089D01*
X113675D01*
X113398Y125505D01*
X113482Y125708D01*
X113573Y126400D01*
X113482Y127092D01*
X113215Y127736D01*
X112790Y128290D01*
X112236Y128715D01*
X111592Y128982D01*
X110900Y129073D01*
X110208Y128982D01*
X109564Y128715D01*
X109010Y128290D01*
X108585Y127736D01*
X108318Y127092D01*
X108227Y126400D01*
X108318Y125708D01*
X108402Y125505D01*
X108125Y125089D01*
X103818D01*
X99068Y129839D01*
X99275Y130339D01*
X100017Y130486D01*
X100794Y131006D01*
X101007Y131325D01*
X103389D01*
X103667Y130909D01*
D02*
G37*
G36*
X164394Y8461D02*
X163826Y8025D01*
X163224Y7241D01*
X162847Y6329D01*
X162784Y5850D01*
X166500D01*
Y4850D01*
X162784D01*
X162847Y4371D01*
X163224Y3459D01*
X163826Y2675D01*
X164003Y2539D01*
X163833Y2039D01*
X159167D01*
X158997Y2539D01*
X159175Y2675D01*
X159776Y3459D01*
X160153Y4371D01*
X160282Y5350D01*
X160153Y6329D01*
X159776Y7241D01*
X159175Y8025D01*
X158606Y8461D01*
X158776Y8961D01*
X164224D01*
X164394Y8461D01*
D02*
G37*
G36*
X141850Y10150D02*
X149350D01*
Y14376D01*
X149812Y14567D01*
X154821Y9558D01*
X155101Y9371D01*
X155046Y8806D01*
X154609Y8626D01*
X153825Y8025D01*
X153224Y7241D01*
X152847Y6329D01*
X152718Y5350D01*
X152847Y4371D01*
X153224Y3459D01*
X153825Y2675D01*
X154003Y2539D01*
X153833Y2039D01*
X149167D01*
X148997Y2539D01*
X149174Y2675D01*
X149776Y3459D01*
X150154Y4371D01*
X150282Y5350D01*
X150154Y6329D01*
X149776Y7241D01*
X149174Y8025D01*
X148391Y8626D01*
X147479Y9003D01*
X146500Y9132D01*
X145521Y9003D01*
X144609Y8626D01*
X143825Y8025D01*
X143224Y7241D01*
X142847Y6329D01*
X142718Y5350D01*
X142847Y4371D01*
X143224Y3459D01*
X143825Y2675D01*
X144003Y2539D01*
X143833Y2039D01*
X139167D01*
X138997Y2539D01*
X139174Y2675D01*
X139776Y3459D01*
X140154Y4371D01*
X140282Y5350D01*
X140154Y6329D01*
X139776Y7241D01*
X139174Y8025D01*
X138391Y8626D01*
X137479Y9003D01*
X136500Y9132D01*
X135521Y9003D01*
X134609Y8626D01*
X133826Y8025D01*
X133224Y7241D01*
X132846Y6329D01*
X132718Y5350D01*
X132846Y4371D01*
X133224Y3459D01*
X133826Y2675D01*
X134003Y2539D01*
X133833Y2039D01*
X129167D01*
X128997Y2539D01*
X129174Y2675D01*
X129776Y3459D01*
X130154Y4371D01*
X130282Y5350D01*
X130154Y6329D01*
X129776Y7241D01*
X129174Y8025D01*
X128391Y8626D01*
X127479Y9003D01*
X126500Y9132D01*
X125521Y9003D01*
X124609Y8626D01*
X123826Y8025D01*
X123224Y7241D01*
X122846Y6329D01*
X122718Y5350D01*
X122846Y4371D01*
X123224Y3459D01*
X123826Y2675D01*
X124003Y2539D01*
X123833Y2039D01*
X119167D01*
X118997Y2539D01*
X119175Y2675D01*
X119776Y3459D01*
X120153Y4371D01*
X120282Y5350D01*
X120153Y6329D01*
X119776Y7241D01*
X119175Y8025D01*
X118391Y8626D01*
X117823Y8861D01*
X117923Y9361D01*
X123100D01*
X123880Y9516D01*
X124542Y9958D01*
X130795Y16211D01*
X141850D01*
Y10150D01*
D02*
G37*
%LPC*%
G36*
X66017Y200200D02*
X62800D01*
Y196984D01*
X63279Y197046D01*
X64191Y197424D01*
X64974Y198026D01*
X65576Y198809D01*
X65953Y199721D01*
X66017Y200200D01*
D02*
G37*
G36*
X61800D02*
X58583D01*
X58647Y199721D01*
X59024Y198809D01*
X59626Y198026D01*
X60409Y197424D01*
X61321Y197046D01*
X61800Y196984D01*
Y200200D01*
D02*
G37*
G36*
X14250Y203750D02*
X6750D01*
Y196250D01*
X14250D01*
Y203750D01*
D02*
G37*
G36*
X28962Y201536D02*
X22238D01*
Y194812D01*
X28962D01*
Y201536D01*
D02*
G37*
G36*
X25600Y193691D02*
X24722Y193576D01*
X23904Y193237D01*
X23202Y192698D01*
X22663Y191996D01*
X22324Y191178D01*
X22209Y190300D01*
X22324Y189422D01*
X22663Y188604D01*
X23202Y187902D01*
X23904Y187363D01*
X24722Y187024D01*
X25600Y186909D01*
X26478Y187024D01*
X27296Y187363D01*
X27998Y187902D01*
X28537Y188604D01*
X28876Y189422D01*
X28991Y190300D01*
X28876Y191178D01*
X28537Y191996D01*
X27998Y192698D01*
X27296Y193237D01*
X26478Y193576D01*
X25600Y193691D01*
D02*
G37*
G36*
X10500Y193782D02*
X9521Y193654D01*
X8609Y193276D01*
X7825Y192675D01*
X7224Y191891D01*
X6847Y190979D01*
X6718Y190000D01*
X6847Y189021D01*
X7224Y188109D01*
X7825Y187326D01*
X8609Y186724D01*
X9521Y186346D01*
X10500Y186218D01*
X11479Y186346D01*
X12391Y186724D01*
X13174Y187326D01*
X13776Y188109D01*
X14153Y189021D01*
X14282Y190000D01*
X14153Y190979D01*
X13776Y191891D01*
X13174Y192675D01*
X12391Y193276D01*
X11479Y193654D01*
X10500Y193782D01*
D02*
G37*
G36*
X51102Y185707D02*
Y183600D01*
X53209D01*
X53184Y183792D01*
X52917Y184436D01*
X52492Y184990D01*
X51939Y185415D01*
X51294Y185682D01*
X51102Y185707D01*
D02*
G37*
G36*
X50102Y185707D02*
X49911Y185682D01*
X49266Y185415D01*
X48712Y184990D01*
X48288Y184436D01*
X48020Y183792D01*
X47995Y183600D01*
X50102D01*
Y185707D01*
D02*
G37*
G36*
X26100Y185751D02*
Y182926D01*
X28925D01*
X28876Y183304D01*
X28537Y184122D01*
X27998Y184824D01*
X27296Y185363D01*
X26478Y185702D01*
X26100Y185751D01*
D02*
G37*
G36*
X25100D02*
X24722Y185702D01*
X23904Y185363D01*
X23202Y184824D01*
X22663Y184122D01*
X22324Y183304D01*
X22275Y182926D01*
X25100D01*
Y185751D01*
D02*
G37*
G36*
X11000Y183716D02*
Y180500D01*
X14217D01*
X14153Y180979D01*
X13776Y181891D01*
X13174Y182675D01*
X12391Y183276D01*
X11479Y183653D01*
X11000Y183716D01*
D02*
G37*
G36*
X10000D02*
X9521Y183653D01*
X8609Y183276D01*
X7825Y182675D01*
X7224Y181891D01*
X6847Y180979D01*
X6784Y180500D01*
X10000D01*
Y183716D01*
D02*
G37*
G36*
X50102Y182600D02*
X47995D01*
X48020Y182408D01*
X48288Y181764D01*
X48712Y181210D01*
X49266Y180785D01*
X49911Y180518D01*
X50102Y180493D01*
Y182600D01*
D02*
G37*
G36*
X53209D02*
X51102D01*
Y180493D01*
X51294Y180518D01*
X51939Y180785D01*
X52492Y181210D01*
X52917Y181764D01*
X53184Y182408D01*
X53209Y182600D01*
D02*
G37*
G36*
X28925Y181926D02*
X26100D01*
Y179101D01*
X26478Y179150D01*
X27296Y179489D01*
X27998Y180028D01*
X28537Y180730D01*
X28876Y181548D01*
X28925Y181926D01*
D02*
G37*
G36*
X25100D02*
X22275D01*
X22324Y181548D01*
X22663Y180730D01*
X23202Y180028D01*
X23904Y179489D01*
X24722Y179150D01*
X25100Y179101D01*
Y181926D01*
D02*
G37*
G36*
X99400Y182441D02*
X98708Y182350D01*
X98064Y182083D01*
X97510Y181658D01*
X97085Y181105D01*
X96818Y180460D01*
X96727Y179768D01*
X96818Y179076D01*
X97085Y178432D01*
X97510Y177878D01*
X98064Y177453D01*
X98708Y177186D01*
X99400Y177095D01*
X100092Y177186D01*
X100736Y177453D01*
X101290Y177878D01*
X101715Y178432D01*
X101982Y179076D01*
X102073Y179768D01*
X101982Y180460D01*
X101715Y181105D01*
X101290Y181658D01*
X100736Y182083D01*
X100092Y182350D01*
X99400Y182441D01*
D02*
G37*
G36*
X14217Y179500D02*
X11000D01*
Y176284D01*
X11479Y176347D01*
X12391Y176724D01*
X13174Y177325D01*
X13776Y178109D01*
X14153Y179021D01*
X14217Y179500D01*
D02*
G37*
G36*
X10000D02*
X6784D01*
X6847Y179021D01*
X7224Y178109D01*
X7825Y177325D01*
X8609Y176724D01*
X9521Y176347D01*
X10000Y176284D01*
Y179500D01*
D02*
G37*
G36*
X72275Y119996D02*
X71358Y119814D01*
X70581Y119294D01*
X70061Y118517D01*
X69879Y117600D01*
X69965Y117165D01*
X67179Y114378D01*
X66791Y114676D01*
X65879Y115053D01*
X64900Y115182D01*
X63921Y115053D01*
X63009Y114676D01*
X62226Y114075D01*
X61624Y113291D01*
X61247Y112379D01*
X61118Y111400D01*
X61247Y110421D01*
X61624Y109509D01*
X62226Y108726D01*
X63009Y108124D01*
X63248Y108026D01*
X63148Y107526D01*
X56652D01*
X56552Y108026D01*
X56791Y108124D01*
X57574Y108726D01*
X58176Y109509D01*
X58553Y110421D01*
X58682Y111400D01*
X58553Y112379D01*
X58176Y113291D01*
X57574Y114075D01*
X56791Y114676D01*
X55879Y115053D01*
X54900Y115182D01*
X53921Y115053D01*
X53009Y114676D01*
X52226Y114075D01*
X51624Y113291D01*
X51247Y112379D01*
X51118Y111400D01*
X51247Y110421D01*
X51624Y109509D01*
X52226Y108726D01*
X53009Y108124D01*
X53248Y108026D01*
X53148Y107526D01*
X50649D01*
X48319Y109855D01*
X48553Y110421D01*
X48682Y111400D01*
X48553Y112379D01*
X48176Y113291D01*
X47574Y114075D01*
X46791Y114676D01*
X45879Y115053D01*
X44900Y115182D01*
X43921Y115053D01*
X43009Y114676D01*
X42226Y114075D01*
X41624Y113291D01*
X41247Y112379D01*
X41118Y111400D01*
X41247Y110421D01*
X41624Y109509D01*
X42226Y108726D01*
X43009Y108124D01*
X43921Y107747D01*
X44900Y107618D01*
X45879Y107747D01*
X46445Y107981D01*
X49163Y105263D01*
X49593Y104975D01*
X50100Y104875D01*
X71559D01*
X71806Y104506D01*
X71926Y104426D01*
X71774Y103926D01*
X44249D01*
X38650Y109525D01*
Y115150D01*
X31150D01*
Y107650D01*
X36775D01*
X42763Y101663D01*
X43193Y101375D01*
X43700Y101275D01*
X65640D01*
X65689Y100775D01*
X65383Y100714D01*
X64606Y100194D01*
X64086Y99417D01*
X63904Y98500D01*
X64086Y97583D01*
X64606Y96806D01*
X65383Y96286D01*
X66300Y96104D01*
X67217Y96286D01*
X67994Y96806D01*
X68241Y97175D01*
X114059D01*
X114306Y96806D01*
X115083Y96286D01*
X116000Y96104D01*
X116917Y96286D01*
X117694Y96806D01*
X118214Y97583D01*
X118396Y98500D01*
X118214Y99417D01*
X117694Y100194D01*
X116917Y100714D01*
X116000Y100896D01*
X115083Y100714D01*
X114306Y100194D01*
X114059Y99826D01*
X68241D01*
X67994Y100194D01*
X67217Y100714D01*
X66911Y100775D01*
X66960Y101275D01*
X74900D01*
X75407Y101375D01*
X75837Y101663D01*
X76865Y102690D01*
X77300Y102604D01*
X78217Y102786D01*
X78794Y103172D01*
X79306Y102406D01*
X80083Y101886D01*
X81000Y101704D01*
X81917Y101886D01*
X82694Y102406D01*
X83214Y103183D01*
X83252Y103375D01*
X116159D01*
X116406Y103006D01*
X117183Y102486D01*
X118100Y102304D01*
X119017Y102486D01*
X119794Y103006D01*
X120314Y103783D01*
X120496Y104700D01*
X120314Y105617D01*
X119794Y106394D01*
X119017Y106914D01*
X118100Y107096D01*
X117183Y106914D01*
X116406Y106394D01*
X116159Y106026D01*
X82348D01*
X81917Y106314D01*
X81000Y106496D01*
X80083Y106314D01*
X79506Y105928D01*
X78994Y106694D01*
X78217Y107214D01*
X77300Y107396D01*
X76383Y107214D01*
X76381Y107212D01*
X75892Y107353D01*
X76124Y107848D01*
X76791Y108124D01*
X77574Y108726D01*
X78176Y109509D01*
X78553Y110421D01*
X78682Y111400D01*
X78553Y112379D01*
X78176Y113291D01*
X77574Y114075D01*
X76791Y114676D01*
X75879Y115053D01*
X74900Y115182D01*
X73921Y115053D01*
X73009Y114676D01*
X72225Y114075D01*
X71624Y113291D01*
X71246Y112379D01*
X71118Y111400D01*
X71246Y110421D01*
X71624Y109509D01*
X72200Y108759D01*
X72224Y108706D01*
X72170Y108138D01*
X71806Y107894D01*
X71559Y107526D01*
X66652D01*
X66552Y108026D01*
X66791Y108124D01*
X67575Y108726D01*
X68176Y109509D01*
X68554Y110421D01*
X68682Y111400D01*
X68597Y112048D01*
X71840Y115290D01*
X72275Y115204D01*
X73192Y115386D01*
X73969Y115906D01*
X74488Y116683D01*
X74671Y117600D01*
X74488Y118517D01*
X73969Y119294D01*
X73192Y119814D01*
X72275Y119996D01*
D02*
G37*
G36*
X108616Y110900D02*
X105400D01*
Y107684D01*
X105879Y107747D01*
X106791Y108124D01*
X107574Y108726D01*
X108176Y109509D01*
X108554Y110421D01*
X108616Y110900D01*
D02*
G37*
G36*
X104400D02*
X101183D01*
X101247Y110421D01*
X101624Y109509D01*
X102225Y108726D01*
X103009Y108124D01*
X103921Y107747D01*
X104400Y107684D01*
Y110900D01*
D02*
G37*
G36*
X94900Y115182D02*
X93921Y115053D01*
X93009Y114676D01*
X92225Y114075D01*
X91624Y113291D01*
X91246Y112379D01*
X91118Y111400D01*
X91246Y110421D01*
X91624Y109509D01*
X92225Y108726D01*
X93009Y108124D01*
X93921Y107747D01*
X94900Y107618D01*
X95879Y107747D01*
X96791Y108124D01*
X97575Y108726D01*
X98176Y109509D01*
X98554Y110421D01*
X98682Y111400D01*
X98554Y112379D01*
X98176Y113291D01*
X97575Y114075D01*
X96791Y114676D01*
X95879Y115053D01*
X94900Y115182D01*
D02*
G37*
G36*
X84900D02*
X83921Y115053D01*
X83009Y114676D01*
X82226Y114075D01*
X81624Y113291D01*
X81247Y112379D01*
X81118Y111400D01*
X81247Y110421D01*
X81624Y109509D01*
X82226Y108726D01*
X83009Y108124D01*
X83921Y107747D01*
X84900Y107618D01*
X85879Y107747D01*
X86791Y108124D01*
X87574Y108726D01*
X88176Y109509D01*
X88554Y110421D01*
X88682Y111400D01*
X88554Y112379D01*
X88176Y113291D01*
X87574Y114075D01*
X86791Y114676D01*
X85879Y115053D01*
X84900Y115182D01*
D02*
G37*
G36*
X145900Y104717D02*
Y101500D01*
X149117D01*
X149054Y101979D01*
X148676Y102891D01*
X148074Y103674D01*
X147291Y104276D01*
X146379Y104654D01*
X145900Y104717D01*
D02*
G37*
G36*
X144900D02*
X144421Y104654D01*
X143509Y104276D01*
X142726Y103674D01*
X142124Y102891D01*
X141746Y101979D01*
X141683Y101500D01*
X144900D01*
Y104717D01*
D02*
G37*
G36*
X149117Y100500D02*
X145400D01*
X141683D01*
X141746Y100021D01*
X142097Y99176D01*
X141904Y98676D01*
X136021D01*
X136013Y98717D01*
X135493Y99494D01*
X134716Y100014D01*
X133799Y100196D01*
X132882Y100014D01*
X132105Y99494D01*
X131585Y98717D01*
X131403Y97800D01*
X131585Y96883D01*
X132105Y96106D01*
X132882Y95586D01*
X133799Y95404D01*
X134716Y95586D01*
X135372Y96025D01*
X223625D01*
X224106Y95306D01*
X224883Y94786D01*
X225800Y94604D01*
X226717Y94786D01*
X227494Y95306D01*
X228014Y96083D01*
X228196Y97000D01*
X228014Y97917D01*
X227494Y98694D01*
X226717Y99214D01*
X225800Y99396D01*
X224883Y99214D01*
X224106Y98694D01*
X224093Y98676D01*
X148896D01*
X148703Y99176D01*
X149054Y100021D01*
X149117Y100500D01*
D02*
G37*
G36*
X145400Y94782D02*
X144421Y94653D01*
X143509Y94276D01*
X142726Y93674D01*
X142124Y92891D01*
X141746Y91979D01*
X141618Y91000D01*
X141746Y90021D01*
X142124Y89109D01*
X142726Y88326D01*
X143509Y87724D01*
X144421Y87347D01*
X145400Y87218D01*
X146379Y87347D01*
X147291Y87724D01*
X148074Y88326D01*
X148676Y89109D01*
X148783Y89369D01*
X164600D01*
X164787Y89406D01*
X165300Y89304D01*
X166217Y89486D01*
X166994Y90006D01*
X167514Y90783D01*
X167696Y91700D01*
X167514Y92617D01*
X166994Y93394D01*
X166217Y93914D01*
X165300Y94096D01*
X164383Y93914D01*
X163606Y93394D01*
X163096Y92631D01*
X148783D01*
X148676Y92891D01*
X148074Y93674D01*
X147291Y94276D01*
X146379Y94653D01*
X145400Y94782D01*
D02*
G37*
G36*
X149150Y84750D02*
X141650D01*
Y77250D01*
X149150D01*
Y79675D01*
X175202D01*
X175783Y79286D01*
X176700Y79104D01*
X177617Y79286D01*
X178394Y79806D01*
X178914Y80583D01*
X179096Y81500D01*
X178914Y82417D01*
X178394Y83194D01*
X177617Y83714D01*
X176700Y83896D01*
X175783Y83714D01*
X175006Y83194D01*
X174486Y82417D01*
X174468Y82326D01*
X149150D01*
Y84750D01*
D02*
G37*
G36*
X206000Y66030D02*
X205928Y66021D01*
X203491D01*
X203101Y65943D01*
X203091Y65936D01*
X203081Y65943D01*
X202691Y66021D01*
X200272D01*
X200200Y66030D01*
X199286Y65910D01*
X198435Y65557D01*
X197704Y64996D01*
X197143Y64265D01*
X196961Y63826D01*
X185400D01*
X184893Y63725D01*
X184463Y63437D01*
X174235Y53210D01*
X173800Y53296D01*
X172883Y53114D01*
X172106Y52594D01*
X171859Y52226D01*
X167500D01*
X166993Y52125D01*
X166563Y51837D01*
X166301Y51575D01*
X149096D01*
X148903Y52075D01*
X149253Y52921D01*
X149382Y53900D01*
X149253Y54879D01*
X148876Y55791D01*
X148275Y56574D01*
X147491Y57176D01*
X146579Y57553D01*
X145600Y57682D01*
X144621Y57553D01*
X144055Y57319D01*
X143737Y57637D01*
X143307Y57925D01*
X142800Y58025D01*
X101431D01*
X100869Y58587D01*
X100439Y58875D01*
X99932Y58975D01*
X95300D01*
X94793Y58875D01*
X94363Y58587D01*
X93051Y57275D01*
X90117D01*
X89955Y57437D01*
X89525Y57725D01*
X89018Y57825D01*
X74768D01*
X74261Y57725D01*
X73831Y57437D01*
X72170Y55776D01*
X72161Y55775D01*
X71731Y55487D01*
X71219Y54975D01*
X42974D01*
X42694Y55394D01*
X41917Y55914D01*
X41000Y56096D01*
X40083Y55914D01*
X39306Y55394D01*
X38786Y54617D01*
X38604Y53700D01*
X38786Y52783D01*
X38994Y52472D01*
X38758Y52031D01*
X32036D01*
X31994Y52094D01*
X31217Y52614D01*
X30300Y52796D01*
X29383Y52614D01*
X28606Y52094D01*
X28086Y51317D01*
X27904Y50400D01*
X28086Y49483D01*
X28606Y48706D01*
X29383Y48186D01*
X30300Y48004D01*
X31217Y48186D01*
X31994Y48706D01*
X32036Y48769D01*
X48664D01*
X48706Y48706D01*
X49483Y48186D01*
X50400Y48004D01*
X51013Y48126D01*
X51050Y48119D01*
X63810D01*
X63998Y47993D01*
X64622Y47869D01*
X70558D01*
X70753Y47503D01*
X70777Y47369D01*
X70604Y46500D01*
X70786Y45583D01*
X71200Y44964D01*
X71250Y44664D01*
X71118Y44330D01*
X70553Y43896D01*
X70061Y43255D01*
X69791Y43207D01*
X69758D01*
X69488Y43255D01*
X68996Y43896D01*
X68265Y44457D01*
X67414Y44810D01*
X66500Y44930D01*
X65586Y44810D01*
X65439Y44889D01*
X65314Y45517D01*
X64794Y46294D01*
X64017Y46814D01*
X63100Y46996D01*
X62183Y46814D01*
X61406Y46294D01*
X60886Y45517D01*
X60704Y44600D01*
X60886Y43683D01*
X61406Y42906D01*
X62183Y42386D01*
X63076Y42209D01*
X62970Y41400D01*
X62981Y41312D01*
Y38909D01*
X63059Y38519D01*
X63065Y38509D01*
X63059Y38499D01*
X62981Y38109D01*
Y35688D01*
X62970Y35600D01*
X63090Y34686D01*
X63443Y33835D01*
X64004Y33104D01*
X64735Y32543D01*
X65586Y32190D01*
X66500Y32070D01*
X67414Y32190D01*
X67427Y32183D01*
X67586Y31383D01*
X67659Y31274D01*
X67423Y30833D01*
X53954D01*
Y23928D01*
Y17022D01*
X54885D01*
Y11808D01*
X54986Y11300D01*
X55273Y10870D01*
X58932Y7211D01*
X59235Y7009D01*
X59606Y6454D01*
X60383Y5935D01*
X61300Y5752D01*
X62217Y5935D01*
X62994Y6454D01*
X63514Y7231D01*
X63696Y8148D01*
X63514Y9065D01*
X62994Y9843D01*
X62217Y10362D01*
X61614Y10482D01*
X61379Y11031D01*
X61414Y11083D01*
X61596Y12000D01*
X61480Y12584D01*
X61600Y12704D01*
X62517Y12886D01*
X63294Y13406D01*
X63814Y14183D01*
X63996Y15100D01*
X63814Y16017D01*
X63476Y16522D01*
X63743Y17022D01*
X99805D01*
Y23928D01*
X100805D01*
Y17022D01*
X102561D01*
Y23927D01*
Y30833D01*
X100161D01*
X99970Y31295D01*
X100318Y31644D01*
X100536Y31969D01*
X102054D01*
Y36981D01*
X102054Y37119D01*
Y37481D01*
X102054Y37619D01*
Y39556D01*
X99381D01*
Y40056D01*
X98881D01*
Y42631D01*
X94981D01*
Y40056D01*
X93981D01*
Y42631D01*
X92173D01*
Y42631D01*
X90000D01*
Y40056D01*
X89500D01*
Y39556D01*
X86827D01*
Y37619D01*
X86827Y37481D01*
Y37119D01*
X86827Y36981D01*
Y31969D01*
X89356D01*
X90030Y31295D01*
X89839Y30833D01*
X83211D01*
X83020Y31295D01*
X84537Y32813D01*
X84825Y33243D01*
X84926Y33750D01*
Y37400D01*
X84825Y37907D01*
X84537Y38337D01*
X83118Y39756D01*
Y41311D01*
X83130Y41400D01*
X83010Y42314D01*
X82657Y43165D01*
X82096Y43896D01*
X81365Y44457D01*
X80514Y44810D01*
X80023Y44875D01*
X80056Y45375D01*
X91516D01*
X92177Y44713D01*
X92607Y44425D01*
X93115Y44324D01*
X97464D01*
X97971Y44425D01*
X98194Y44574D01*
X110551D01*
X122163Y32963D01*
X122593Y32675D01*
X123100Y32574D01*
X138743D01*
X138926Y32074D01*
X138486Y31417D01*
X138304Y30500D01*
X138486Y29583D01*
X139006Y28806D01*
X139783Y28286D01*
X140700Y28104D01*
X141617Y28286D01*
X142394Y28806D01*
X142474Y28925D01*
X152400D01*
X152907Y29025D01*
X153337Y29313D01*
X154090Y30066D01*
X154550Y29974D01*
X193859D01*
X194106Y29606D01*
X194883Y29086D01*
X195800Y28904D01*
X196717Y29086D01*
X197494Y29606D01*
X198014Y30383D01*
X198196Y31300D01*
X198112Y31725D01*
X198522Y32225D01*
X199694D01*
X200006Y31758D01*
X200783Y31238D01*
X201700Y31056D01*
X202617Y31238D01*
X203394Y31758D01*
X203914Y32535D01*
X204096Y33452D01*
X203914Y34369D01*
X203394Y35146D01*
X202617Y35666D01*
X201700Y35848D01*
X200783Y35666D01*
X200006Y35146D01*
X199825Y34876D01*
X196166D01*
X195849Y35262D01*
X195896Y35500D01*
X195714Y36417D01*
X195194Y37194D01*
X194417Y37714D01*
X193500Y37896D01*
X193065Y37810D01*
X193037Y37837D01*
X192607Y38125D01*
X192100Y38225D01*
X183682D01*
X183175Y38125D01*
X182745Y37837D01*
X182083Y37176D01*
X181317D01*
X180005Y38487D01*
X179575Y38775D01*
X179068Y38875D01*
X177314D01*
X177162Y39375D01*
X177194Y39397D01*
X177714Y40174D01*
X177835Y40784D01*
X178377Y40948D01*
X179913Y39413D01*
X180343Y39125D01*
X180850Y39024D01*
X195763D01*
X196206Y38362D01*
X196983Y37842D01*
X197900Y37660D01*
X198817Y37842D01*
X199594Y38362D01*
X200114Y39139D01*
X200296Y40056D01*
X200114Y40973D01*
X199594Y41750D01*
X198817Y42270D01*
X197900Y42452D01*
X196983Y42270D01*
X196206Y41750D01*
X196156Y41675D01*
X181399D01*
X178087Y44987D01*
X177657Y45275D01*
X177150Y45375D01*
X149048D01*
X148876Y45791D01*
X148275Y46575D01*
X147491Y47176D01*
X146579Y47554D01*
X145600Y47682D01*
X144621Y47554D01*
X144055Y47319D01*
X143837Y47537D01*
X143407Y47825D01*
X142900Y47925D01*
X132649D01*
X128037Y52537D01*
X127607Y52825D01*
X127100Y52925D01*
X100981D01*
X100729Y53426D01*
X100778Y53491D01*
X136651D01*
X140829Y49313D01*
X141259Y49025D01*
X141766Y48924D01*
X166850D01*
X167357Y49025D01*
X167787Y49313D01*
X168049Y49575D01*
X171859D01*
X172106Y49206D01*
X172883Y48686D01*
X173800Y48504D01*
X174717Y48686D01*
X175494Y49206D01*
X176014Y49983D01*
X176196Y50900D01*
X176110Y51335D01*
X185949Y61174D01*
X196961D01*
X197143Y60735D01*
X197704Y60004D01*
X198435Y59443D01*
X199286Y59090D01*
X200200Y58970D01*
X200289Y58982D01*
X202691D01*
X203081Y59059D01*
X203091Y59066D01*
X203101Y59059D01*
X203491Y58982D01*
X205911D01*
X206000Y58970D01*
X206914Y59090D01*
X207765Y59443D01*
X208496Y60004D01*
X209025Y60692D01*
X209183Y60586D01*
X210100Y60404D01*
X211017Y60586D01*
X211794Y61106D01*
X212314Y61883D01*
X212496Y62800D01*
X212314Y63717D01*
X211794Y64494D01*
X211017Y65014D01*
X210100Y65196D01*
X209183Y65014D01*
X208720Y64704D01*
X208496Y64996D01*
X207765Y65557D01*
X206914Y65910D01*
X206000Y66030D01*
D02*
G37*
G36*
X146100Y67616D02*
Y64400D01*
X149317D01*
X149253Y64879D01*
X148876Y65791D01*
X148275Y66575D01*
X147491Y67176D01*
X146579Y67554D01*
X146100Y67616D01*
D02*
G37*
G36*
X145100D02*
X144621Y67554D01*
X143709Y67176D01*
X142926Y66575D01*
X142324Y65791D01*
X141946Y64879D01*
X141884Y64400D01*
X145100D01*
Y67616D01*
D02*
G37*
G36*
X149317Y63400D02*
X146100D01*
Y60184D01*
X146579Y60246D01*
X147491Y60624D01*
X148275Y61225D01*
X148876Y62009D01*
X149253Y62921D01*
X149317Y63400D01*
D02*
G37*
G36*
X145100D02*
X141884D01*
X141946Y62921D01*
X142324Y62009D01*
X142926Y61225D01*
X143709Y60624D01*
X144621Y60246D01*
X145100Y60184D01*
Y63400D01*
D02*
G37*
G36*
X69100Y64096D02*
X68183Y63914D01*
X67406Y63394D01*
X66886Y62617D01*
X66704Y61700D01*
X66886Y60783D01*
X67406Y60006D01*
X68183Y59486D01*
X69100Y59304D01*
X70017Y59486D01*
X70794Y60006D01*
X71041Y60374D01*
X135326D01*
X135706Y59806D01*
X136483Y59286D01*
X137400Y59104D01*
X138317Y59286D01*
X139094Y59806D01*
X139614Y60583D01*
X139796Y61500D01*
X139614Y62417D01*
X139094Y63194D01*
X138317Y63714D01*
X137400Y63896D01*
X136483Y63714D01*
X135706Y63194D01*
X135593Y63025D01*
X71041D01*
X70794Y63394D01*
X70017Y63914D01*
X69100Y64096D01*
D02*
G37*
G36*
X230686Y51219D02*
X229769Y51037D01*
X228992Y50517D01*
X228472Y49740D01*
X228290Y48823D01*
X228472Y47906D01*
X228992Y47129D01*
X229769Y46609D01*
X230686Y46427D01*
X231603Y46609D01*
X232380Y47129D01*
X232899Y47906D01*
X233082Y48823D01*
X232899Y49740D01*
X232380Y50517D01*
X231603Y51037D01*
X230686Y51219D01*
D02*
G37*
G36*
X58873Y43031D02*
X56700D01*
Y40956D01*
X58873D01*
Y43031D01*
D02*
G37*
G36*
X45873Y42931D02*
X43700D01*
Y40856D01*
X45873D01*
Y42931D01*
D02*
G37*
G36*
X89000Y42631D02*
X86827D01*
Y40556D01*
X89000D01*
Y42631D01*
D02*
G37*
G36*
X102054Y42631D02*
X99881D01*
Y40556D01*
X102054D01*
Y42631D01*
D02*
G37*
G36*
X50200Y44230D02*
X49286Y44110D01*
X48435Y43757D01*
X47704Y43196D01*
X47143Y42465D01*
X46790Y41614D01*
X46670Y40700D01*
X46679Y40628D01*
Y40198D01*
X46335Y39854D01*
X46330Y39856D01*
X43200D01*
Y40356D01*
X42700D01*
Y42931D01*
X40527D01*
Y42931D01*
X40273Y42631D01*
X38100D01*
Y40056D01*
X37100D01*
Y42631D01*
X35173D01*
Y42831D01*
X29827D01*
Y39975D01*
X29723Y39906D01*
X29223Y40173D01*
Y42831D01*
X23877D01*
Y39890D01*
X22147Y38159D01*
X21793Y37630D01*
X21669Y37006D01*
Y33049D01*
X21793Y32425D01*
X22147Y31896D01*
X22747Y31295D01*
X22556Y30833D01*
X21352D01*
Y24428D01*
X23139D01*
Y23928D01*
X23639D01*
Y17022D01*
X41931D01*
Y23927D01*
X42931D01*
Y17022D01*
X47442D01*
Y23928D01*
X48443D01*
Y17022D01*
X52954D01*
Y23928D01*
Y30833D01*
X51525D01*
Y31661D01*
X51965Y31843D01*
X52696Y32404D01*
X53027Y32835D01*
X53527Y32665D01*
Y32369D01*
X58873D01*
Y37381D01*
X58873Y37519D01*
X58873D01*
Y37881D01*
X58873D01*
Y39956D01*
X56200D01*
Y40456D01*
X55700D01*
Y43031D01*
X53527D01*
Y42935D01*
X53027Y42766D01*
X52696Y43196D01*
X51965Y43757D01*
X51114Y44110D01*
X50200Y44230D01*
D02*
G37*
G36*
X104848Y30833D02*
X103561D01*
Y24428D01*
X104848D01*
Y30833D01*
D02*
G37*
G36*
Y23427D02*
X103561D01*
Y17022D01*
X104848D01*
Y23427D01*
D02*
G37*
G36*
X22639Y23428D02*
X21352D01*
Y17022D01*
X22639D01*
Y23428D01*
D02*
G37*
%LPD*%
G36*
X131163Y45663D02*
X131593Y45375D01*
X132100Y45274D01*
X141641D01*
X141933Y44774D01*
X141818Y43900D01*
X141946Y42921D01*
X142130Y42477D01*
X141771Y42039D01*
X141556Y42081D01*
X137926D01*
X137301Y41957D01*
X136772Y41603D01*
X136750Y41581D01*
X135414D01*
X134917Y41914D01*
X134000Y42096D01*
X133083Y41914D01*
X132586Y41581D01*
X128926D01*
X120694Y49813D01*
X120886Y50274D01*
X126551D01*
X131163Y45663D01*
D02*
G37*
%LPC*%
G36*
X107000Y204066D02*
Y200850D01*
X110216D01*
X110153Y201329D01*
X109776Y202241D01*
X109175Y203025D01*
X108391Y203626D01*
X107479Y204004D01*
X107000Y204066D01*
D02*
G37*
G36*
X106000D02*
X105521Y204004D01*
X104609Y203626D01*
X103825Y203025D01*
X103224Y202241D01*
X102847Y201329D01*
X102784Y200850D01*
X106000D01*
Y204066D01*
D02*
G37*
G36*
X110216Y199850D02*
X107000D01*
Y196634D01*
X107479Y196696D01*
X108391Y197074D01*
X109175Y197676D01*
X109776Y198459D01*
X110153Y199371D01*
X110216Y199850D01*
D02*
G37*
G36*
X106000D02*
X102784D01*
X102847Y199371D01*
X103224Y198459D01*
X103825Y197676D01*
X104609Y197074D01*
X105521Y196696D01*
X106000Y196634D01*
Y199850D01*
D02*
G37*
G36*
X146500Y204132D02*
X145521Y204004D01*
X144609Y203626D01*
X143825Y203025D01*
X143224Y202241D01*
X142847Y201329D01*
X142718Y200350D01*
X142847Y199371D01*
X143224Y198459D01*
X143825Y197676D01*
X144609Y197074D01*
X145521Y196696D01*
X146500Y196568D01*
X147479Y196696D01*
X148391Y197074D01*
X149174Y197676D01*
X149776Y198459D01*
X150154Y199371D01*
X150282Y200350D01*
X150154Y201329D01*
X149776Y202241D01*
X149174Y203025D01*
X148391Y203626D01*
X147479Y204004D01*
X146500Y204132D01*
D02*
G37*
G36*
X136500D02*
X135521Y204004D01*
X134609Y203626D01*
X133826Y203025D01*
X133224Y202241D01*
X132846Y201329D01*
X132718Y200350D01*
X132846Y199371D01*
X133224Y198459D01*
X133826Y197676D01*
X134609Y197074D01*
X135521Y196696D01*
X136500Y196568D01*
X137479Y196696D01*
X138391Y197074D01*
X139174Y197676D01*
X139776Y198459D01*
X140154Y199371D01*
X140282Y200350D01*
X140154Y201329D01*
X139776Y202241D01*
X139174Y203025D01*
X138391Y203626D01*
X137479Y204004D01*
X136500Y204132D01*
D02*
G37*
G36*
X116500D02*
X115521Y204004D01*
X114609Y203626D01*
X113826Y203025D01*
X113224Y202241D01*
X112847Y201329D01*
X112718Y200350D01*
X112847Y199371D01*
X113224Y198459D01*
X113826Y197676D01*
X114609Y197074D01*
X115521Y196696D01*
X116500Y196568D01*
X117479Y196696D01*
X118391Y197074D01*
X119175Y197676D01*
X119776Y198459D01*
X120153Y199371D01*
X120282Y200350D01*
X120153Y201329D01*
X119776Y202241D01*
X119175Y203025D01*
X118391Y203626D01*
X117479Y204004D01*
X116500Y204132D01*
D02*
G37*
%LPD*%
D10*
X56200Y34944D02*
D03*
Y40456D02*
D03*
X94481Y34544D02*
D03*
Y40056D02*
D03*
X43200Y34844D02*
D03*
Y40356D02*
D03*
X37600Y34544D02*
D03*
Y40056D02*
D03*
X26550Y40256D02*
D03*
Y34744D02*
D03*
X32500Y40256D02*
D03*
Y34744D02*
D03*
X89500Y34544D02*
D03*
Y40056D02*
D03*
X99381Y40056D02*
D03*
Y34544D02*
D03*
D32*
X128900Y165100D02*
X154850Y191050D01*
X157200D02*
X166500Y200350D01*
X154850Y191050D02*
X157200D01*
X156500Y196200D02*
Y200350D01*
X126600Y166300D02*
X156500Y196200D01*
X125482Y166300D02*
X126600D01*
X122832Y163650D02*
X125482Y166300D01*
X120968Y163650D02*
X122832D01*
X119218Y165400D02*
X120968Y163650D01*
X114297Y165400D02*
X119218D01*
X113441Y166256D02*
X114297Y165400D01*
X102626Y165950D02*
X104376Y164200D01*
X123329Y162450D02*
X125979Y165100D01*
X128900D01*
X104376Y164200D02*
X118721D01*
X120471Y162450D02*
X123329D01*
X118721Y164200D02*
X120471Y162450D01*
X114794Y166600D02*
X121200D01*
X113938Y167456D02*
X114794Y166600D01*
X106237Y167456D02*
X113938D01*
X115035Y168100D02*
X120618D01*
X114479Y168656D02*
X115035Y168100D01*
X106734Y168656D02*
X114479D01*
X114982Y169850D02*
X119950D01*
X114976Y169856D02*
X114982Y169850D01*
X107231Y169856D02*
X114976D01*
X114272Y171056D02*
X114516Y171300D01*
X107728Y171056D02*
X114272D01*
X105739Y166256D02*
X113441D01*
X104845Y167150D02*
X105739Y166256D01*
X93129Y167150D02*
X104845D01*
X92329Y166350D02*
X93129Y167150D01*
X89471Y166350D02*
X92329D01*
X87971Y167850D02*
X89471Y166350D01*
X83679Y168645D02*
X87174Y165150D01*
X90900Y169800D02*
X105589D01*
X92826Y171056D02*
X106031D01*
X105342Y168350D02*
X106237Y167456D01*
X92632Y168350D02*
X105342D01*
X91832Y167550D02*
X92632Y168350D01*
X105589Y169800D02*
X106734Y168656D01*
X106031Y171056D02*
X107231Y169856D01*
X87174Y165150D02*
X92826D01*
X93626Y165950D02*
X102626D01*
X92826Y165150D02*
X93626Y165950D01*
X88468Y169050D02*
X89968Y167550D01*
X106484Y172300D02*
X107728Y171056D01*
X89968Y167550D02*
X91832D01*
X86171Y167850D02*
X87971D01*
X84176Y169845D02*
X86171Y167850D01*
X51900Y168645D02*
X83679D01*
X85350Y170368D02*
Y171123D01*
X83273Y173200D02*
X85350Y171123D01*
X86668Y169050D02*
X88468D01*
X85350Y170368D02*
X86668Y169050D01*
X54955Y169845D02*
X84176D01*
X53850Y170950D02*
X54955Y169845D01*
X53800Y173200D02*
X83273D01*
X50350Y170950D02*
X53850D01*
X49900Y171400D02*
X50350Y170950D01*
X121200Y166600D02*
X121900Y165900D01*
X62732Y155650D02*
X66376Y152006D01*
X98774Y155200D02*
X100768Y153206D01*
X121727Y154406D02*
X128432D01*
X117683Y158450D02*
X121727Y154406D01*
X128888Y158450D02*
X129750Y157588D01*
X100768Y153206D02*
X128929D01*
X66376Y152006D02*
X129243D01*
X85282Y159750D02*
X118080D01*
X129243Y152006D02*
X130000Y151249D01*
X129229Y153506D02*
X131108D01*
X128929Y153206D02*
X129229Y153506D01*
X129750Y155724D02*
Y157588D01*
X128432Y154406D02*
X129750Y155724D01*
X71850Y158450D02*
X117683D01*
X126076Y160106D02*
X128929D01*
X124820Y158850D02*
X126076Y160106D01*
X118980Y158850D02*
X124820D01*
X118080Y159750D02*
X118980Y158850D01*
X125579Y161306D02*
X129426D01*
X124323Y160050D02*
X125579Y161306D01*
X119477Y160050D02*
X124323D01*
X118577Y160950D02*
X119477Y160050D01*
X101050Y160950D02*
X118577D01*
X125082Y162506D02*
X129700D01*
X123826Y161250D02*
X125082Y162506D01*
X119974Y161250D02*
X123826D01*
X118824Y162400D02*
X119974Y161250D01*
X102782Y162400D02*
X118824D01*
X122050Y168450D02*
X123100Y169500D01*
X120968Y168450D02*
X122050D01*
X120618Y168100D02*
X120968Y168450D01*
X129700Y162506D02*
X132994Y165800D01*
X129782Y160950D02*
X155633D01*
X129426Y161306D02*
X129782Y160950D01*
X129285Y159750D02*
X158050D01*
X128929Y160106D02*
X129285Y159750D01*
X128888Y158450D02*
X141300D01*
X132994Y165800D02*
X141950D01*
X100432Y164750D02*
X102782Y162400D01*
X99500Y162500D02*
X101050Y160950D01*
X84582Y160450D02*
X85282Y159750D01*
X141950Y165800D02*
X176500Y200350D01*
X119950Y169850D02*
X120550Y170450D01*
X82968Y160450D02*
X84582D01*
X86659Y163900D02*
X93273D01*
X85177Y165382D02*
X86659Y163900D01*
X85177Y165382D02*
Y165450D01*
X84500Y162100D02*
X98800D01*
X83900Y162700D02*
X84500Y162100D01*
X81218Y162200D02*
X82968Y160450D01*
X74800Y162200D02*
X81218D01*
X93273Y163900D02*
X93773Y164400D01*
X98800Y162100D02*
Y163200D01*
X117700Y171300D02*
X118500Y172100D01*
X114516Y171300D02*
X117700D01*
X93300Y172300D02*
X106484D01*
X91832Y172050D02*
X92826Y171056D01*
X91900Y173700D02*
X93300Y172300D01*
X86800Y173700D02*
X91900D01*
X86000Y174500D02*
X86800Y173700D01*
X88350Y172050D02*
X91832D01*
X87600Y171300D02*
X88350Y172050D01*
X93773Y164400D02*
X98218D01*
X98568Y164750D02*
X100432D01*
X98218Y164400D02*
X98568Y164750D01*
X68700Y190950D02*
X89553D01*
X90400Y196900D02*
X97750Y189550D01*
X98800Y163200D02*
X99500Y162500D01*
X68418Y163500D02*
X70718Y165800D01*
X60200Y163500D02*
X68418D01*
X100700Y140100D02*
X124300D01*
X95500Y136900D02*
X96200Y136200D01*
X121400D01*
X124300Y140100D02*
X124700Y139700D01*
X66500Y155200D02*
X98774D01*
X63900Y157800D02*
X66500Y155200D01*
X61050Y155650D02*
X62732D01*
X60100Y156600D02*
X61050Y155650D01*
X62082Y136900D02*
X65282Y140100D01*
X52000Y144100D02*
X52700Y144800D01*
X51418Y142900D02*
X51768Y142550D01*
X53750D01*
X56600Y145400D01*
X24200Y142900D02*
X51418D01*
X206000Y62500D02*
X209800D01*
X210100Y62800D01*
X31200Y161000D02*
X34900D01*
X24700Y167500D02*
X31200Y161000D01*
X125582Y190500D02*
X131401D01*
X131668Y190233D01*
X133532D01*
X133799Y190500D01*
X98050Y194250D02*
X126050D01*
X126600Y193700D01*
X50200Y24426D02*
Y34900D01*
Y24426D02*
X50698Y23928D01*
X50200Y34900D02*
X56156D01*
X56200Y34944D01*
X49056Y40700D02*
X50200D01*
X43200Y34844D02*
X49056Y40700D01*
X89500Y33700D02*
Y34544D01*
Y33700D02*
X92037Y31163D01*
Y23928D02*
Y31163D01*
X94481Y24239D02*
Y34544D01*
Y24239D02*
X94793Y23928D01*
X99381Y32581D02*
Y34544D01*
X97800Y31000D02*
X99381Y32581D01*
X97800Y24179D02*
Y31000D01*
X97549Y23928D02*
X97800Y24179D01*
X58966Y12234D02*
Y23928D01*
X61600Y15100D02*
X61722Y15222D01*
Y23928D01*
X64900Y111400D02*
X66075D01*
X72275Y117600D01*
X180768Y35850D02*
X182632D01*
X183682Y36900D01*
X192100D01*
X179068Y37550D02*
X180768Y35850D01*
X56210Y11808D02*
Y23928D01*
Y11808D02*
X59870Y8148D01*
X58966Y12234D02*
X59200Y12000D01*
X59870Y8148D02*
X61300D01*
X22300Y145500D02*
X23700Y144100D01*
X22300Y145500D02*
X22382D01*
X23700Y144100D02*
X52000D01*
X23000Y141700D02*
X24200Y142900D01*
X77664Y31300D02*
X81150D01*
X73049Y35600D02*
X79600D01*
X73049Y23604D02*
Y35600D01*
X34900Y111400D02*
X43700Y102600D01*
X74900D01*
X44900Y111400D02*
X50100Y106200D01*
X41000Y53700D02*
X41050Y53650D01*
X137200Y61700D02*
X137400Y61500D01*
X138400Y37300D02*
X138650Y37550D01*
X179068D01*
X140700Y30500D02*
X140950Y30250D01*
X152400D02*
X154000Y31850D01*
X140950Y30250D02*
X152400D01*
X192100Y36900D02*
X193500Y35500D01*
X154000Y31850D02*
X154550Y31300D01*
X195800D01*
X201602Y33550D02*
X201700Y33452D01*
X194732Y33550D02*
X201602D01*
X194432Y33250D02*
X194732Y33550D01*
X146250Y33250D02*
X194432D01*
X145600Y33900D02*
X146250Y33250D01*
X197606Y40350D02*
X197900Y40056D01*
X180850Y40350D02*
X197606D01*
X145600Y43900D02*
X145750Y44050D01*
X177150D01*
X180850Y40350D01*
X132100Y46600D02*
X142900D01*
X145600Y43900D01*
X79600Y41400D02*
X83600Y37400D01*
Y33750D02*
Y37400D01*
X81150Y31300D02*
X83600Y33750D01*
X93115Y45650D02*
X97464D01*
X97714Y45900D01*
X111100D02*
X123100Y33900D01*
X145600D01*
X99000Y55400D02*
X99700D01*
X94707Y52300D02*
X95007Y52000D01*
X97371D01*
X99932Y57650D02*
X100882Y56700D01*
X142800D01*
X145600Y53900D01*
X99700Y55400D02*
X100284Y54816D01*
X97371Y52000D02*
X97771Y51600D01*
X127100D01*
X132100Y46600D01*
X95300Y57650D02*
X99932D01*
X167500Y50900D02*
X173800D01*
X166850Y50250D02*
X167500Y50900D01*
X137200Y54816D02*
X141766Y50250D01*
X166850D01*
X100284Y54816D02*
X137200D01*
X173800Y50900D02*
X185400Y62500D01*
X200200D01*
X92065Y46700D02*
X93115Y45650D01*
X73049Y41400D02*
X75700Y44050D01*
X81000Y104100D02*
X81600Y104700D01*
X63300Y44600D02*
X66500Y41400D01*
X63100Y44600D02*
X63300D01*
X66300Y98500D02*
X116000D01*
X145400Y81000D02*
X176200D01*
X176700Y81500D01*
X131800Y111300D02*
X132100Y111000D01*
X145400D01*
X161532Y115850D02*
X162132Y115250D01*
X172450D01*
X173843Y116642D01*
X176400D01*
X134400Y120900D02*
X134500Y121000D01*
X145400D01*
X81600Y104700D02*
X118100D01*
X133799Y97800D02*
X134249Y97350D01*
X225450D02*
X225800Y97000D01*
X134249Y97350D02*
X225450D01*
X232200Y102200D02*
X232400Y102000D01*
X145400Y111000D02*
X151200D01*
X160000Y102200D01*
X232200D01*
X65282Y140100D02*
X77200D01*
X101050Y116000D02*
X101200Y115850D01*
X161532D01*
X108906Y131000D02*
X145400D01*
X107256Y132650D02*
X108906Y131000D01*
X99150Y132650D02*
X107256D01*
X99100Y132700D02*
X99150Y132650D01*
X93600Y55950D02*
X95300Y57650D01*
X133799Y190500D02*
X142900D01*
X71800Y158400D02*
X71850Y158450D01*
X141300D02*
X147500Y152250D01*
Y151000D02*
Y152250D01*
X155633Y160950D02*
X158100Y163417D01*
X158050Y159750D02*
X166600Y151200D01*
X156400Y142300D02*
X156650Y142550D01*
X172450D01*
X173200Y143300D01*
X134700Y142300D02*
X156400D01*
X130000Y149912D02*
Y151249D01*
X105900Y148400D02*
X128330D01*
X134430Y142300D02*
X134700D01*
X128330Y148400D02*
X134430Y142300D01*
X121050Y189150D02*
X123400Y191500D01*
X120794Y187600D02*
X120844Y187650D01*
X122732D01*
X125582Y190500D01*
X100082Y187600D02*
X120794D01*
X89553Y190950D02*
X90603Y189900D01*
X106644Y189550D02*
X107044Y189150D01*
X121050D01*
X97750Y189550D02*
X106644D01*
X99332Y188350D02*
X100082Y187600D01*
X131108Y153506D02*
X133700Y150914D01*
X120550Y170450D02*
Y170556D01*
X122500Y172506D02*
Y173885D01*
X120550Y170556D02*
X122500Y172506D01*
X95400Y196900D02*
X98050Y194250D01*
X90603Y189900D02*
X92502D01*
X94052Y188350D01*
X99332D01*
X75502Y23928D02*
Y29137D01*
X77664Y31300D01*
X73200Y46700D02*
X92065D01*
X69100Y61700D02*
X137200D01*
X41050Y53650D02*
X71768D01*
X72668Y54550D01*
X72818D01*
X74768Y56500D01*
X89018D01*
X89568Y55950D01*
X93600D01*
X73600Y52300D02*
X94707D01*
X69800Y24117D02*
Y32300D01*
X66500Y35600D02*
X69800Y32300D01*
X73000Y46500D02*
X73200Y46700D01*
X75700Y44050D02*
X75800D01*
X50100Y106200D02*
X73500D01*
X74900Y102600D02*
X77300Y105000D01*
X97714Y45900D02*
X111100D01*
X84827Y165800D02*
X85177Y165450D01*
X70718Y165800D02*
X84827D01*
D33*
X34700Y147700D02*
X35700Y148700D01*
X48800D01*
X49983Y200700D02*
X52300D01*
X31400Y182117D02*
X49983Y200700D01*
X31400Y174447D02*
Y182117D01*
X56200Y40456D02*
Y43400D01*
X56400Y43600D01*
X43200Y40356D02*
Y43500D01*
X43300Y43600D01*
X45100Y24014D02*
Y31850D01*
Y24014D02*
X45187Y23928D01*
X42431Y16631D02*
Y23928D01*
X42300Y16500D02*
X42431Y16631D01*
X53454Y16646D02*
Y23928D01*
Y16646D02*
X53500Y16600D01*
X37000Y31700D02*
X37100Y31600D01*
Y24109D02*
Y31600D01*
X36919Y23928D02*
X37100Y24109D01*
X43200Y33750D02*
Y34844D01*
Y33750D02*
X45100Y31850D01*
X31800Y33400D02*
Y34944D01*
Y33400D02*
X34163Y31037D01*
Y23928D02*
Y31037D01*
X28500Y24079D02*
X28651Y23928D01*
X23300Y37006D02*
X26550Y40256D01*
X23300Y33049D02*
Y37006D01*
Y33049D02*
X24380Y31969D01*
X26550Y32450D02*
Y34744D01*
Y32450D02*
X28500Y30500D01*
Y24079D02*
Y30500D01*
X25895Y23928D02*
Y30559D01*
X24380Y31969D02*
X24485D01*
X25895Y30559D01*
X31407Y23928D02*
Y30292D01*
X29627Y32072D02*
X31407Y30292D01*
X29627Y32072D02*
Y37127D01*
X32156Y39656D01*
X32500D01*
X37600Y40056D02*
Y43500D01*
X100305Y23928D02*
X103061D01*
X107061D02*
X111072D01*
X111100Y23900D01*
X89500Y40056D02*
Y43600D01*
X94481Y40056D02*
Y43419D01*
X99381Y40056D02*
Y43519D01*
X99300Y43600D02*
X99381Y43519D01*
X47943Y16142D02*
Y23928D01*
X47900Y16100D02*
X47943Y16142D01*
X30300Y50400D02*
X50400D01*
X37000Y31700D02*
Y34544D01*
X50400Y50400D02*
X51050Y49750D01*
X64372D01*
X141556Y40450D02*
X142056Y39950D01*
X137426D02*
X137926Y40450D01*
X141556D01*
X94462Y43400D02*
X94481Y43419D01*
X94400Y43400D02*
X94462D01*
X103093Y49400D02*
X118800D01*
X128250Y39950D01*
X137426D01*
X97186Y49200D02*
X102893D01*
X103093Y49400D01*
X64372Y49750D02*
X64622Y49500D01*
X74894D02*
X74994Y49400D01*
X96986D02*
X97186Y49200D01*
X145400Y91000D02*
X164600D01*
X165300Y91700D01*
X74994Y49400D02*
X96986D01*
X64622Y49500D02*
X74894D01*
X142056Y39950D02*
X174359D01*
X175500Y41091D01*
D34*
X88171Y188250D02*
X88621Y188700D01*
X45950Y188250D02*
X88171D01*
X38500Y156600D02*
X48352D01*
X50602Y154350D01*
X51450D01*
X55900Y149900D01*
X70100D01*
X71600Y148400D01*
X105900D01*
X60358Y140950D02*
X61063Y141655D01*
X67650Y134250D02*
X68000Y134600D01*
X34900Y134500D02*
X35000Y134600D01*
X34900Y140200D02*
X35650Y140950D01*
X60634Y134600D02*
X60984Y134250D01*
X67650D01*
X35650Y140950D02*
X60358D01*
X34900Y160200D02*
X38500Y156600D01*
X34900Y160200D02*
Y161000D01*
X45700Y188000D02*
X45950Y188250D01*
X68000Y134600D02*
X85900D01*
X89900Y130600D01*
X131356Y123356D02*
X133600Y125600D01*
X155000D01*
X163100Y117500D01*
X103100Y123356D02*
X131356D01*
X89900Y130600D02*
X95856D01*
X103100Y123356D01*
X35000Y134600D02*
X49300D01*
X60634D01*
D35*
X170850Y11000D02*
X176500Y5350D01*
X156263Y11000D02*
X170850D01*
X149013Y18250D02*
X156263Y11000D01*
X26900Y3200D02*
X93900D01*
X25300Y4800D02*
X26900Y3200D01*
X129950Y18250D02*
X149013D01*
X123100Y11400D02*
X129950Y18250D01*
X93900Y3200D02*
X102100Y11400D01*
X123100D01*
D37*
X111000Y178956D02*
D03*
D38*
X110900Y126400D02*
D03*
X106200Y130100D02*
D03*
X93773Y183900D02*
D03*
X108100Y191700D02*
D03*
X99400Y179768D02*
D03*
X121900Y185100D02*
D03*
X122500Y173885D02*
D03*
X123100Y169500D02*
D03*
X50602Y183100D02*
D03*
D39*
X10500Y180000D02*
D03*
Y190000D02*
D03*
X106500Y200350D02*
D03*
X116500D02*
D03*
X126500D02*
D03*
X136500D02*
D03*
X146500D02*
D03*
X156500D02*
D03*
X166500D02*
D03*
X62300Y200700D02*
D03*
X106500Y5350D02*
D03*
X116500D02*
D03*
X126500D02*
D03*
X136500D02*
D03*
X146500D02*
D03*
X156500D02*
D03*
X166500D02*
D03*
X104900Y111400D02*
D03*
X94900D02*
D03*
X84900D02*
D03*
X74900D02*
D03*
X64900D02*
D03*
X54900D02*
D03*
X44900D02*
D03*
X145600Y63900D02*
D03*
Y53900D02*
D03*
Y33900D02*
D03*
Y23900D02*
D03*
Y43900D02*
D03*
X145400Y131000D02*
D03*
Y121000D02*
D03*
Y101000D02*
D03*
Y91000D02*
D03*
Y111000D02*
D03*
D40*
X10500Y200000D02*
D03*
X145600Y13900D02*
D03*
X145400Y81000D02*
D03*
D41*
X25600Y182426D02*
D03*
Y190300D02*
D03*
D42*
Y198174D02*
D03*
D43*
X176500Y200350D02*
D03*
X52300Y200700D02*
D03*
X176500Y5350D02*
D03*
X34900Y111400D02*
D03*
D44*
X95400Y196900D02*
D03*
X90400Y201900D02*
D03*
Y196900D02*
D03*
X85400Y201900D02*
D03*
Y196900D02*
D03*
X80400Y201900D02*
D03*
Y196900D02*
D03*
X75400Y201900D02*
D03*
Y196900D02*
D03*
D45*
X95400Y201900D02*
D03*
D46*
X49900Y171400D02*
D03*
X51900Y168645D02*
D03*
X121900Y165900D02*
D03*
X127500Y156656D02*
D03*
X48800Y148700D02*
D03*
X83900Y162700D02*
D03*
X70200Y203800D02*
D03*
X225859Y84300D02*
D03*
X170400Y128700D02*
D03*
X86891Y144051D02*
D03*
X74234Y143400D02*
D03*
X68800Y196840D02*
D03*
X127800Y127600D02*
D03*
Y92800D02*
D03*
X188600Y83200D02*
D03*
X182200Y46400D02*
D03*
X127039Y45000D02*
D03*
X109564Y67500D02*
D03*
X15900Y19300D02*
D03*
X118500Y172100D02*
D03*
X86000Y174500D02*
D03*
X87600Y171300D02*
D03*
X90900Y169800D02*
D03*
X68700Y190900D02*
D03*
X74800Y162200D02*
D03*
X88621Y188700D02*
D03*
X56600Y145400D02*
D03*
X52700Y144800D02*
D03*
X51700Y157000D02*
D03*
X113500Y144515D02*
D03*
X53800Y173200D02*
D03*
X60200Y163500D02*
D03*
X100700Y140100D02*
D03*
X95500Y136900D02*
D03*
X121400Y136200D02*
D03*
X124700Y139700D02*
D03*
X99500Y162500D02*
D03*
X230686Y48823D02*
D03*
X181700Y38100D02*
D03*
X63900Y157800D02*
D03*
X60100Y156600D02*
D03*
X71800Y158400D02*
D03*
X83300Y180700D02*
D03*
X98400Y186100D02*
D03*
X61800Y153400D02*
D03*
X71800Y130300D02*
D03*
X101400Y155756D02*
D03*
X105900Y148400D02*
D03*
X60000Y126600D02*
D03*
X68000Y134600D02*
D03*
X52700Y137900D02*
D03*
X61063Y141655D02*
D03*
X128200Y11600D02*
D03*
X7554Y158161D02*
D03*
X17554Y155405D02*
D03*
X7554Y148121D02*
D03*
X7800Y138900D02*
D03*
X7554Y128239D02*
D03*
X17554Y130995D02*
D03*
X23600Y137200D02*
D03*
X25600Y135000D02*
D03*
X93115Y10600D02*
D03*
X62082Y136900D02*
D03*
X36400Y167300D02*
D03*
X30700Y154600D02*
D03*
X34900Y161000D02*
D03*
Y134500D02*
D03*
Y140200D02*
D03*
X34700Y147700D02*
D03*
X42900Y201700D02*
D03*
X210100Y62800D02*
D03*
X45700Y188000D02*
D03*
X24700Y167500D02*
D03*
X31400Y174447D02*
D03*
X5600Y170626D02*
D03*
X194200Y50400D02*
D03*
X203300Y50500D02*
D03*
X195937Y8148D02*
D03*
X203200Y8900D02*
D03*
X126600Y193700D02*
D03*
X123400Y191500D02*
D03*
X56400Y43600D02*
D03*
X43300D02*
D03*
X42300Y16500D02*
D03*
X53500Y16600D02*
D03*
X37100Y31600D02*
D03*
X45100Y31850D02*
D03*
X37600Y43500D02*
D03*
X111100Y23900D02*
D03*
X89500Y43600D02*
D03*
X99300D02*
D03*
X61600Y15100D02*
D03*
X72275Y117600D02*
D03*
X47900Y16100D02*
D03*
X59200Y12000D02*
D03*
X61300Y8148D02*
D03*
X25300Y4800D02*
D03*
X22300Y145500D02*
D03*
X23000Y141700D02*
D03*
X30300Y50400D02*
D03*
X175500Y41091D02*
D03*
X50400Y50400D02*
D03*
X93064Y126100D02*
D03*
X176400Y116642D02*
D03*
X41000Y53700D02*
D03*
X69100Y61700D02*
D03*
X137400Y61500D02*
D03*
X134000Y39700D02*
D03*
X138400Y37300D02*
D03*
X140700Y30500D02*
D03*
X193500Y35500D02*
D03*
X201700Y33452D02*
D03*
X195800Y31300D02*
D03*
X197900Y40056D02*
D03*
X154806Y47500D02*
D03*
X94400Y43400D02*
D03*
X99000Y55400D02*
D03*
X173800Y50900D02*
D03*
X81000Y104100D02*
D03*
X63100Y44600D02*
D03*
X66300Y98500D02*
D03*
X116000D02*
D03*
X165300Y91700D02*
D03*
X176700Y81500D02*
D03*
X157200Y112400D02*
D03*
X131800Y111300D02*
D03*
X163100Y117500D02*
D03*
Y122200D02*
D03*
X134400Y120900D02*
D03*
X118100Y104700D02*
D03*
X133799Y97800D02*
D03*
X225800Y97000D02*
D03*
X232400Y102000D02*
D03*
X77200Y140100D02*
D03*
X89900Y130600D02*
D03*
X101050Y116000D02*
D03*
X99100Y132700D02*
D03*
X158100Y163417D02*
D03*
X142900Y190500D02*
D03*
X131900Y185000D02*
D03*
X175900Y185600D02*
D03*
X176500Y162900D02*
D03*
X169800Y152800D02*
D03*
X160400Y140300D02*
D03*
X139144Y138279D02*
D03*
X147500Y151000D02*
D03*
X166600Y151200D02*
D03*
X173200Y143300D02*
D03*
X134700Y142300D02*
D03*
X130000Y149912D02*
D03*
X133700Y150914D02*
D03*
X49300Y134600D02*
D03*
X11000Y81000D02*
D03*
X46679Y79457D02*
D03*
X87062Y79104D02*
D03*
X166301Y20624D02*
D03*
X215000Y24676D02*
D03*
X165209Y70000D02*
D03*
X129285Y70583D02*
D03*
X170400Y174321D02*
D03*
X11667Y113688D02*
D03*
Y38783D02*
D03*
X220000Y5385D02*
D03*
X90500Y58200D02*
D03*
X73600Y52300D02*
D03*
X69800Y32300D02*
D03*
X73000Y46500D02*
D03*
X75800Y44050D02*
D03*
X73200Y31600D02*
D03*
X61602Y55900D02*
D03*
X73500Y106200D02*
D03*
X77300Y105000D02*
D03*
X20500Y10000D02*
D03*
X29000Y11700D02*
D03*
X35200Y75800D02*
D03*
X49100Y120300D02*
D03*
X53044Y96200D02*
D03*
X106047Y93800D02*
D03*
D47*
X23500Y174925D02*
D03*
X59747Y193400D02*
D03*
X46962Y163417D02*
D03*
X165000Y194012D02*
D03*
X64835Y183700D02*
D03*
D48*
X66500Y41400D02*
D03*
Y35600D02*
D03*
X73049Y41400D02*
D03*
Y35600D02*
D03*
X206000Y62500D02*
D03*
X200200D02*
D03*
X50200Y40700D02*
D03*
Y34900D02*
D03*
X79600Y41400D02*
D03*
Y35600D02*
D03*
D49*
X103061Y23928D02*
D03*
X100305D02*
D03*
X97549D02*
D03*
X94793D02*
D03*
X92037D02*
D03*
X89281D02*
D03*
X86525D02*
D03*
X83769D02*
D03*
X81013D02*
D03*
X78258D02*
D03*
X75502D02*
D03*
X72746D02*
D03*
X69990D02*
D03*
X67234D02*
D03*
X64478D02*
D03*
X61722D02*
D03*
X58966D02*
D03*
X56210D02*
D03*
X53454D02*
D03*
X50698D02*
D03*
X47943D02*
D03*
X45187D02*
D03*
X42431D02*
D03*
X39675D02*
D03*
X36919D02*
D03*
X34163D02*
D03*
X31407D02*
D03*
X28651D02*
D03*
X25895D02*
D03*
X23139D02*
D03*
D50*
X66501Y36859D02*
D03*
Y40159D02*
D03*
X73051Y36859D02*
D03*
Y40159D02*
D03*
X50199Y36141D02*
D03*
Y39441D02*
D03*
X79599Y36841D02*
D03*
Y40141D02*
D03*
D51*
X201441Y62501D02*
D03*
X204741D02*
D03*
M02*
