G04 Layer_Physical_Order=4*
G04 Layer_Color=16711680*
%FSLAX25Y25*%
%MOIN*%
G70*
G01*
G75*
%ADD10C,0.01600*%
%ADD46C,0.00800*%
%ADD47C,0.02400*%
%ADD48C,0.02000*%
%ADD49C,0.15800*%
%ADD50C,0.03600*%
%ADD51R,0.05500X0.05500*%
%ADD52C,0.05500*%
%ADD53C,0.09450*%
%ADD54C,0.04000*%
%ADD55P,0.09546X4X315.0*%
%ADD56C,0.06750*%
%ADD57C,0.03200*%
G36*
X317900Y64706D02*
X317550Y64351D01*
X317550Y64351D01*
Y64351D01*
X317400Y64336D01*
X317398Y64346D01*
X317261Y65036D01*
X316730Y65830D01*
X316224Y66169D01*
Y69600D01*
X316130Y70068D01*
X315865Y70465D01*
X312224Y74107D01*
Y103593D01*
X313365Y104735D01*
X313630Y105132D01*
X313723Y105600D01*
Y131100D01*
X313630Y131568D01*
X313365Y131965D01*
X309828Y135502D01*
X309947Y136100D01*
X309761Y137036D01*
X309230Y137830D01*
X308436Y138361D01*
X307500Y138547D01*
X306564Y138361D01*
X305770Y137830D01*
X305239Y137036D01*
X305053Y136100D01*
X305239Y135164D01*
X305770Y134370D01*
X306564Y133839D01*
X307500Y133653D01*
X308098Y133772D01*
X311277Y130593D01*
Y106107D01*
X310135Y104965D01*
X309870Y104568D01*
X309776Y104100D01*
Y103207D01*
X309315Y103016D01*
X307723Y104607D01*
Y106531D01*
X308230Y106870D01*
X308761Y107664D01*
X308947Y108600D01*
X308761Y109536D01*
X308230Y110330D01*
X307436Y110861D01*
X306500Y111047D01*
X305564Y110861D01*
X304770Y110330D01*
X304724Y110261D01*
X304223Y110413D01*
Y120377D01*
X304931D01*
X305270Y119870D01*
X306064Y119339D01*
X307000Y119153D01*
X307936Y119339D01*
X308730Y119870D01*
X309261Y120664D01*
X309447Y121600D01*
X309261Y122536D01*
X308730Y123330D01*
X307936Y123861D01*
X307000Y124047D01*
X306064Y123861D01*
X305270Y123330D01*
X304931Y122824D01*
X304223D01*
Y158093D01*
X305365Y159235D01*
X305630Y159632D01*
X305724Y160100D01*
Y163100D01*
X305630Y163568D01*
X305365Y163965D01*
X302865Y166465D01*
X302468Y166730D01*
X302000Y166823D01*
X299000D01*
X298532Y166730D01*
X298135Y166465D01*
X296135Y164465D01*
X295870Y164068D01*
X295777Y163600D01*
Y162169D01*
X295270Y161830D01*
X294739Y161036D01*
X294553Y160100D01*
X294739Y159164D01*
X295270Y158370D01*
X296064Y157839D01*
X297000Y157653D01*
X297936Y157839D01*
X298730Y158370D01*
X299261Y159164D01*
X299276Y159243D01*
X299777Y159194D01*
Y148913D01*
X299276Y148761D01*
X299230Y148830D01*
X298436Y149361D01*
X297500Y149547D01*
X296564Y149361D01*
X295770Y148830D01*
X295239Y148036D01*
X295053Y147100D01*
X295239Y146164D01*
X295770Y145370D01*
X296276Y145031D01*
Y134607D01*
X294135Y132465D01*
X293870Y132068D01*
X293776Y131600D01*
Y105600D01*
X293870Y105132D01*
X294135Y104735D01*
X296276Y102593D01*
Y60107D01*
X295493Y59324D01*
X289235D01*
X289230Y59330D01*
X288436Y59861D01*
X287500Y60047D01*
X286564Y59861D01*
X286224Y59633D01*
X285723Y59901D01*
Y154100D01*
X285630Y154568D01*
X285365Y154965D01*
X284828Y155502D01*
X284947Y156100D01*
X284761Y157036D01*
X284230Y157830D01*
X283436Y158361D01*
X282500Y158547D01*
X281564Y158361D01*
X280770Y157830D01*
X280239Y157036D01*
X280053Y156100D01*
X280239Y155164D01*
X280770Y154370D01*
X281564Y153839D01*
X282500Y153653D01*
X282828Y153718D01*
X283277Y153336D01*
Y142413D01*
X282776Y142261D01*
X282730Y142330D01*
X281936Y142861D01*
X281000Y143047D01*
X280064Y142861D01*
X279270Y142330D01*
X278739Y141536D01*
X278553Y140600D01*
X278739Y139664D01*
X279270Y138870D01*
X280064Y138339D01*
X281000Y138153D01*
X281276Y137926D01*
Y117413D01*
X280777Y117261D01*
X280730Y117330D01*
X279936Y117861D01*
X279000Y118047D01*
X278064Y117861D01*
X277270Y117330D01*
X277039Y116985D01*
X276539Y117137D01*
Y152332D01*
X276761Y152664D01*
X276947Y153600D01*
X276761Y154536D01*
X276230Y155330D01*
X275436Y155861D01*
X274500Y156047D01*
X273564Y155861D01*
X272770Y155330D01*
X272239Y154536D01*
X272053Y153600D01*
X272239Y152664D01*
X272461Y152332D01*
Y92368D01*
X272239Y92036D01*
X272053Y91100D01*
X272239Y90164D01*
X272461Y89832D01*
Y73958D01*
X272270Y73830D01*
X271739Y73036D01*
X271724Y72957D01*
X271223Y73007D01*
Y174058D01*
X271697Y174219D01*
X271880Y173980D01*
X272794Y173279D01*
X273858Y172838D01*
X274500Y172754D01*
X274500Y177101D01*
X274500Y181448D01*
X273858Y181363D01*
X272794Y180922D01*
X271880Y180221D01*
X271697Y179983D01*
X271223Y180143D01*
Y184343D01*
X271724Y184512D01*
X272022Y184123D01*
X272895Y183454D01*
X273910Y183033D01*
X275000Y182890D01*
X276090Y183033D01*
X277105Y183454D01*
X277978Y184123D01*
X278647Y184995D01*
X279067Y186011D01*
X279211Y187101D01*
X279067Y188191D01*
X278647Y189207D01*
X277977Y190079D01*
X277105Y190748D01*
X276223Y191113D01*
Y192100D01*
X276130Y192568D01*
X275865Y192965D01*
X271365Y197465D01*
X270968Y197730D01*
X270500Y197824D01*
X235000D01*
X234532Y197730D01*
X234135Y197465D01*
X229135Y192465D01*
X228870Y192068D01*
X228777Y191600D01*
Y189857D01*
X228276Y189687D01*
X227977Y190077D01*
X227105Y190746D01*
X226090Y191167D01*
X225000Y191310D01*
X223910Y191167D01*
X222894Y190746D01*
X222022Y190077D01*
X221353Y189205D01*
X220932Y188189D01*
X220789Y187099D01*
X220932Y186009D01*
X221353Y184994D01*
X222022Y184121D01*
X222895Y183452D01*
X223910Y183031D01*
X225000Y182888D01*
X226090Y183032D01*
X227105Y183452D01*
X227978Y184122D01*
X228276Y184511D01*
X228777Y184341D01*
Y180142D01*
X228303Y179982D01*
X228120Y180219D01*
X227206Y180921D01*
X226142Y181362D01*
X225500Y181446D01*
X225500Y177099D01*
X225500Y172752D01*
X226142Y172837D01*
X227207Y173278D01*
X228121Y173979D01*
X228303Y174217D01*
X228777Y174056D01*
Y114113D01*
X228276Y113962D01*
X228030Y114330D01*
X227236Y114861D01*
X226300Y115047D01*
X225364Y114861D01*
X224570Y114330D01*
X224039Y113536D01*
X223853Y112600D01*
X224039Y111664D01*
X224570Y110870D01*
X225077Y110531D01*
Y98300D01*
X225170Y97832D01*
X225435Y97435D01*
X226876Y95993D01*
Y86523D01*
X226064Y86361D01*
X225270Y85830D01*
X224739Y85036D01*
X224593Y84301D01*
X224517Y84087D01*
X224077Y83932D01*
X223500Y84047D01*
X222564Y83861D01*
X221770Y83330D01*
X221239Y82536D01*
X221053Y81600D01*
X221239Y80664D01*
X221770Y79870D01*
X221777Y79865D01*
Y71913D01*
X221276Y71761D01*
X221230Y71830D01*
X220436Y72361D01*
X219500Y72547D01*
X218564Y72361D01*
X217770Y71830D01*
X217239Y71036D01*
X217053Y70100D01*
X217239Y69164D01*
X217770Y68370D01*
X218277Y68031D01*
Y62503D01*
X218064Y62461D01*
X217270Y61930D01*
X216739Y61136D01*
X216553Y60200D01*
X216739Y59264D01*
X217270Y58470D01*
X218064Y57939D01*
X219000Y57753D01*
X219936Y57939D01*
X220676Y58434D01*
X221177Y58306D01*
Y57507D01*
X219677Y56007D01*
X219180Y56056D01*
X219130Y56130D01*
X218336Y56661D01*
X217400Y56847D01*
X216464Y56661D01*
X215670Y56130D01*
X215139Y55336D01*
X214953Y54400D01*
X215139Y53464D01*
X215670Y52670D01*
X216464Y52139D01*
X217400Y51953D01*
X218336Y52139D01*
X219130Y52670D01*
X219469Y53176D01*
X219800D01*
X220268Y53270D01*
X220665Y53535D01*
X220865Y53735D01*
X220865Y53735D01*
X223001Y55871D01*
X223470Y56070D01*
X224264Y55539D01*
X225200Y55353D01*
X226136Y55539D01*
X226930Y56070D01*
X227461Y56864D01*
X227647Y57800D01*
X227461Y58736D01*
X226930Y59530D01*
X226136Y60061D01*
X225304Y60226D01*
X225061Y60690D01*
X225965Y61595D01*
X226230Y61992D01*
X226324Y62460D01*
Y68360D01*
X226230Y68828D01*
X225965Y69225D01*
X224223Y70967D01*
Y79297D01*
X224436Y79339D01*
X225230Y79870D01*
X225761Y80664D01*
X225907Y81399D01*
X225983Y81613D01*
X226424Y81768D01*
X227000Y81653D01*
X227936Y81839D01*
X228730Y82370D01*
X229261Y83164D01*
X229447Y84100D01*
X229276Y84961D01*
X229324Y85200D01*
Y86893D01*
X229785Y87084D01*
X230276Y86593D01*
Y81607D01*
X229135Y80465D01*
X228870Y80068D01*
X228777Y79600D01*
Y50600D01*
X228870Y50132D01*
X229135Y49735D01*
X231891Y46979D01*
X231644Y46518D01*
X231500Y46547D01*
X230564Y46361D01*
X229770Y45830D01*
X229239Y45036D01*
X229053Y44100D01*
X229239Y43164D01*
X229770Y42370D01*
X230564Y41839D01*
X231500Y41653D01*
X232436Y41839D01*
X233230Y42370D01*
X233243Y42389D01*
X233655D01*
X233804Y42328D01*
X234564Y41820D01*
X235500Y41633D01*
X236436Y41820D01*
X237230Y42350D01*
X237277Y42419D01*
X237776Y42268D01*
Y41669D01*
X237270Y41330D01*
X236739Y40536D01*
X236553Y39600D01*
X236739Y38664D01*
X237270Y37870D01*
X238064Y37339D01*
X239000Y37153D01*
X239936Y37339D01*
X240730Y37870D01*
X241261Y38664D01*
X241447Y39600D01*
X241261Y40536D01*
X240730Y41330D01*
X240224Y41669D01*
Y44540D01*
X240130Y45008D01*
X239865Y45405D01*
X239557Y45714D01*
X239702Y46192D01*
X239936Y46239D01*
X240730Y46770D01*
X241261Y47564D01*
X241447Y48500D01*
X241261Y49436D01*
X240730Y50230D01*
X239936Y50761D01*
X239000Y50947D01*
X238064Y50761D01*
X237270Y50230D01*
X236739Y49436D01*
X236723Y49357D01*
X236224Y49406D01*
Y74093D01*
X237007Y74876D01*
X238265D01*
X238270Y74870D01*
X239064Y74339D01*
X239251Y74302D01*
X239442Y73840D01*
X239239Y73536D01*
X239053Y72600D01*
X239239Y71664D01*
X239770Y70870D01*
X240564Y70339D01*
X241500Y70153D01*
X242436Y70339D01*
X243230Y70870D01*
X243761Y71664D01*
X243776Y71743D01*
X244276Y71693D01*
Y63600D01*
X244278Y63594D01*
X244239Y63536D01*
X244053Y62600D01*
X244239Y61664D01*
X244770Y60870D01*
X245564Y60339D01*
X246299Y60193D01*
X246513Y60117D01*
X246668Y59676D01*
X246553Y59100D01*
X246653Y58598D01*
X246344Y58402D01*
X246191Y58356D01*
X245436Y58861D01*
X244500Y59047D01*
X243674Y58883D01*
X243478Y59016D01*
X243416Y59078D01*
X243283Y59275D01*
X243447Y60100D01*
X243261Y61036D01*
X242730Y61830D01*
X241936Y62361D01*
X241000Y62547D01*
X240064Y62361D01*
X239270Y61830D01*
X238739Y61036D01*
X238553Y60100D01*
X238739Y59164D01*
X239270Y58370D01*
X240064Y57839D01*
X241000Y57653D01*
X241826Y57817D01*
X242022Y57684D01*
X242084Y57622D01*
X242217Y57425D01*
X242108Y56876D01*
X241609Y56466D01*
X241200Y56547D01*
X240264Y56361D01*
X239470Y55830D01*
X238939Y55036D01*
X238753Y54100D01*
X238939Y53164D01*
X239470Y52370D01*
X240264Y51839D01*
X241200Y51653D01*
X242136Y51839D01*
X242806Y52286D01*
X243223Y52183D01*
X243352Y52101D01*
X243439Y51664D01*
X243970Y50870D01*
X244764Y50339D01*
X245700Y50153D01*
X246636Y50339D01*
X247430Y50870D01*
X247961Y51664D01*
X248147Y52600D01*
X247961Y53536D01*
X247430Y54330D01*
X246636Y54861D01*
X246479Y55242D01*
X246761Y55664D01*
X246947Y56600D01*
X246847Y57102D01*
X247156Y57298D01*
X247309Y57344D01*
X248064Y56839D01*
X249000Y56653D01*
X249936Y56839D01*
X250730Y57370D01*
X251261Y58164D01*
X251447Y59100D01*
X251261Y60036D01*
X250730Y60830D01*
X249936Y61361D01*
X249201Y61507D01*
X248987Y61583D01*
X248832Y62024D01*
X248947Y62600D01*
X248761Y63536D01*
X248612Y63759D01*
X248890Y64175D01*
X249000Y64153D01*
X249936Y64339D01*
X250730Y64870D01*
X251261Y65664D01*
X251447Y66600D01*
X251397Y66849D01*
X251751Y67203D01*
X252000Y67153D01*
X252936Y67339D01*
X253276Y67567D01*
X253777Y67299D01*
Y59669D01*
X253270Y59330D01*
X252739Y58536D01*
X252553Y57600D01*
X252739Y56664D01*
X253270Y55870D01*
X254064Y55339D01*
X255000Y55153D01*
X255576Y55268D01*
X256017Y55113D01*
X256093Y54899D01*
X256239Y54164D01*
X256770Y53370D01*
X257564Y52839D01*
X258500Y52653D01*
X259436Y52839D01*
X259776Y53066D01*
X260277Y52799D01*
Y51100D01*
X260370Y50632D01*
X260635Y50235D01*
X261277Y49593D01*
Y40607D01*
X255135Y34465D01*
X254870Y34068D01*
X254777Y33600D01*
Y9169D01*
X254270Y8830D01*
X253739Y8036D01*
X253553Y7100D01*
X253739Y6164D01*
X254270Y5370D01*
X255064Y4839D01*
X256000Y4653D01*
X256936Y4839D01*
X257730Y5370D01*
X258261Y6164D01*
X258447Y7100D01*
X258261Y8036D01*
X257730Y8830D01*
X257224Y9169D01*
Y33093D01*
X259621Y35491D01*
X260082Y35244D01*
X260053Y35100D01*
X260239Y34164D01*
X260770Y33370D01*
X261564Y32839D01*
X262500Y32653D01*
X263436Y32839D01*
X264230Y33370D01*
X264761Y34164D01*
X264846Y34591D01*
X265000Y34561D01*
X272000D01*
X272780Y34716D01*
X273442Y35158D01*
X275942Y37658D01*
X276384Y38320D01*
X276539Y39100D01*
Y70100D01*
Y89832D01*
X276761Y90164D01*
X276947Y91100D01*
X276761Y92036D01*
X276539Y92368D01*
Y95922D01*
X277039Y96190D01*
X277564Y95839D01*
X278500Y95653D01*
X278777Y95426D01*
Y46669D01*
X278270Y46330D01*
X277739Y45536D01*
X277553Y44600D01*
X277739Y43664D01*
X278270Y42870D01*
X279064Y42339D01*
X280000Y42153D01*
X280936Y42339D01*
X281730Y42870D01*
X282261Y43664D01*
X282447Y44600D01*
X282261Y45536D01*
X281730Y46330D01*
X281224Y46669D01*
Y50954D01*
X281378Y51060D01*
X281723Y51146D01*
X283135Y49735D01*
X283532Y49470D01*
X284000Y49376D01*
X285431D01*
X285770Y48870D01*
X286564Y48339D01*
X287500Y48153D01*
X288436Y48339D01*
X289230Y48870D01*
X289761Y49664D01*
X289947Y50600D01*
X289918Y50744D01*
X290379Y50991D01*
X292277Y49093D01*
Y42607D01*
X289976Y40306D01*
X289730Y40330D01*
X288936Y40861D01*
X288000Y41047D01*
X287064Y40861D01*
X286270Y40330D01*
X285739Y39536D01*
X285553Y38600D01*
X285739Y37664D01*
X286270Y36870D01*
X287064Y36339D01*
X288000Y36153D01*
X288936Y36339D01*
X289730Y36870D01*
X290079Y37392D01*
X290468Y37470D01*
X290865Y37735D01*
X294365Y41235D01*
X294630Y41632D01*
X294724Y42100D01*
Y49600D01*
X294630Y50068D01*
X294365Y50465D01*
X289429Y55401D01*
X289230Y55870D01*
X289761Y56664D01*
X289803Y56876D01*
X296000D01*
X296468Y56970D01*
X296865Y57235D01*
X298365Y58735D01*
X298630Y59132D01*
X298724Y59600D01*
Y103100D01*
X298630Y103568D01*
X298365Y103965D01*
X296223Y106107D01*
Y119299D01*
X296724Y119567D01*
X297064Y119339D01*
X298000Y119153D01*
X298936Y119339D01*
X299276Y119567D01*
X299777Y119299D01*
Y52600D01*
X299870Y52132D01*
X300135Y51735D01*
X304672Y47198D01*
X304553Y46600D01*
X304739Y45664D01*
X305270Y44870D01*
X306064Y44339D01*
X307000Y44153D01*
X307936Y44339D01*
X308730Y44870D01*
X309261Y45664D01*
X309447Y46600D01*
X309261Y47536D01*
X308730Y48330D01*
X307936Y48861D01*
X307000Y49047D01*
X306402Y48928D01*
X302223Y53107D01*
Y54993D01*
X302685Y55184D01*
X304172Y53698D01*
X304053Y53100D01*
X304239Y52164D01*
X304770Y51370D01*
X305564Y50839D01*
X306500Y50653D01*
X307436Y50839D01*
X308230Y51370D01*
X308761Y52164D01*
X308947Y53100D01*
X308761Y54036D01*
X308230Y54830D01*
X307436Y55361D01*
X306500Y55547D01*
X305902Y55428D01*
X304223Y57107D01*
Y106787D01*
X304724Y106939D01*
X304770Y106870D01*
X305276Y106531D01*
Y104100D01*
X305370Y103632D01*
X305635Y103235D01*
X307776Y101093D01*
Y77607D01*
X305635Y75465D01*
X305370Y75068D01*
X305276Y74600D01*
X305370Y74132D01*
X305635Y73735D01*
X306776Y72593D01*
Y66669D01*
X306270Y66330D01*
X305739Y65536D01*
X305553Y64600D01*
X305739Y63664D01*
X306270Y62870D01*
X306673Y62600D01*
Y62100D01*
X306270Y61830D01*
X305739Y61036D01*
X305553Y60100D01*
X305739Y59164D01*
X306270Y58370D01*
X307064Y57839D01*
X308000Y57653D01*
X308936Y57839D01*
X309730Y58370D01*
X310261Y59164D01*
X310447Y60100D01*
X310261Y61036D01*
X309730Y61830D01*
X309327Y62100D01*
Y62600D01*
X309730Y62870D01*
X310261Y63664D01*
X310447Y64600D01*
X310261Y65536D01*
X309730Y66330D01*
X309224Y66669D01*
Y73100D01*
X309130Y73568D01*
X308865Y73965D01*
X308230Y74600D01*
X309315Y75684D01*
X309776Y75493D01*
Y73600D01*
X309870Y73132D01*
X310135Y72735D01*
X313776Y69093D01*
Y66169D01*
X313270Y65830D01*
X312739Y65036D01*
X312553Y64100D01*
X312739Y63164D01*
X313270Y62370D01*
X314064Y61839D01*
X315000Y61653D01*
X315936Y61839D01*
X316730Y62370D01*
X317261Y63164D01*
X317398Y63854D01*
X317400Y63864D01*
X317550Y63849D01*
Y63849D01*
X317550Y63849D01*
X317900Y63494D01*
Y1326D01*
X166592D01*
X166560Y1825D01*
X166913Y1872D01*
X167479Y1946D01*
X168391Y2324D01*
X169175Y2926D01*
X169776Y3709D01*
X170153Y4621D01*
X170217Y5100D01*
X166500D01*
Y5600D01*
D01*
Y5100D01*
X162784D01*
X162847Y4621D01*
X163224Y3709D01*
X163826Y2926D01*
X164609Y2324D01*
X165521Y1946D01*
X166087Y1872D01*
X166440Y1825D01*
X166408Y1326D01*
X2100D01*
Y123472D01*
X2600Y123624D01*
X2770Y123370D01*
X3277Y123031D01*
Y36600D01*
X3370Y36132D01*
X3635Y35735D01*
X14672Y24698D01*
X14553Y24100D01*
X14739Y23164D01*
X15270Y22370D01*
X16064Y21839D01*
X17000Y21653D01*
X17936Y21839D01*
X18730Y22370D01*
X19261Y23164D01*
X19447Y24100D01*
X19261Y25036D01*
X18730Y25830D01*
X17936Y26361D01*
X17000Y26547D01*
X16402Y26428D01*
X5723Y37107D01*
Y123031D01*
X6230Y123370D01*
X6761Y124164D01*
X6947Y125100D01*
X6761Y126036D01*
X6230Y126830D01*
X5436Y127361D01*
X4500Y127547D01*
X3564Y127361D01*
X2770Y126830D01*
X2600Y126576D01*
X2100Y126728D01*
Y204874D01*
X106408D01*
X106440Y204375D01*
X106087Y204328D01*
X105521Y204254D01*
X104609Y203876D01*
X103825Y203274D01*
X103224Y202491D01*
X102847Y201579D01*
X102784Y201100D01*
X106500D01*
X110216D01*
X110153Y201579D01*
X109776Y202491D01*
X109175Y203274D01*
X108391Y203876D01*
X107479Y204254D01*
X106913Y204328D01*
X106560Y204375D01*
X106592Y204874D01*
X317900D01*
Y64706D01*
D02*
G37*
G36*
X268776Y192593D02*
Y189858D01*
X268277Y189689D01*
X267977Y190078D01*
X267105Y190747D01*
X266090Y191168D01*
X265000Y191312D01*
X263910Y191168D01*
X262894Y190747D01*
X262022Y190078D01*
X261353Y189206D01*
X260932Y188190D01*
X260789Y187100D01*
X260932Y186011D01*
X261239Y185271D01*
X260865Y184965D01*
X259155Y186675D01*
X259211Y187100D01*
X259067Y188190D01*
X258647Y189206D01*
X257977Y190078D01*
X257105Y190747D01*
X256090Y191168D01*
X255000Y191311D01*
X253910Y191168D01*
X252894Y190747D01*
X252022Y190078D01*
X251353Y189206D01*
X250932Y188190D01*
X250789Y187100D01*
X250932Y186010D01*
X251353Y184994D01*
X252022Y184122D01*
X252894Y183453D01*
X253910Y183033D01*
X255000Y182889D01*
X256090Y183033D01*
X257105Y183453D01*
X257978Y184123D01*
X258230Y184139D01*
X258776Y183593D01*
Y180143D01*
X258303Y179982D01*
X258120Y180221D01*
X257206Y180922D01*
X256142Y181363D01*
X255500Y181447D01*
X255500Y177100D01*
X255500Y172753D01*
X256142Y172838D01*
X257207Y173279D01*
X258121Y173980D01*
X258303Y174218D01*
X258776Y174057D01*
Y155107D01*
X257635Y153965D01*
X257370Y153568D01*
X257277Y153100D01*
Y151413D01*
X256776Y151261D01*
X256730Y151330D01*
X255936Y151861D01*
X255000Y152047D01*
X254064Y151861D01*
X253270Y151330D01*
X252739Y150536D01*
X252553Y149600D01*
X252739Y148664D01*
X253270Y147870D01*
X253777Y147531D01*
Y103903D01*
X253564Y103861D01*
X252770Y103330D01*
X252239Y102536D01*
X252053Y101600D01*
X252102Y101351D01*
X251749Y100997D01*
X251500Y101047D01*
X250564Y100861D01*
X249770Y100330D01*
X249239Y99536D01*
X249053Y98600D01*
X249239Y97664D01*
X249770Y96870D01*
X250564Y96339D01*
X251500Y96153D01*
X252436Y96339D01*
X253230Y96870D01*
X253761Y97664D01*
X253947Y98600D01*
X253898Y98849D01*
X254251Y99203D01*
X254500Y99153D01*
X255436Y99339D01*
X256230Y99870D01*
X256761Y100664D01*
X256947Y101600D01*
X256761Y102536D01*
X256230Y103330D01*
X256224Y103335D01*
Y147531D01*
X256730Y147870D01*
X256776Y147939D01*
X257277Y147787D01*
Y145100D01*
X257370Y144632D01*
X257635Y144235D01*
X258277Y143593D01*
Y83901D01*
X257776Y83634D01*
X257436Y83861D01*
X256500Y84047D01*
X255820Y83912D01*
X255387Y84298D01*
X255447Y84600D01*
X255261Y85536D01*
X254730Y86330D01*
X253936Y86861D01*
X253000Y87047D01*
X252064Y86861D01*
X251270Y86330D01*
X250739Y85536D01*
X250553Y84600D01*
X250739Y83664D01*
X251270Y82870D01*
X252064Y82339D01*
X253000Y82153D01*
X253680Y82288D01*
X254113Y81902D01*
X254053Y81600D01*
X254174Y80992D01*
X253848Y80417D01*
X253564Y80361D01*
X252770Y79830D01*
X252239Y79036D01*
X252053Y78100D01*
X252239Y77164D01*
X252770Y76370D01*
X253564Y75839D01*
X253777Y75797D01*
Y71901D01*
X253276Y71633D01*
X252936Y71861D01*
X252000Y72047D01*
X251064Y71861D01*
X250270Y71330D01*
X249739Y70536D01*
X249553Y69600D01*
X249603Y69351D01*
X249249Y68998D01*
X249000Y69047D01*
X248064Y68861D01*
X247270Y68330D01*
X247223Y68261D01*
X246724Y68413D01*
Y75600D01*
Y79100D01*
X246630Y79568D01*
X246365Y79965D01*
X244365Y81965D01*
X243968Y82230D01*
X243500Y82323D01*
X243313D01*
X243161Y82823D01*
X243230Y82870D01*
X243500Y83273D01*
X244000D01*
X244270Y82870D01*
X245064Y82339D01*
X246000Y82153D01*
X246936Y82339D01*
X247730Y82870D01*
X248261Y83664D01*
X248447Y84600D01*
X248261Y85536D01*
X247730Y86330D01*
X246936Y86861D01*
X246000Y87047D01*
X245064Y86861D01*
X244270Y86330D01*
X244039Y85985D01*
X243539Y86137D01*
Y97422D01*
X244039Y97690D01*
X244564Y97339D01*
X245500Y97153D01*
X246436Y97339D01*
X247230Y97870D01*
X247761Y98664D01*
X247947Y99600D01*
X247761Y100536D01*
X247230Y101330D01*
X246436Y101861D01*
X245500Y102047D01*
X244564Y101861D01*
X244039Y101510D01*
X243539Y101778D01*
Y135422D01*
X244039Y135690D01*
X244564Y135339D01*
X245500Y135153D01*
X246436Y135339D01*
X247230Y135870D01*
X247761Y136664D01*
X247947Y137600D01*
X247761Y138536D01*
X247230Y139330D01*
X246436Y139861D01*
X245500Y140047D01*
X244564Y139861D01*
X244039Y139510D01*
X243539Y139778D01*
Y152332D01*
X243761Y152664D01*
X243947Y153600D01*
X243761Y154536D01*
X243539Y154868D01*
Y166255D01*
X243545Y166261D01*
X243936Y166339D01*
X244730Y166870D01*
X245261Y167664D01*
X245447Y168600D01*
X245261Y169536D01*
X244730Y170330D01*
X243936Y170861D01*
X243000Y171047D01*
X242064Y170861D01*
X241270Y170330D01*
X240739Y169536D01*
X240662Y169145D01*
X240058Y168542D01*
X239616Y167880D01*
X239461Y167100D01*
Y154868D01*
X239239Y154536D01*
X239053Y153600D01*
X239239Y152664D01*
X239461Y152332D01*
Y132278D01*
X238961Y132010D01*
X238436Y132361D01*
X237500Y132547D01*
X236564Y132361D01*
X235770Y131830D01*
X235239Y131036D01*
X235053Y130100D01*
X235239Y129164D01*
X235770Y128370D01*
X236277Y128031D01*
Y84100D01*
X236370Y83632D01*
X236635Y83235D01*
X239635Y80235D01*
X240032Y79970D01*
X240500Y79877D01*
X242993D01*
X244276Y78593D01*
Y76100D01*
Y73507D01*
X243776Y73457D01*
X243761Y73536D01*
X243230Y74330D01*
X242436Y74861D01*
X242249Y74898D01*
X242058Y75360D01*
X242261Y75664D01*
X242447Y76600D01*
X242261Y77536D01*
X241730Y78330D01*
X240936Y78861D01*
X240000Y79047D01*
X239064Y78861D01*
X238270Y78330D01*
X237739Y77536D01*
X237697Y77324D01*
X236500D01*
X236032Y77230D01*
X235635Y76965D01*
X234135Y75465D01*
X233870Y75068D01*
X233776Y74600D01*
Y49207D01*
X233315Y49016D01*
X231224Y51107D01*
Y79093D01*
X232365Y80235D01*
X232630Y80632D01*
X232723Y81100D01*
Y87100D01*
X232630Y87568D01*
X232365Y87965D01*
X231224Y89107D01*
Y90299D01*
X231723Y90566D01*
X232064Y90339D01*
X233000Y90153D01*
X233936Y90339D01*
X234730Y90870D01*
X235261Y91664D01*
X235447Y92600D01*
X235261Y93536D01*
X234730Y94330D01*
X233936Y94861D01*
X233000Y95047D01*
X232064Y94861D01*
X231723Y94634D01*
X231224Y94901D01*
Y174057D01*
X231697Y174218D01*
X231880Y173979D01*
X232794Y173278D01*
X233858Y172837D01*
X234500Y172752D01*
X234500Y177100D01*
X234500Y181446D01*
X233858Y181362D01*
X232794Y180921D01*
X231880Y180220D01*
X231697Y179981D01*
X231224Y180142D01*
Y184341D01*
X231723Y184511D01*
X232022Y184122D01*
X232894Y183452D01*
X233910Y183032D01*
X235000Y182888D01*
X236090Y183032D01*
X237105Y183453D01*
X237978Y184122D01*
X238647Y184994D01*
X239067Y186010D01*
X239211Y187100D01*
X239067Y188189D01*
X238647Y189205D01*
X237977Y190077D01*
X237843Y190181D01*
X237810Y190680D01*
X240507Y193377D01*
X267993D01*
X268776Y192593D01*
D02*
G37*
G36*
X262022Y184123D02*
X262894Y183454D01*
X263910Y183033D01*
X265000Y182889D01*
X266090Y183033D01*
X267106Y183454D01*
X267978Y184123D01*
X268277Y184513D01*
X268776Y184343D01*
Y180144D01*
X268303Y179983D01*
X268120Y180221D01*
X267206Y180922D01*
X266142Y181363D01*
X265500Y181448D01*
X265500Y177101D01*
X265500Y172754D01*
X266142Y172838D01*
X267207Y173279D01*
X268121Y173980D01*
X268303Y174218D01*
X268776Y174057D01*
Y167707D01*
X268315Y167516D01*
X266828Y169002D01*
X266947Y169600D01*
X266761Y170536D01*
X266230Y171330D01*
X265436Y171861D01*
X264500Y172047D01*
X263564Y171861D01*
X262770Y171330D01*
X262239Y170536D01*
X262053Y169600D01*
X262239Y168664D01*
X262770Y167870D01*
X263564Y167339D01*
X264500Y167153D01*
X265098Y167272D01*
X266776Y165593D01*
Y125413D01*
X266277Y125261D01*
X266230Y125330D01*
X265436Y125861D01*
X264500Y126047D01*
X263564Y125861D01*
X262770Y125330D01*
X262239Y124536D01*
X262053Y123600D01*
X262239Y122664D01*
X262770Y121870D01*
X263564Y121339D01*
X264500Y121153D01*
X265436Y121339D01*
X266230Y121870D01*
X266277Y121939D01*
X266776Y121787D01*
Y102913D01*
X266277Y102761D01*
X266230Y102830D01*
X265436Y103361D01*
X264500Y103547D01*
X263564Y103361D01*
X262770Y102830D01*
X262239Y102036D01*
X262053Y101100D01*
X262239Y100164D01*
X262770Y99370D01*
X263564Y98839D01*
X264500Y98653D01*
X265436Y98839D01*
X266230Y99370D01*
X266277Y99439D01*
X266776Y99287D01*
Y86401D01*
X266277Y86133D01*
X265936Y86361D01*
X265000Y86547D01*
X264064Y86361D01*
X263270Y85830D01*
X262739Y85036D01*
X262553Y84100D01*
X262739Y83164D01*
X263270Y82370D01*
X264064Y81839D01*
X264277Y81797D01*
Y76901D01*
X263776Y76634D01*
X263436Y76861D01*
X262500Y77047D01*
X261564Y76861D01*
X261224Y76634D01*
X260723Y76901D01*
Y144100D01*
X260630Y144568D01*
X260365Y144965D01*
X259723Y145607D01*
Y152593D01*
X260865Y153735D01*
X261130Y154132D01*
X261224Y154600D01*
Y174058D01*
X261697Y174219D01*
X261880Y173980D01*
X262794Y173279D01*
X263858Y172838D01*
X264500Y172754D01*
X264500Y177101D01*
X264500Y181447D01*
X263858Y181363D01*
X262794Y180922D01*
X261880Y180221D01*
X261697Y179982D01*
X261224Y180143D01*
Y184100D01*
X261158Y184427D01*
X261626Y184639D01*
X262022Y184123D01*
D02*
G37*
G36*
X223877Y67853D02*
Y62967D01*
X221816Y60906D01*
X221274Y61071D01*
X221261Y61136D01*
X220730Y61930D01*
X220724Y61935D01*
Y68031D01*
X221230Y68370D01*
X221761Y69164D01*
X221778Y69249D01*
X222320Y69410D01*
X223877Y67853D01*
D02*
G37*
%LPC*%
G36*
X106000Y200100D02*
X102784D01*
X102847Y199621D01*
X102999Y199252D01*
X102596Y198920D01*
X101936Y199361D01*
X101000Y199547D01*
X100064Y199361D01*
X99270Y198830D01*
X98739Y198036D01*
X98553Y197100D01*
X98739Y196164D01*
X99270Y195370D01*
X100064Y194839D01*
X101000Y194653D01*
X101936Y194839D01*
X102730Y195370D01*
X103261Y196164D01*
X103447Y197100D01*
X103314Y197771D01*
X103781Y197983D01*
X103825Y197925D01*
X104609Y197324D01*
X105521Y196947D01*
X106000Y196883D01*
Y200100D01*
D02*
G37*
G36*
X180050Y204150D02*
X172950D01*
Y197050D01*
X180050D01*
Y204150D01*
D02*
G37*
G36*
X166500Y204181D02*
X165573Y204059D01*
X164710Y203701D01*
X163968Y203132D01*
X163399Y202390D01*
X163041Y201527D01*
X162919Y200600D01*
X163041Y199673D01*
X163399Y198810D01*
X163968Y198068D01*
X164710Y197499D01*
X165573Y197141D01*
X166500Y197019D01*
X167427Y197141D01*
X168290Y197499D01*
X169032Y198068D01*
X169601Y198810D01*
X169959Y199673D01*
X170081Y200600D01*
X169959Y201527D01*
X169601Y202390D01*
X169032Y203132D01*
X168290Y203701D01*
X167427Y204059D01*
X166500Y204181D01*
D02*
G37*
G36*
X156500D02*
X155573Y204059D01*
X154710Y203701D01*
X153968Y203132D01*
X153399Y202390D01*
X153041Y201527D01*
X152919Y200600D01*
X153041Y199673D01*
X153399Y198810D01*
X153968Y198068D01*
X154710Y197499D01*
X155573Y197141D01*
X156500Y197019D01*
X157427Y197141D01*
X158290Y197499D01*
X159032Y198068D01*
X159601Y198810D01*
X159959Y199673D01*
X160081Y200600D01*
X159959Y201527D01*
X159601Y202390D01*
X159032Y203132D01*
X158290Y203701D01*
X157427Y204059D01*
X156500Y204181D01*
D02*
G37*
G36*
X146500D02*
X145573Y204059D01*
X144710Y203701D01*
X143968Y203132D01*
X143399Y202390D01*
X143041Y201527D01*
X142919Y200600D01*
X143041Y199673D01*
X143399Y198810D01*
X143968Y198068D01*
X144710Y197499D01*
X145573Y197141D01*
X146500Y197019D01*
X147427Y197141D01*
X148290Y197499D01*
X149032Y198068D01*
X149601Y198810D01*
X149959Y199673D01*
X150081Y200600D01*
X149959Y201527D01*
X149601Y202390D01*
X149032Y203132D01*
X148290Y203701D01*
X147427Y204059D01*
X146500Y204181D01*
D02*
G37*
G36*
X136500D02*
X135573Y204059D01*
X134710Y203701D01*
X133968Y203132D01*
X133399Y202390D01*
X133041Y201527D01*
X132919Y200600D01*
X133041Y199673D01*
X133399Y198810D01*
X133968Y198068D01*
X134710Y197499D01*
X135573Y197141D01*
X136500Y197019D01*
X137427Y197141D01*
X138290Y197499D01*
X139032Y198068D01*
X139601Y198810D01*
X139959Y199673D01*
X140081Y200600D01*
X139959Y201527D01*
X139601Y202390D01*
X139032Y203132D01*
X138290Y203701D01*
X137427Y204059D01*
X136500Y204181D01*
D02*
G37*
G36*
X126500D02*
X125573Y204059D01*
X124710Y203701D01*
X123968Y203132D01*
X123399Y202390D01*
X123041Y201527D01*
X122919Y200600D01*
X123041Y199673D01*
X123399Y198810D01*
X123968Y198068D01*
X124710Y197499D01*
X125573Y197141D01*
X126500Y197019D01*
X127427Y197141D01*
X128290Y197499D01*
X129032Y198068D01*
X129601Y198810D01*
X129959Y199673D01*
X130081Y200600D01*
X129959Y201527D01*
X129601Y202390D01*
X129032Y203132D01*
X128290Y203701D01*
X127427Y204059D01*
X126500Y204181D01*
D02*
G37*
G36*
X116500D02*
X115573Y204059D01*
X114710Y203701D01*
X113968Y203132D01*
X113399Y202390D01*
X113041Y201527D01*
X112919Y200600D01*
X113041Y199673D01*
X113399Y198810D01*
X113968Y198068D01*
X114710Y197499D01*
X115573Y197141D01*
X116500Y197019D01*
X117427Y197141D01*
X118290Y197499D01*
X119032Y198068D01*
X119601Y198810D01*
X119959Y199673D01*
X120081Y200600D01*
X119959Y201527D01*
X119601Y202390D01*
X119032Y203132D01*
X118290Y203701D01*
X117427Y204059D01*
X116500Y204181D01*
D02*
G37*
G36*
X110216Y200100D02*
X107000D01*
Y196883D01*
X107479Y196947D01*
X108391Y197324D01*
X109175Y197925D01*
X109776Y198709D01*
X110153Y199621D01*
X110216Y200100D01*
D02*
G37*
G36*
X50800Y199743D02*
X18229D01*
Y194237D01*
X50800D01*
Y199743D01*
D02*
G37*
G36*
X137000Y194946D02*
X137000Y191099D01*
X140847Y191099D01*
X140762Y191741D01*
X140322Y192805D01*
X139620Y193719D01*
X138706Y194420D01*
X137642Y194861D01*
X137000Y194946D01*
D02*
G37*
G36*
X136000Y194946D02*
X135358Y194861D01*
X134293Y194420D01*
X133380Y193719D01*
X132678Y192805D01*
X132238Y191741D01*
X132153Y191098D01*
X136000Y191099D01*
X136000Y194946D01*
D02*
G37*
G36*
X126500Y194809D02*
X125410Y194666D01*
X124394Y194245D01*
X123522Y193576D01*
X122853Y192704D01*
X122432Y191688D01*
X122289Y190598D01*
X122432Y189508D01*
X122853Y188493D01*
X123522Y187620D01*
X124395Y186951D01*
X125410Y186531D01*
X126500Y186387D01*
X127590Y186531D01*
X128606Y186951D01*
X129478Y187621D01*
X130147Y188493D01*
X130568Y189508D01*
X130711Y190598D01*
X130568Y191688D01*
X130147Y192704D01*
X129478Y193576D01*
X128605Y194245D01*
X127590Y194666D01*
X126500Y194809D01*
D02*
G37*
G36*
X140847Y190099D02*
X137000Y190099D01*
X137000Y186252D01*
X137642Y186336D01*
X138707Y186777D01*
X139620Y187478D01*
X140322Y188392D01*
X140762Y189457D01*
X140847Y190099D01*
D02*
G37*
G36*
X136000Y190099D02*
X132153Y190099D01*
X132238Y189456D01*
X132678Y188392D01*
X133380Y187478D01*
X134294Y186777D01*
X135358Y186336D01*
X136000Y186252D01*
X136000Y190099D01*
D02*
G37*
G36*
X299175Y191277D02*
X290825Y191276D01*
X290825Y182926D01*
X299175Y182927D01*
X299175Y191277D01*
D02*
G37*
G36*
X285000Y191312D02*
X283910Y191169D01*
X282894Y190748D01*
X282022Y190079D01*
X281353Y189207D01*
X280932Y188191D01*
X280789Y187101D01*
X280932Y186011D01*
X281353Y184996D01*
X282022Y184124D01*
X282894Y183454D01*
X283910Y183034D01*
X285000Y182890D01*
X286090Y183034D01*
X287105Y183454D01*
X287978Y184124D01*
X288647Y184996D01*
X289067Y186012D01*
X289211Y187101D01*
X289067Y188191D01*
X288647Y189207D01*
X287977Y190079D01*
X287105Y190748D01*
X286090Y191169D01*
X285000Y191312D01*
D02*
G37*
G36*
X215000Y191310D02*
X213910Y191166D01*
X212894Y190746D01*
X212022Y190076D01*
X211353Y189204D01*
X210932Y188189D01*
X210789Y187099D01*
X210932Y186009D01*
X211353Y184993D01*
X212022Y184121D01*
X212894Y183452D01*
X213910Y183031D01*
X215000Y182888D01*
X216090Y183031D01*
X217106Y183452D01*
X217978Y184121D01*
X218647Y184993D01*
X219067Y186009D01*
X219211Y187099D01*
X219067Y188189D01*
X218647Y189204D01*
X217977Y190076D01*
X217105Y190746D01*
X216090Y191166D01*
X215000Y191310D01*
D02*
G37*
G36*
X205000Y191309D02*
X203910Y191166D01*
X202894Y190745D01*
X202022Y190076D01*
X201353Y189204D01*
X200932Y188188D01*
X200789Y187098D01*
X200932Y186008D01*
X201353Y184993D01*
X202022Y184121D01*
X202894Y183451D01*
X203910Y183031D01*
X205000Y182887D01*
X206090Y183031D01*
X207105Y183452D01*
X207978Y184121D01*
X208647Y184993D01*
X209067Y186009D01*
X209211Y187099D01*
X209067Y188189D01*
X208647Y189204D01*
X207977Y190076D01*
X207105Y190745D01*
X206090Y191166D01*
X205000Y191309D01*
D02*
G37*
G36*
X110500Y188494D02*
X109255Y188371D01*
X107578Y187862D01*
X106032Y187036D01*
X104676Y185924D01*
X103564Y184569D01*
X102738Y183022D01*
X102229Y181345D01*
X102192Y180971D01*
X101679Y180865D01*
X100936Y181361D01*
X100000Y181547D01*
X99064Y181361D01*
X98270Y180830D01*
X97739Y180036D01*
X97553Y179100D01*
X97739Y178164D01*
X98270Y177370D01*
X99064Y176839D01*
X100000Y176653D01*
X100936Y176839D01*
X101730Y177370D01*
X101815Y177497D01*
X102362Y177415D01*
X102738Y176178D01*
X103564Y174632D01*
X104676Y173276D01*
X106032Y172164D01*
X107578Y171338D01*
X109255Y170829D01*
X110500Y170706D01*
Y179600D01*
Y188494D01*
D02*
G37*
G36*
X186800Y197247D02*
X185864Y197061D01*
X185070Y196530D01*
X184539Y195736D01*
X184353Y194800D01*
X184539Y193864D01*
X185070Y193070D01*
X185576Y192731D01*
Y182540D01*
X185670Y182072D01*
X185935Y181675D01*
X186518Y181092D01*
X186493Y180924D01*
X186416Y180845D01*
X185941Y180600D01*
X185200Y180747D01*
X184264Y180561D01*
X183470Y180030D01*
X182939Y179236D01*
X182753Y178300D01*
X182939Y177364D01*
X183470Y176570D01*
X183510Y176364D01*
X183370Y176154D01*
X183276Y175685D01*
Y167400D01*
X183370Y166932D01*
X183635Y166535D01*
X184076Y166093D01*
Y162800D01*
X181910Y160633D01*
X181645Y160236D01*
X181552Y159768D01*
Y155961D01*
X181090Y155769D01*
X178639Y158220D01*
Y159591D01*
X178484Y160371D01*
X178042Y161033D01*
X173433Y165642D01*
X172772Y166084D01*
X171991Y166239D01*
X166768D01*
X166436Y166461D01*
X165500Y166647D01*
X165126Y166573D01*
X164739Y166890D01*
Y175332D01*
X164961Y175664D01*
X165147Y176600D01*
X164961Y177536D01*
X164430Y178330D01*
X163636Y178861D01*
X162700Y179047D01*
X161764Y178861D01*
X160970Y178330D01*
X160439Y177536D01*
X160253Y176600D01*
X160439Y175664D01*
X160661Y175332D01*
Y169518D01*
X160161Y169377D01*
X159436Y169861D01*
X158500Y170047D01*
X157564Y169861D01*
X156770Y169330D01*
X156239Y168536D01*
X156053Y167600D01*
X156239Y166664D01*
X156770Y165870D01*
X157564Y165339D01*
X158276Y165197D01*
Y158592D01*
X157635Y157950D01*
X157370Y157554D01*
X157276Y157085D01*
Y152115D01*
X157370Y151646D01*
X157635Y151250D01*
X159076Y149808D01*
Y148463D01*
X158635Y148228D01*
X158436Y148361D01*
X157500Y148547D01*
X156564Y148361D01*
X155770Y147830D01*
X155431Y147324D01*
X155000D01*
X154532Y147230D01*
X154135Y146965D01*
X149685Y142516D01*
X149223Y142707D01*
Y176593D01*
X150207Y177577D01*
X150264Y177539D01*
X151200Y177353D01*
X152136Y177539D01*
X152930Y178070D01*
X153461Y178864D01*
X153647Y179800D01*
X153461Y180736D01*
X152930Y181530D01*
X152136Y182061D01*
X151555Y182176D01*
X151604Y182676D01*
X169800D01*
X170268Y182770D01*
X170665Y183035D01*
X174055Y186425D01*
X180675Y186425D01*
X180675Y194775D01*
X172325Y194775D01*
X172325Y188155D01*
X169293Y185124D01*
X161807D01*
X161616Y185585D01*
X163596Y187566D01*
X164395Y186953D01*
X165410Y186532D01*
X166500Y186389D01*
X167590Y186532D01*
X168606Y186953D01*
X169478Y187622D01*
X170147Y188494D01*
X170568Y189510D01*
X170711Y190600D01*
X170568Y191690D01*
X170147Y192705D01*
X169477Y193577D01*
X168605Y194247D01*
X167590Y194667D01*
X166500Y194811D01*
X165410Y194667D01*
X164394Y194246D01*
X163522Y193577D01*
X162853Y192705D01*
X162432Y191689D01*
X162289Y190600D01*
X162391Y189822D01*
X159564Y186995D01*
X159501Y187010D01*
X159385Y187550D01*
X159478Y187622D01*
X160147Y188494D01*
X160568Y189509D01*
X160711Y190600D01*
X160567Y191689D01*
X160147Y192705D01*
X159477Y193577D01*
X158605Y194246D01*
X157590Y194667D01*
X156500Y194810D01*
X155410Y194667D01*
X154394Y194246D01*
X153522Y193577D01*
X152853Y192705D01*
X152432Y191689D01*
X152427Y191650D01*
X152149Y191464D01*
X151155Y190470D01*
X150695Y190718D01*
X150567Y191689D01*
X150147Y192705D01*
X149478Y193577D01*
X148605Y194246D01*
X147590Y194667D01*
X146500Y194810D01*
X145410Y194667D01*
X144394Y194246D01*
X143522Y193577D01*
X142853Y192704D01*
X142432Y191689D01*
X142289Y190599D01*
X142432Y189509D01*
X142853Y188493D01*
X143523Y187621D01*
X144395Y186952D01*
X144671Y186837D01*
X144769Y186347D01*
X140735Y182313D01*
X140470Y181916D01*
X140376Y181448D01*
Y180207D01*
X138635Y178465D01*
X138370Y178068D01*
X138324Y177841D01*
X137794Y177735D01*
X137730Y177830D01*
X136936Y178361D01*
X136000Y178547D01*
X135064Y178361D01*
X134270Y177830D01*
X133739Y177036D01*
X133553Y176100D01*
X133739Y175164D01*
X133961Y174832D01*
Y152368D01*
X133739Y152036D01*
X133553Y151100D01*
X133739Y150164D01*
X134270Y149370D01*
X135064Y148839D01*
X136000Y148653D01*
X136936Y148839D01*
X137730Y149370D01*
X137777Y149439D01*
X138277Y149287D01*
Y137413D01*
X137777Y137261D01*
X137730Y137330D01*
X136936Y137861D01*
X136000Y138047D01*
X135064Y137861D01*
X134270Y137330D01*
X133739Y136536D01*
X133553Y135600D01*
X133739Y134664D01*
X134270Y133870D01*
X135064Y133339D01*
X136000Y133153D01*
X136276Y132926D01*
Y122207D01*
X135815Y122016D01*
X134828Y123002D01*
X134947Y123600D01*
X134761Y124536D01*
X134230Y125330D01*
X133436Y125861D01*
X132500Y126047D01*
X131564Y125861D01*
X130770Y125330D01*
X130239Y124536D01*
X130053Y123600D01*
X130239Y122664D01*
X130770Y121870D01*
X131564Y121339D01*
X132500Y121153D01*
X133098Y121272D01*
X134276Y120093D01*
Y72607D01*
X132635Y70965D01*
X132370Y70568D01*
X132276Y70100D01*
Y68107D01*
X131598Y67428D01*
X131000Y67547D01*
X130064Y67361D01*
X129270Y66830D01*
X128739Y66036D01*
X128553Y65100D01*
X128739Y64164D01*
X129270Y63370D01*
X130064Y62839D01*
X131000Y62653D01*
X131936Y62839D01*
X132730Y63370D01*
X133261Y64164D01*
X133447Y65100D01*
X133349Y65594D01*
X133584Y65807D01*
X133913Y65662D01*
X134060Y65563D01*
X134239Y64664D01*
X134770Y63870D01*
X135564Y63339D01*
X136500Y63153D01*
X137436Y63339D01*
X137777Y63566D01*
X138277Y63299D01*
Y32900D01*
X138370Y32432D01*
X138635Y32035D01*
X141277Y29393D01*
X141239Y29336D01*
X141053Y28400D01*
X141239Y27464D01*
X141770Y26670D01*
X142564Y26139D01*
X143500Y25953D01*
X144436Y26139D01*
X145230Y26670D01*
X145761Y27464D01*
X145947Y28400D01*
X145761Y29336D01*
X145230Y30130D01*
X144436Y30661D01*
X143500Y30847D01*
X143319Y30811D01*
X140724Y33407D01*
Y65787D01*
X141224Y65939D01*
X141270Y65870D01*
X142064Y65339D01*
X143000Y65153D01*
X143936Y65339D01*
X144730Y65870D01*
X145261Y66664D01*
X145261Y66665D01*
X145365Y66735D01*
X146815Y68184D01*
X147276Y67993D01*
Y29600D01*
X147370Y29132D01*
X147635Y28735D01*
X152139Y24231D01*
X152053Y23800D01*
X152239Y22864D01*
X152770Y22070D01*
X153564Y21539D01*
X154500Y21353D01*
X155436Y21539D01*
X156230Y22070D01*
X156761Y22864D01*
X156947Y23800D01*
X156761Y24736D01*
X156230Y25530D01*
X155436Y26061D01*
X154500Y26247D01*
X153735Y26095D01*
X149723Y30107D01*
Y72056D01*
X150185Y72247D01*
X152277Y70157D01*
Y67869D01*
X151770Y67530D01*
X151239Y66736D01*
X151053Y65800D01*
X151239Y64864D01*
X151770Y64070D01*
X152564Y63539D01*
X153500Y63353D01*
X154436Y63539D01*
X154565Y63625D01*
X155009Y63400D01*
X155045Y62976D01*
X154698Y62628D01*
X154100Y62747D01*
X153164Y62561D01*
X152370Y62030D01*
X151839Y61236D01*
X151653Y60300D01*
X151839Y59364D01*
X152370Y58570D01*
X153164Y58039D01*
X154100Y57853D01*
X154336Y57617D01*
X154253Y57200D01*
X154439Y56264D01*
X154970Y55470D01*
X155764Y54939D01*
X156700Y54753D01*
X157636Y54939D01*
X158430Y55470D01*
X158961Y56264D01*
X158965Y56284D01*
X159465Y56234D01*
Y48300D01*
X159604Y47598D01*
X160002Y47002D01*
X162965Y44040D01*
Y30468D01*
X162302Y29806D01*
X161904Y29211D01*
X161765Y28508D01*
Y27352D01*
X161324Y27116D01*
X161136Y27241D01*
X160200Y27427D01*
X159264Y27241D01*
X158470Y26711D01*
X157939Y25917D01*
X157753Y24980D01*
X157939Y24044D01*
X158470Y23250D01*
X158976Y22911D01*
Y9807D01*
X157993Y8824D01*
X157427Y9059D01*
X156500Y9181D01*
X155573Y9059D01*
X154710Y8701D01*
X153968Y8132D01*
X153399Y7390D01*
X153041Y6527D01*
X152919Y5600D01*
X153041Y4673D01*
X153399Y3810D01*
X153968Y3068D01*
X154710Y2499D01*
X155573Y2141D01*
X156500Y2019D01*
X157427Y2141D01*
X158290Y2499D01*
X159032Y3068D01*
X159601Y3810D01*
X159959Y4673D01*
X160081Y5600D01*
X159959Y6527D01*
X159724Y7094D01*
X161065Y8435D01*
X161330Y8832D01*
X161424Y9300D01*
Y17534D01*
X161887Y17775D01*
X161924Y17769D01*
X162302Y17202D01*
X172950Y6555D01*
Y2050D01*
X180050D01*
Y9150D01*
X175546D01*
X165435Y19260D01*
Y19792D01*
X165435Y19792D01*
Y24729D01*
X165876Y24964D01*
X166064Y24839D01*
X167000Y24653D01*
X167936Y24839D01*
X168730Y25370D01*
X169261Y26164D01*
X169447Y27100D01*
X169424Y27217D01*
X174153Y31947D01*
X174507Y32476D01*
X174631Y33100D01*
Y43304D01*
X174730Y43370D01*
X175261Y44164D01*
X175447Y45100D01*
X175261Y46036D01*
X174730Y46830D01*
X174631Y46896D01*
Y66804D01*
X174730Y66870D01*
X175261Y67664D01*
X175447Y68600D01*
X175261Y69536D01*
X174730Y70330D01*
X173936Y70861D01*
X173000Y71047D01*
X172064Y70861D01*
X171723Y70634D01*
X171223Y70901D01*
Y87100D01*
X171130Y87568D01*
X170865Y87965D01*
X167224Y91607D01*
Y97093D01*
X174865Y104735D01*
X176365Y106235D01*
X176630Y106632D01*
X176724Y107100D01*
Y111100D01*
X176630Y111568D01*
X176365Y111965D01*
X174365Y113965D01*
X173968Y114230D01*
X173766Y114271D01*
X173524Y114780D01*
X173526Y114813D01*
X173761Y115164D01*
X173947Y116100D01*
X173761Y117036D01*
X173230Y117830D01*
X172436Y118361D01*
X171500Y118547D01*
X170564Y118361D01*
X169770Y117830D01*
X169239Y117036D01*
X169053Y116100D01*
X169239Y115164D01*
X169466Y114823D01*
X169199Y114323D01*
X167507D01*
X166224Y115607D01*
Y126593D01*
X173865Y134235D01*
X174130Y134632D01*
X174223Y135100D01*
Y155727D01*
X174607Y156045D01*
X175135Y155967D01*
X175158Y155933D01*
X178336Y152755D01*
Y76225D01*
X178491Y75445D01*
X178933Y74783D01*
X179987Y73730D01*
X179961Y73600D01*
Y41612D01*
X179461Y41344D01*
X179436Y41361D01*
X178500Y41547D01*
X177564Y41361D01*
X176770Y40830D01*
X176239Y40036D01*
X176053Y39100D01*
X176239Y38164D01*
X176770Y37370D01*
X177564Y36839D01*
X178500Y36653D01*
X179436Y36839D01*
X179768Y37061D01*
X180461D01*
Y25868D01*
X180239Y25536D01*
X180053Y24600D01*
X180239Y23664D01*
X180770Y22870D01*
X181564Y22339D01*
X182500Y22153D01*
X183436Y22339D01*
X184230Y22870D01*
X184761Y23664D01*
X184947Y24600D01*
X184761Y25536D01*
X184539Y25868D01*
Y39100D01*
X184539Y39100D01*
X184384Y39880D01*
X184039Y40396D01*
Y48962D01*
X184539Y49114D01*
X184970Y48470D01*
X185764Y47939D01*
X186700Y47753D01*
X187636Y47939D01*
X188430Y48470D01*
X188827Y49064D01*
X189431Y49261D01*
X189764Y49039D01*
X190700Y48853D01*
X191636Y49039D01*
X192430Y49570D01*
X192961Y50364D01*
X193069Y50906D01*
X193569Y50857D01*
Y48900D01*
X193693Y48276D01*
X194046Y47747D01*
X195023Y46770D01*
X194993Y46724D01*
X194869Y46100D01*
Y31100D01*
X194993Y30476D01*
X195346Y29947D01*
X198465Y26829D01*
X198406Y26537D01*
X198593Y25600D01*
X199123Y24806D01*
X199917Y24276D01*
X200853Y24090D01*
X201790Y24276D01*
X202584Y24806D01*
X203114Y25600D01*
X203300Y26537D01*
X203114Y27473D01*
X202584Y28267D01*
X201790Y28797D01*
X200941Y28966D01*
X198131Y31776D01*
Y33861D01*
X198631Y34128D01*
X199064Y33839D01*
X200000Y33653D01*
X200936Y33839D01*
X201730Y34370D01*
X202261Y35164D01*
X202447Y36100D01*
X202261Y37036D01*
X201730Y37830D01*
X200936Y38361D01*
X200000Y38547D01*
X199064Y38361D01*
X198631Y38072D01*
X198131Y38339D01*
Y42975D01*
X198631Y43127D01*
X198670Y43070D01*
X199464Y42539D01*
X200400Y42353D01*
X201336Y42539D01*
X202130Y43070D01*
X202661Y43864D01*
X202847Y44800D01*
X202661Y45736D01*
X202130Y46530D01*
X201336Y47061D01*
X200400Y47247D01*
X199719Y47111D01*
X198865Y47965D01*
X198784Y48019D01*
X198889Y48550D01*
X199336Y48639D01*
X200130Y49170D01*
X200661Y49964D01*
X200847Y50900D01*
X200661Y51836D01*
X200130Y52630D01*
X199523Y53036D01*
Y57340D01*
X199430Y57808D01*
X199462Y57885D01*
X200236Y58039D01*
X201030Y58570D01*
X201561Y59364D01*
X201747Y60300D01*
X201561Y61236D01*
X201030Y62030D01*
X200236Y62561D01*
X199300Y62747D01*
X198823Y62652D01*
X198324Y63063D01*
Y63968D01*
X198393Y64072D01*
X198486Y64540D01*
Y70697D01*
X198393Y71165D01*
X198128Y71562D01*
X196425Y73265D01*
X196028Y73530D01*
X195923Y73551D01*
Y102100D01*
X195830Y102568D01*
X195565Y102965D01*
X195124Y103407D01*
Y106745D01*
X197465Y109087D01*
X197730Y109484D01*
X197824Y109952D01*
Y116248D01*
X197730Y116716D01*
X197465Y117113D01*
X194723Y119855D01*
Y146558D01*
X194630Y147026D01*
X194365Y147423D01*
X190399Y151390D01*
Y156610D01*
X194165Y160377D01*
X194430Y160774D01*
X194524Y161242D01*
Y174965D01*
X194530Y174970D01*
X195061Y175764D01*
X195247Y176700D01*
X195061Y177636D01*
X194530Y178430D01*
X193736Y178961D01*
X192800Y179147D01*
X191864Y178961D01*
X191323Y178600D01*
X190823Y178867D01*
Y180897D01*
X191036Y180939D01*
X191830Y181470D01*
X192361Y182264D01*
X192547Y183200D01*
X192361Y184136D01*
X191830Y184930D01*
X191036Y185461D01*
X190100Y185647D01*
X189164Y185461D01*
X188523Y185033D01*
X188023Y185244D01*
Y192731D01*
X188530Y193070D01*
X189061Y193864D01*
X189247Y194800D01*
X189061Y195736D01*
X188530Y196530D01*
X187736Y197061D01*
X186800Y197247D01*
D02*
G37*
G36*
X24303Y185422D02*
X23624Y185333D01*
X22992Y185071D01*
X22449Y184654D01*
X22032Y184111D01*
X21770Y183479D01*
X21681Y182800D01*
X21770Y182121D01*
X22032Y181489D01*
X22449Y180946D01*
X22992Y180529D01*
X23624Y180267D01*
X24303Y180178D01*
X24982Y180267D01*
X25614Y180529D01*
X26158Y180946D01*
X26574Y181489D01*
X26836Y182121D01*
X26926Y182800D01*
X26836Y183479D01*
X26574Y184111D01*
X26158Y184654D01*
X25614Y185071D01*
X24982Y185333D01*
X24303Y185422D01*
D02*
G37*
G36*
X111500Y188494D02*
Y180100D01*
X119894D01*
X119771Y181345D01*
X119262Y183022D01*
X118436Y184569D01*
X117324Y185924D01*
X115969Y187036D01*
X114422Y187862D01*
X112745Y188371D01*
X111500Y188494D01*
D02*
G37*
G36*
X285500Y181448D02*
X285500Y177601D01*
X289347Y177601D01*
X289263Y178244D01*
X288822Y179308D01*
X288120Y180222D01*
X287206Y180923D01*
X286142Y181364D01*
X285500Y181448D01*
D02*
G37*
G36*
X284500Y181448D02*
X283858Y181364D01*
X282794Y180923D01*
X281880Y180221D01*
X281178Y179307D01*
X280738Y178243D01*
X280653Y177601D01*
X284500Y177601D01*
X284500Y181448D01*
D02*
G37*
G36*
X275500Y181448D02*
X275500Y177601D01*
X279347Y177601D01*
X279262Y178243D01*
X278822Y179307D01*
X278120Y180221D01*
X277206Y180922D01*
X276142Y181363D01*
X275500Y181448D01*
D02*
G37*
G36*
X224500Y181446D02*
X223858Y181361D01*
X222794Y180921D01*
X221880Y180219D01*
X221179Y179305D01*
X220738Y178241D01*
X220653Y177599D01*
X224500Y177599D01*
X224500Y181446D01*
D02*
G37*
G36*
X215500Y181446D02*
X215500Y177599D01*
X219347Y177599D01*
X219263Y178241D01*
X218822Y179305D01*
X218120Y180219D01*
X217206Y180920D01*
X216142Y181361D01*
X215500Y181446D01*
D02*
G37*
G36*
X214500Y181446D02*
X213858Y181361D01*
X212794Y180920D01*
X211880Y180219D01*
X211178Y179305D01*
X210738Y178241D01*
X210653Y177599D01*
X214500Y177599D01*
X214500Y181446D01*
D02*
G37*
G36*
X205500Y181445D02*
X205500Y177599D01*
X209347Y177599D01*
X209262Y178241D01*
X208822Y179305D01*
X208120Y180219D01*
X207206Y180920D01*
X206142Y181361D01*
X205500Y181445D01*
D02*
G37*
G36*
X204500Y181445D02*
X203858Y181361D01*
X202794Y180920D01*
X201880Y180219D01*
X201179Y179305D01*
X200738Y178240D01*
X200653Y177598D01*
X204500Y177598D01*
X204500Y181445D01*
D02*
G37*
G36*
X126900Y181847D02*
X125964Y181661D01*
X125170Y181130D01*
X124639Y180336D01*
X124453Y179400D01*
X124639Y178464D01*
X125170Y177670D01*
X125964Y177139D01*
X126900Y176953D01*
X127836Y177139D01*
X128630Y177670D01*
X129161Y178464D01*
X129347Y179400D01*
X129161Y180336D01*
X128630Y181130D01*
X127836Y181661D01*
X126900Y181847D01*
D02*
G37*
G36*
X45500Y177847D02*
X44564Y177661D01*
X43770Y177130D01*
X43239Y176336D01*
X43053Y175400D01*
X43239Y174464D01*
X43770Y173670D01*
X44564Y173139D01*
X45500Y172953D01*
X46436Y173139D01*
X47230Y173670D01*
X47761Y174464D01*
X47947Y175400D01*
X47761Y176336D01*
X47230Y177130D01*
X46436Y177661D01*
X45500Y177847D01*
D02*
G37*
G36*
X295000Y181313D02*
X293910Y181169D01*
X292895Y180748D01*
X292022Y180079D01*
X291353Y179207D01*
X290933Y178191D01*
X290789Y177101D01*
X290933Y176012D01*
X291353Y174996D01*
X292023Y174124D01*
X292895Y173455D01*
X293910Y173034D01*
X295000Y172890D01*
X296090Y173034D01*
X297106Y173455D01*
X297978Y174124D01*
X298647Y174996D01*
X299068Y176012D01*
X299211Y177102D01*
X299068Y178192D01*
X298647Y179207D01*
X297978Y180079D01*
X297106Y180748D01*
X296090Y181169D01*
X295000Y181313D01*
D02*
G37*
G36*
X289347Y176601D02*
X285500Y176601D01*
X285500Y172754D01*
X286142Y172839D01*
X287207Y173280D01*
X288121Y173981D01*
X288822Y174895D01*
X289263Y175959D01*
X289347Y176601D01*
D02*
G37*
G36*
X284500Y176601D02*
X280653Y176601D01*
X280738Y175959D01*
X281179Y174895D01*
X281880Y173981D01*
X282794Y173280D01*
X283858Y172839D01*
X284500Y172754D01*
X284500Y176601D01*
D02*
G37*
G36*
X279347Y176601D02*
X275500Y176601D01*
X275500Y172754D01*
X276142Y172838D01*
X277207Y173279D01*
X278121Y173981D01*
X278822Y174895D01*
X279263Y175959D01*
X279347Y176601D01*
D02*
G37*
G36*
X224500Y176599D02*
X220653Y176599D01*
X220738Y175957D01*
X221179Y174893D01*
X221880Y173979D01*
X222794Y173277D01*
X223858Y172837D01*
X224500Y172752D01*
X224500Y176599D01*
D02*
G37*
G36*
X219347Y176599D02*
X215500Y176599D01*
X215500Y172752D01*
X216142Y172836D01*
X217207Y173277D01*
X218121Y173979D01*
X218822Y174892D01*
X219263Y175957D01*
X219347Y176599D01*
D02*
G37*
G36*
X214500Y176599D02*
X210653Y176599D01*
X210738Y175956D01*
X211179Y174892D01*
X211880Y173978D01*
X212794Y173277D01*
X213858Y172836D01*
X214500Y172752D01*
X214500Y176599D01*
D02*
G37*
G36*
X209347Y176599D02*
X205500Y176599D01*
X205500Y172751D01*
X206142Y172836D01*
X207207Y173277D01*
X208121Y173978D01*
X208822Y174892D01*
X209263Y175956D01*
X209347Y176599D01*
D02*
G37*
G36*
X204500Y176598D02*
X200653Y176598D01*
X200738Y175956D01*
X201179Y174892D01*
X201880Y173978D01*
X202794Y173277D01*
X203858Y172836D01*
X204500Y172751D01*
X204500Y176598D01*
D02*
G37*
G36*
X40000Y176147D02*
X39064Y175961D01*
X38270Y175430D01*
X37739Y174636D01*
X37553Y173700D01*
X37739Y172764D01*
X38270Y171970D01*
X39064Y171439D01*
X40000Y171253D01*
X40936Y171439D01*
X41730Y171970D01*
X42261Y172764D01*
X42447Y173700D01*
X42261Y174636D01*
X41730Y175430D01*
X40936Y175961D01*
X40000Y176147D01*
D02*
G37*
G36*
X119894Y179100D02*
X111500D01*
Y170706D01*
X112745Y170829D01*
X114422Y171338D01*
X115969Y172164D01*
X117324Y173276D01*
X118436Y174632D01*
X119262Y176178D01*
X119771Y177855D01*
X119894Y179100D01*
D02*
G37*
G36*
X24303Y171608D02*
X23624Y171519D01*
X22992Y171257D01*
X22449Y170840D01*
X22032Y170297D01*
X21770Y169665D01*
X21681Y168986D01*
X21770Y168307D01*
X22032Y167675D01*
X22449Y167131D01*
X22992Y166715D01*
X23624Y166453D01*
X24303Y166363D01*
X24982Y166453D01*
X25614Y166715D01*
X26158Y167131D01*
X26574Y167675D01*
X26836Y168307D01*
X26926Y168986D01*
X26836Y169665D01*
X26574Y170297D01*
X26158Y170840D01*
X25614Y171257D01*
X24982Y171519D01*
X24303Y171608D01*
D02*
G37*
G36*
X36000Y168047D02*
X35064Y167861D01*
X34270Y167330D01*
X33739Y166536D01*
X33623Y165954D01*
X27635Y159965D01*
X27370Y159568D01*
X27277Y159100D01*
Y146169D01*
X26770Y145830D01*
X26239Y145036D01*
X26053Y144100D01*
X26239Y143164D01*
X26770Y142370D01*
X27564Y141839D01*
X28500Y141653D01*
X29436Y141839D01*
X30230Y142370D01*
X30761Y143164D01*
X30947Y144100D01*
X30761Y145036D01*
X30230Y145830D01*
X29724Y146169D01*
Y158593D01*
X34707Y163577D01*
X35064Y163339D01*
X36000Y163153D01*
X36936Y163339D01*
X37730Y163870D01*
X38261Y164664D01*
X38447Y165600D01*
X38261Y166536D01*
X37730Y167330D01*
X36936Y167861D01*
X36000Y168047D01*
D02*
G37*
G36*
X196900Y191647D02*
X195964Y191461D01*
X195170Y190930D01*
X194639Y190136D01*
X194453Y189200D01*
X194639Y188264D01*
X195170Y187470D01*
X195677Y187131D01*
Y183700D01*
X195770Y183232D01*
X196035Y182835D01*
X197177Y181693D01*
Y179447D01*
X196335Y178605D01*
X196070Y178208D01*
X195976Y177740D01*
Y161879D01*
X196070Y161411D01*
X196335Y161014D01*
X197157Y160192D01*
X196936Y159743D01*
X196699Y159774D01*
X195205Y159577D01*
X193812Y159000D01*
X193016Y158390D01*
X197054Y154354D01*
X196700Y154000D01*
X197054Y153647D01*
X193018Y149609D01*
X193814Y148999D01*
X195206Y148422D01*
X196701Y148226D01*
X196912Y148254D01*
X197202Y147787D01*
X197070Y147589D01*
X196976Y147121D01*
Y119174D01*
X197070Y118705D01*
X197335Y118308D01*
X198576Y117067D01*
Y109133D01*
X196335Y106892D01*
X196070Y106495D01*
X195976Y106026D01*
Y104125D01*
X196070Y103657D01*
X196335Y103260D01*
X197677Y101919D01*
Y73585D01*
X197770Y73117D01*
X198035Y72720D01*
X199239Y71516D01*
Y65540D01*
X199332Y65072D01*
X199598Y64675D01*
X202276Y61996D01*
Y58169D01*
X201770Y57830D01*
X201239Y57036D01*
X201053Y56100D01*
X201239Y55164D01*
X201770Y54370D01*
X202564Y53839D01*
X203500Y53653D01*
X204436Y53839D01*
X205230Y54370D01*
X205761Y55164D01*
X205947Y56100D01*
X205761Y57036D01*
X205230Y57830D01*
X204724Y58169D01*
Y62503D01*
X204630Y62971D01*
X204365Y63368D01*
X203856Y63877D01*
X204002Y64355D01*
X204236Y64402D01*
X205030Y64933D01*
X205561Y65726D01*
X205747Y66663D01*
X205679Y67006D01*
X206081Y67548D01*
X206636Y67659D01*
X206836Y67792D01*
X207277Y67556D01*
Y46107D01*
X205614Y44444D01*
X205600Y44447D01*
X204664Y44261D01*
X203870Y43730D01*
X203339Y42936D01*
X203153Y42000D01*
X203339Y41064D01*
X203870Y40270D01*
X204664Y39739D01*
X205600Y39553D01*
X206536Y39739D01*
X207330Y40270D01*
X207861Y41064D01*
X208047Y42000D01*
X207861Y42936D01*
X207743Y43113D01*
X208815Y44184D01*
X209277Y43993D01*
Y35607D01*
X205487Y31817D01*
X204928Y31706D01*
X204134Y31176D01*
X203604Y30382D01*
X203417Y29445D01*
X203604Y28509D01*
X204134Y27715D01*
X204928Y27185D01*
X205864Y26998D01*
X206801Y27185D01*
X207595Y27715D01*
X208125Y28509D01*
X208311Y29445D01*
X208125Y30382D01*
X207879Y30749D01*
X211365Y34235D01*
X211630Y34632D01*
X211723Y35100D01*
Y38493D01*
X212185Y38684D01*
X215623Y35246D01*
X215739Y34664D01*
X216270Y33870D01*
X217064Y33339D01*
X218000Y33153D01*
X218936Y33339D01*
X219730Y33870D01*
X220261Y34664D01*
X220447Y35600D01*
X220261Y36536D01*
X219730Y37330D01*
X218936Y37861D01*
X218000Y38047D01*
X217064Y37861D01*
X216707Y37623D01*
X213723Y40607D01*
Y69093D01*
X217365Y72735D01*
X217630Y73132D01*
X217723Y73600D01*
Y96531D01*
X218230Y96870D01*
X218761Y97664D01*
X218814Y97932D01*
X219340Y98013D01*
X219770Y97370D01*
X220564Y96839D01*
X221500Y96653D01*
X222436Y96839D01*
X223230Y97370D01*
X223761Y98164D01*
X223947Y99100D01*
X223761Y100036D01*
X223230Y100830D01*
X222436Y101361D01*
X221500Y101547D01*
X220564Y101361D01*
X219770Y100830D01*
X219239Y100036D01*
X219186Y99768D01*
X218660Y99687D01*
X218230Y100330D01*
X217436Y100861D01*
X216500Y101047D01*
X215564Y100861D01*
X215224Y100634D01*
X214723Y100901D01*
Y101593D01*
X215365Y102235D01*
X215630Y102632D01*
X215723Y103100D01*
Y110100D01*
X215630Y110568D01*
X215365Y110965D01*
X211723Y114607D01*
Y141093D01*
X214865Y144235D01*
X215130Y144632D01*
X215224Y145100D01*
Y151531D01*
X215730Y151870D01*
X216261Y152664D01*
X216447Y153600D01*
X216261Y154536D01*
X215730Y155330D01*
X214936Y155861D01*
X214000Y156047D01*
X213064Y155861D01*
X212270Y155330D01*
X211739Y154536D01*
X211553Y153600D01*
X211739Y152664D01*
X212270Y151870D01*
X212776Y151531D01*
Y145607D01*
X209635Y142465D01*
X209370Y142068D01*
X209277Y141600D01*
Y114100D01*
X209370Y113632D01*
X209635Y113235D01*
X213277Y109593D01*
Y103607D01*
X212635Y102965D01*
X212370Y102568D01*
X212277Y102100D01*
Y100901D01*
X211776Y100634D01*
X211436Y100861D01*
X210500Y101047D01*
X209564Y100861D01*
X208770Y100330D01*
X208239Y99536D01*
X208053Y98600D01*
X208239Y97664D01*
X208770Y96870D01*
X209277Y96531D01*
Y95107D01*
X207755Y93585D01*
X207294Y93832D01*
X207447Y94600D01*
X207261Y95536D01*
X206730Y96330D01*
X205936Y96861D01*
X205000Y97047D01*
X204064Y96861D01*
X203270Y96330D01*
X202739Y95536D01*
X202553Y94600D01*
X202672Y94002D01*
X202135Y93465D01*
X201870Y93068D01*
X201777Y92600D01*
Y88600D01*
X201870Y88132D01*
X202135Y87735D01*
X204377Y85493D01*
Y84564D01*
X204370Y84553D01*
X204276Y84085D01*
Y79115D01*
X204370Y78646D01*
X204377Y78636D01*
Y76163D01*
X203876Y76012D01*
X203730Y76230D01*
X202936Y76761D01*
X202000Y76947D01*
X201064Y76761D01*
X200623Y76467D01*
X200124Y76734D01*
Y102426D01*
X200030Y102894D01*
X199765Y103291D01*
X198424Y104632D01*
Y105520D01*
X200665Y107761D01*
X200930Y108158D01*
X201024Y108626D01*
Y114237D01*
X201465Y114472D01*
X201664Y114339D01*
X202600Y114153D01*
X203536Y114339D01*
X204085Y114706D01*
X204446Y114346D01*
X204239Y114036D01*
X204053Y113100D01*
X204239Y112164D01*
X204770Y111370D01*
X205564Y110839D01*
X206500Y110653D01*
X207436Y110839D01*
X208230Y111370D01*
X208761Y112164D01*
X208947Y113100D01*
X208761Y114036D01*
X208230Y114830D01*
X208224Y114835D01*
Y154031D01*
X208730Y154370D01*
X209261Y155164D01*
X209447Y156100D01*
X209261Y157036D01*
X208730Y157830D01*
X207936Y158361D01*
X207000Y158547D01*
X206064Y158361D01*
X205270Y157830D01*
X204739Y157036D01*
X204553Y156100D01*
X204739Y155164D01*
X205270Y154370D01*
X205777Y154031D01*
Y115403D01*
X205564Y115361D01*
X205015Y114994D01*
X204654Y115355D01*
X204861Y115664D01*
X205047Y116600D01*
X204861Y117536D01*
X204330Y118330D01*
X203536Y118861D01*
X202600Y119047D01*
X201664Y118861D01*
X200870Y118330D01*
X200479Y118625D01*
X199424Y119680D01*
Y146614D01*
X203490Y150681D01*
X203755Y151078D01*
X203849Y151546D01*
Y156454D01*
X203755Y156922D01*
X203490Y157319D01*
X198424Y162386D01*
Y177233D01*
X199265Y178075D01*
X199530Y178472D01*
X199624Y178940D01*
Y182200D01*
X199530Y182668D01*
X199265Y183065D01*
X198124Y184207D01*
Y187131D01*
X198630Y187470D01*
X199161Y188264D01*
X199347Y189200D01*
X199161Y190136D01*
X198630Y190930D01*
X197836Y191461D01*
X196900Y191647D01*
D02*
G37*
G36*
X192309Y157682D02*
X191699Y156886D01*
X191122Y155494D01*
X190926Y153999D01*
X191123Y152505D01*
X191700Y151112D01*
X192310Y150316D01*
X195993Y154000D01*
X192309Y157682D01*
D02*
G37*
G36*
X88000Y154047D02*
X87064Y153861D01*
X86270Y153330D01*
X85739Y152536D01*
X85553Y151600D01*
X85739Y150664D01*
X86270Y149870D01*
X87064Y149339D01*
X88000Y149153D01*
X88936Y149339D01*
X89730Y149870D01*
X90261Y150664D01*
X90447Y151600D01*
X90261Y152536D01*
X89730Y153330D01*
X88936Y153861D01*
X88000Y154047D01*
D02*
G37*
G36*
X84500Y201347D02*
X83564Y201161D01*
X82770Y200630D01*
X82239Y199836D01*
X82053Y198900D01*
X82207Y198124D01*
X81911Y197624D01*
X68000D01*
X67532Y197530D01*
X67135Y197265D01*
X63635Y193765D01*
X63370Y193368D01*
X63276Y192900D01*
Y190969D01*
X62770Y190630D01*
X62239Y189836D01*
X62053Y188900D01*
X62239Y187964D01*
X62770Y187170D01*
X63564Y186639D01*
X63848Y186583D01*
X64174Y186008D01*
X64053Y185400D01*
X64239Y184464D01*
X64770Y183670D01*
X65564Y183139D01*
X66500Y182953D01*
X67436Y183139D01*
X68230Y183670D01*
X68761Y184464D01*
X68869Y185006D01*
X69369Y184957D01*
Y180531D01*
X63296D01*
X63230Y180630D01*
X62436Y181161D01*
X61500Y181347D01*
X60564Y181161D01*
X59770Y180630D01*
X59239Y179836D01*
X59053Y178900D01*
X59076Y178783D01*
X56924Y176631D01*
X55300D01*
X54676Y176507D01*
X54146Y176154D01*
X45746Y167754D01*
X45393Y167224D01*
X45269Y166600D01*
Y164839D01*
X44769Y164572D01*
X44336Y164861D01*
X43400Y165047D01*
X42464Y164861D01*
X41670Y164330D01*
X41139Y163536D01*
X40953Y162600D01*
X41139Y161664D01*
X41670Y160870D01*
X42464Y160339D01*
X43400Y160153D01*
X44336Y160339D01*
X44969Y160762D01*
X45461Y160548D01*
X45469Y160540D01*
Y154269D01*
X45028Y154033D01*
X44836Y154161D01*
X43900Y154347D01*
X42964Y154161D01*
X42459Y153823D01*
X37000D01*
X36532Y153730D01*
X36135Y153465D01*
X33635Y150965D01*
X33370Y150568D01*
X33277Y150100D01*
Y146169D01*
X32770Y145830D01*
X32239Y145036D01*
X32053Y144100D01*
X32239Y143164D01*
X32770Y142370D01*
X33564Y141839D01*
X34500Y141653D01*
X35436Y141839D01*
X36230Y142370D01*
X36761Y143164D01*
X36947Y144100D01*
X36761Y145036D01*
X36230Y145830D01*
X35724Y146169D01*
Y149593D01*
X37507Y151376D01*
X41557D01*
X41639Y150964D01*
X42170Y150170D01*
X42964Y149639D01*
X43900Y149453D01*
X44769Y149626D01*
X45058Y149521D01*
X45269Y149408D01*
Y141100D01*
X45393Y140476D01*
X45746Y139946D01*
X51157Y134535D01*
X50910Y134086D01*
X50100Y134247D01*
X49164Y134061D01*
X48370Y133530D01*
X47839Y132736D01*
X47653Y131800D01*
X47839Y130864D01*
X48370Y130070D01*
X49164Y129539D01*
X50100Y129353D01*
X51036Y129539D01*
X51369Y129761D01*
X51869Y129494D01*
Y124275D01*
X51369Y124123D01*
X51230Y124330D01*
X50436Y124861D01*
X49500Y125047D01*
X48564Y124861D01*
X47770Y124330D01*
X47239Y123536D01*
X47053Y122600D01*
X47239Y121664D01*
X47770Y120870D01*
X48276Y120531D01*
Y103107D01*
X17635Y72465D01*
X17370Y72068D01*
X17277Y71600D01*
Y43169D01*
X16770Y42830D01*
X16239Y42036D01*
X16053Y41100D01*
X16239Y40164D01*
X16770Y39370D01*
X17564Y38839D01*
X18500Y38653D01*
X19436Y38839D01*
X20230Y39370D01*
X20761Y40164D01*
X20947Y41100D01*
X20761Y42036D01*
X20230Y42830D01*
X19724Y43169D01*
Y71093D01*
X50365Y101735D01*
X50630Y102132D01*
X50723Y102600D01*
Y120531D01*
X51230Y120870D01*
X51369Y121077D01*
X51869Y120925D01*
Y107100D01*
X51993Y106476D01*
X52346Y105947D01*
X54461Y103832D01*
X54770Y103370D01*
X55232Y103061D01*
X59369Y98924D01*
Y57776D01*
X56774Y55181D01*
X56313Y55427D01*
X56447Y56100D01*
X56328Y56698D01*
X56865Y57235D01*
X57130Y57632D01*
X57223Y58100D01*
Y78100D01*
X57130Y78568D01*
X56865Y78965D01*
X53328Y82502D01*
X53447Y83100D01*
X53261Y84036D01*
X52730Y84830D01*
X51936Y85361D01*
X51000Y85547D01*
X50064Y85361D01*
X49270Y84830D01*
X48739Y84036D01*
X48553Y83100D01*
X48672Y82502D01*
X37635Y71465D01*
X37370Y71068D01*
X37277Y70600D01*
Y40669D01*
X36770Y40330D01*
X36239Y39536D01*
X36053Y38600D01*
X36239Y37664D01*
X36770Y36870D01*
X37564Y36339D01*
X38500Y36153D01*
X39436Y36339D01*
X40230Y36870D01*
X40761Y37664D01*
X40947Y38600D01*
X40761Y39536D01*
X40230Y40330D01*
X39724Y40669D01*
Y70093D01*
X50402Y80772D01*
X51000Y80653D01*
X51598Y80772D01*
X54777Y77593D01*
Y58864D01*
X54328Y58482D01*
X54000Y58547D01*
X53064Y58361D01*
X52270Y57830D01*
X51739Y57036D01*
X51553Y56100D01*
X51739Y55164D01*
X52270Y54370D01*
X53064Y53839D01*
X54000Y53653D01*
X54545Y53762D01*
X54785Y53306D01*
X54540Y53039D01*
X54500Y53047D01*
X53564Y52861D01*
X52770Y52330D01*
X52239Y51536D01*
X52053Y50600D01*
X52239Y49664D01*
X52770Y48870D01*
X53564Y48339D01*
X54500Y48153D01*
X55436Y48339D01*
X56230Y48870D01*
X56761Y49664D01*
X56947Y50600D01*
X56924Y50717D01*
X59726Y53519D01*
X60187Y53273D01*
X60053Y52600D01*
X60239Y51664D01*
X60770Y50870D01*
X61564Y50339D01*
X62500Y50153D01*
X63268Y50306D01*
X63515Y49845D01*
X62098Y48428D01*
X61500Y48547D01*
X60564Y48361D01*
X59770Y47830D01*
X59239Y47036D01*
X59053Y46100D01*
X59239Y45164D01*
X59770Y44370D01*
X60564Y43839D01*
X61500Y43653D01*
X62436Y43839D01*
X63230Y44370D01*
X63761Y45164D01*
X63947Y46100D01*
X63828Y46698D01*
X70621Y53491D01*
X71082Y53244D01*
X71053Y53100D01*
X71239Y52164D01*
X71770Y51370D01*
X72564Y50839D01*
X73500Y50653D01*
X74436Y50839D01*
X75230Y51370D01*
X75761Y52164D01*
X75947Y53100D01*
X75761Y54036D01*
X75230Y54830D01*
X74436Y55361D01*
X73500Y55547D01*
X72564Y55361D01*
X71770Y54830D01*
X71724Y54761D01*
X71223Y54913D01*
Y59100D01*
X71130Y59568D01*
X70865Y59965D01*
X68723Y62107D01*
Y67593D01*
X70865Y69735D01*
X71130Y70132D01*
X71223Y70600D01*
Y101593D01*
X73468Y103838D01*
X73978Y103806D01*
X74270Y103370D01*
X75064Y102839D01*
X76000Y102653D01*
X76936Y102839D01*
X77730Y103370D01*
X78261Y104164D01*
X78369Y104706D01*
X78869Y104657D01*
Y92611D01*
X78369Y92308D01*
X78299Y92345D01*
X78261Y92536D01*
X77730Y93330D01*
X76936Y93861D01*
X76000Y94047D01*
X75064Y93861D01*
X74270Y93330D01*
X73739Y92536D01*
X73553Y91600D01*
X73739Y90664D01*
X74270Y89870D01*
X75064Y89339D01*
X76000Y89153D01*
X76390Y89231D01*
X76776Y88913D01*
Y63274D01*
X76500Y63047D01*
X75564Y62861D01*
X74770Y62330D01*
X74239Y61536D01*
X74053Y60600D01*
X74239Y59664D01*
X74770Y58870D01*
X75564Y58339D01*
X76500Y58153D01*
X77436Y58339D01*
X78230Y58870D01*
X78369Y59077D01*
X78869Y58925D01*
Y50100D01*
X78993Y49476D01*
X79347Y48946D01*
X88369Y39924D01*
Y36100D01*
Y13100D01*
X88493Y12476D01*
X88846Y11947D01*
X91546Y9246D01*
X92076Y8893D01*
X92700Y8769D01*
X103977D01*
X104146Y8269D01*
X103968Y8132D01*
X103399Y7390D01*
X103041Y6527D01*
X102919Y5600D01*
X103041Y4673D01*
X103399Y3810D01*
X103968Y3068D01*
X104710Y2499D01*
X105573Y2141D01*
X106500Y2019D01*
X107427Y2141D01*
X108290Y2499D01*
X109032Y3068D01*
X109601Y3810D01*
X109959Y4673D01*
X110081Y5600D01*
X109959Y6527D01*
X109601Y7390D01*
X109032Y8132D01*
X108854Y8269D01*
X109023Y8769D01*
X110826D01*
X111450Y8893D01*
X111979Y9246D01*
X113854Y11121D01*
X114207Y11650D01*
X114331Y12274D01*
Y13624D01*
X115383Y14676D01*
X115500Y14653D01*
X116436Y14839D01*
X117230Y15370D01*
X117761Y16164D01*
X117947Y17100D01*
X117761Y18036D01*
X117230Y18830D01*
X116436Y19361D01*
X115500Y19547D01*
X114564Y19361D01*
X113770Y18830D01*
X113239Y18036D01*
X113053Y17100D01*
X113076Y16983D01*
X111547Y15453D01*
X111193Y14924D01*
X111069Y14300D01*
Y12950D01*
X110150Y12031D01*
X93376D01*
X91631Y13776D01*
Y33432D01*
X92018Y33749D01*
X92500Y33653D01*
X93436Y33839D01*
X94230Y34370D01*
X94761Y35164D01*
X94947Y36100D01*
X94761Y37036D01*
X94230Y37830D01*
X93436Y38361D01*
X92500Y38547D01*
X92018Y38451D01*
X91631Y38768D01*
Y40600D01*
X91507Y41224D01*
X91154Y41754D01*
X82131Y50776D01*
Y94425D01*
X82631Y94577D01*
X82770Y94370D01*
X83564Y93839D01*
X84500Y93653D01*
X85436Y93839D01*
X86230Y94370D01*
X86761Y95164D01*
X86947Y96100D01*
X86761Y97036D01*
X86230Y97830D01*
X85436Y98361D01*
X84500Y98547D01*
X83564Y98361D01*
X82770Y97830D01*
X82631Y97623D01*
X82131Y97775D01*
Y105969D01*
X82704D01*
X82770Y105870D01*
X83564Y105339D01*
X84500Y105153D01*
X85436Y105339D01*
X86230Y105870D01*
X86761Y106664D01*
X86947Y107600D01*
X86761Y108536D01*
X86230Y109330D01*
X85436Y109861D01*
X84500Y110047D01*
X83564Y109861D01*
X82770Y109330D01*
X82704Y109231D01*
X82131D01*
Y149100D01*
X82007Y149724D01*
X81653Y150253D01*
X77431Y154476D01*
Y155224D01*
X77931Y155376D01*
X78270Y154870D01*
X79064Y154339D01*
X80000Y154153D01*
X80936Y154339D01*
X81730Y154870D01*
X82261Y155664D01*
X82447Y156600D01*
X82261Y157536D01*
X81730Y158330D01*
X80936Y158861D01*
X80000Y159047D01*
X79064Y158861D01*
X78760Y158658D01*
X78298Y158849D01*
X78261Y159036D01*
X77730Y159830D01*
X77131Y160231D01*
Y177400D01*
X77007Y178024D01*
X76653Y178553D01*
X75153Y180053D01*
X74624Y180407D01*
X74000Y180531D01*
X72631D01*
Y188900D01*
X72507Y189524D01*
X72154Y190053D01*
X71924Y190283D01*
X71947Y190400D01*
X71761Y191336D01*
X71230Y192130D01*
X70436Y192661D01*
X69500Y192847D01*
X68564Y192661D01*
X67770Y192130D01*
X67239Y191336D01*
X67053Y190400D01*
X67082Y190256D01*
X66611Y190061D01*
X66230Y190630D01*
X65724Y190969D01*
Y192393D01*
X68507Y195176D01*
X83276D01*
Y160100D01*
X83370Y159632D01*
X83635Y159235D01*
X87635Y155235D01*
X88032Y154970D01*
X88500Y154876D01*
X104993D01*
X108172Y151698D01*
X108053Y151100D01*
X108239Y150164D01*
X108770Y149370D01*
X109564Y148839D01*
X110500Y148653D01*
X111436Y148839D01*
X112230Y149370D01*
X112761Y150164D01*
X112947Y151100D01*
X112761Y152036D01*
X112230Y152830D01*
X111436Y153361D01*
X110500Y153547D01*
X109902Y153428D01*
X106365Y156965D01*
X105968Y157230D01*
X105500Y157324D01*
X89007D01*
X85724Y160607D01*
Y196400D01*
Y196831D01*
X86230Y197170D01*
X86761Y197964D01*
X86947Y198900D01*
X86761Y199836D01*
X86230Y200630D01*
X85436Y201161D01*
X84500Y201347D01*
D02*
G37*
G36*
X121500Y151547D02*
X120564Y151361D01*
X119770Y150830D01*
X119239Y150036D01*
X119053Y149100D01*
X119239Y148164D01*
X119770Y147370D01*
X120564Y146839D01*
X121500Y146653D01*
X122436Y146839D01*
X123230Y147370D01*
X123761Y148164D01*
X123947Y149100D01*
X123761Y150036D01*
X123230Y150830D01*
X122436Y151361D01*
X121500Y151547D01*
D02*
G37*
G36*
X9500Y147047D02*
X8564Y146861D01*
X7770Y146330D01*
X7239Y145536D01*
X7053Y144600D01*
X7239Y143664D01*
X7770Y142870D01*
X8564Y142339D01*
X9500Y142153D01*
X10436Y142339D01*
X11230Y142870D01*
X11761Y143664D01*
X11947Y144600D01*
X11761Y145536D01*
X11230Y146330D01*
X10436Y146861D01*
X9500Y147047D01*
D02*
G37*
G36*
X22000Y146547D02*
X21064Y146361D01*
X20270Y145830D01*
X19739Y145036D01*
X19553Y144100D01*
X19739Y143164D01*
X20270Y142370D01*
X21064Y141839D01*
X22000Y141653D01*
X22936Y141839D01*
X23730Y142370D01*
X24261Y143164D01*
X24447Y144100D01*
X24261Y145036D01*
X23730Y145830D01*
X22936Y146361D01*
X22000Y146547D01*
D02*
G37*
G36*
X39900Y146047D02*
X38964Y145861D01*
X38170Y145330D01*
X37639Y144536D01*
X37453Y143600D01*
X37639Y142664D01*
X38170Y141870D01*
X38964Y141339D01*
X39900Y141153D01*
X40836Y141339D01*
X41630Y141870D01*
X42161Y142664D01*
X42347Y143600D01*
X42161Y144536D01*
X41630Y145330D01*
X40836Y145861D01*
X39900Y146047D01*
D02*
G37*
G36*
X103000Y142547D02*
X102064Y142361D01*
X101270Y141830D01*
X100739Y141036D01*
X100553Y140100D01*
X100739Y139164D01*
X101270Y138370D01*
X102064Y137839D01*
X103000Y137653D01*
X103936Y137839D01*
X104730Y138370D01*
X105261Y139164D01*
X105447Y140100D01*
X105261Y141036D01*
X104730Y141830D01*
X103936Y142361D01*
X103000Y142547D01*
D02*
G37*
G36*
X44657Y135347D02*
X43721Y135161D01*
X42927Y134630D01*
X42588Y134124D01*
X38628D01*
X38468Y134230D01*
X38000Y134324D01*
X37532Y134230D01*
X37135Y133965D01*
X34635Y131465D01*
X34370Y131068D01*
X34277Y130600D01*
Y97669D01*
X33770Y97330D01*
X33239Y96536D01*
X33053Y95600D01*
X33239Y94664D01*
X33770Y93870D01*
X34564Y93339D01*
X35500Y93153D01*
X36436Y93339D01*
X37230Y93870D01*
X37761Y94664D01*
X37947Y95600D01*
X37761Y96536D01*
X37230Y97330D01*
X36724Y97669D01*
Y130093D01*
X38307Y131676D01*
X42588D01*
X42927Y131170D01*
X43721Y130639D01*
X44657Y130453D01*
X45594Y130639D01*
X46387Y131170D01*
X46918Y131964D01*
X47104Y132900D01*
X46918Y133836D01*
X46387Y134630D01*
X45594Y135161D01*
X44657Y135347D01*
D02*
G37*
G36*
X93700Y134947D02*
X92764Y134761D01*
X91970Y134230D01*
X91439Y133436D01*
X91253Y132500D01*
X91439Y131564D01*
X91970Y130770D01*
X92764Y130239D01*
X93700Y130053D01*
X94636Y130239D01*
X95430Y130770D01*
X95961Y131564D01*
X96147Y132500D01*
X95961Y133436D01*
X95430Y134230D01*
X94636Y134761D01*
X93700Y134947D01*
D02*
G37*
G36*
X124000Y124047D02*
X123064Y123861D01*
X122270Y123330D01*
X121739Y122536D01*
X121553Y121600D01*
X121739Y120664D01*
X122270Y119870D01*
X123064Y119339D01*
X124000Y119153D01*
X124936Y119339D01*
X125730Y119870D01*
X126261Y120664D01*
X126447Y121600D01*
X126261Y122536D01*
X125730Y123330D01*
X124936Y123861D01*
X124000Y124047D01*
D02*
G37*
G36*
X111000Y145047D02*
X110064Y144861D01*
X109270Y144330D01*
X108739Y143536D01*
X108553Y142600D01*
X108739Y141664D01*
X109270Y140870D01*
X109776Y140531D01*
Y122600D01*
X109870Y122132D01*
X110135Y121735D01*
X112635Y119235D01*
X113032Y118970D01*
X113500Y118877D01*
X117500D01*
X117506Y118878D01*
X117564Y118839D01*
X118500Y118653D01*
X119436Y118839D01*
X120230Y119370D01*
X120761Y120164D01*
X120947Y121100D01*
X120761Y122036D01*
X120230Y122830D01*
X119436Y123361D01*
X118500Y123547D01*
X117564Y123361D01*
X116770Y122830D01*
X116239Y122036D01*
X116097Y121324D01*
X114007D01*
X112223Y123107D01*
Y140531D01*
X112730Y140870D01*
X113261Y141664D01*
X113447Y142600D01*
X113261Y143536D01*
X112730Y144330D01*
X111936Y144861D01*
X111000Y145047D01*
D02*
G37*
G36*
X101000Y133047D02*
X100064Y132861D01*
X99270Y132330D01*
X98739Y131536D01*
X98553Y130600D01*
X98739Y129664D01*
X99270Y128870D01*
X99777Y128531D01*
Y116607D01*
X99098Y115928D01*
X98500Y116047D01*
X97564Y115861D01*
X96770Y115330D01*
X96239Y114536D01*
X96053Y113600D01*
X96239Y112664D01*
X96770Y111870D01*
X97277Y111531D01*
Y88100D01*
X97370Y87632D01*
X97635Y87235D01*
X99277Y85593D01*
Y73607D01*
X86598Y60928D01*
X86000Y61047D01*
X85064Y60861D01*
X84270Y60330D01*
X83739Y59536D01*
X83553Y58600D01*
X83739Y57664D01*
X84270Y56870D01*
X84913Y56440D01*
X84832Y55914D01*
X84564Y55861D01*
X83770Y55330D01*
X83239Y54536D01*
X83053Y53600D01*
X83239Y52664D01*
X83770Y51870D01*
X84564Y51339D01*
X85500Y51153D01*
X86436Y51339D01*
X87230Y51870D01*
X87761Y52664D01*
X87947Y53600D01*
X87794Y54368D01*
X88255Y54615D01*
X96776Y46093D01*
Y37669D01*
X96270Y37330D01*
X95739Y36536D01*
X95553Y35600D01*
X95672Y35002D01*
X95135Y34465D01*
X94870Y34068D01*
X94776Y33600D01*
Y18600D01*
X94870Y18132D01*
X95135Y17735D01*
X98635Y14235D01*
X99032Y13970D01*
X99500Y13877D01*
X100931D01*
X101270Y13370D01*
X102064Y12839D01*
X103000Y12653D01*
X103936Y12839D01*
X104730Y13370D01*
X105261Y14164D01*
X105447Y15100D01*
X105261Y16036D01*
X104730Y16830D01*
X103936Y17361D01*
X103000Y17547D01*
X102064Y17361D01*
X101270Y16830D01*
X100931Y16323D01*
X100007D01*
X97224Y19107D01*
Y32836D01*
X97672Y33218D01*
X98000Y33153D01*
X98936Y33339D01*
X99730Y33870D01*
X100261Y34664D01*
X100447Y35600D01*
X100261Y36536D01*
X99730Y37330D01*
X99224Y37669D01*
Y46600D01*
X99130Y47068D01*
X98865Y47465D01*
X88328Y58002D01*
X88447Y58600D01*
X88328Y59198D01*
X101365Y72235D01*
X101630Y72632D01*
X101724Y73100D01*
Y85011D01*
X102224Y85307D01*
X103000Y85153D01*
X103936Y85339D01*
X104730Y85870D01*
X105261Y86664D01*
X105447Y87600D01*
X105261Y88536D01*
X104730Y89330D01*
X103936Y89861D01*
X103000Y90047D01*
X102064Y89861D01*
X101270Y89330D01*
X100739Y88536D01*
X100700Y88338D01*
X100157Y88173D01*
X99724Y88607D01*
Y111531D01*
X100230Y111870D01*
X100761Y112664D01*
X100947Y113600D01*
X100828Y114198D01*
X101865Y115235D01*
X102130Y115632D01*
X102224Y116100D01*
Y128531D01*
X102730Y128870D01*
X103261Y129664D01*
X103447Y130600D01*
X103261Y131536D01*
X102730Y132330D01*
X101936Y132861D01*
X101000Y133047D01*
D02*
G37*
G36*
X131000Y117047D02*
X130064Y116861D01*
X129270Y116330D01*
X128739Y115536D01*
X128553Y114600D01*
X128739Y113664D01*
X129270Y112870D01*
X130064Y112339D01*
X131000Y112153D01*
X131936Y112339D01*
X132730Y112870D01*
X133261Y113664D01*
X133447Y114600D01*
X133261Y115536D01*
X132730Y116330D01*
X131936Y116861D01*
X131000Y117047D01*
D02*
G37*
G36*
X123000Y107547D02*
X122064Y107361D01*
X121270Y106830D01*
X120739Y106036D01*
X120553Y105100D01*
X120739Y104164D01*
X121270Y103370D01*
X122064Y102839D01*
X123000Y102653D01*
X123936Y102839D01*
X124730Y103370D01*
X125261Y104164D01*
X125447Y105100D01*
X125261Y106036D01*
X124730Y106830D01*
X123936Y107361D01*
X123000Y107547D01*
D02*
G37*
G36*
X117000Y106547D02*
X116064Y106361D01*
X115270Y105830D01*
X114739Y105036D01*
X114553Y104100D01*
X114739Y103164D01*
X115270Y102370D01*
X116064Y101839D01*
X117000Y101653D01*
X117936Y101839D01*
X118730Y102370D01*
X119261Y103164D01*
X119447Y104100D01*
X119261Y105036D01*
X118730Y105830D01*
X117936Y106361D01*
X117000Y106547D01*
D02*
G37*
G36*
X92000Y106047D02*
X91064Y105861D01*
X90270Y105330D01*
X89739Y104536D01*
X89553Y103600D01*
X89739Y102664D01*
X90270Y101870D01*
X91064Y101339D01*
X92000Y101153D01*
X92936Y101339D01*
X93730Y101870D01*
X94261Y102664D01*
X94447Y103600D01*
X94261Y104536D01*
X93730Y105330D01*
X92936Y105861D01*
X92000Y106047D01*
D02*
G37*
G36*
X14700Y105830D02*
X13969Y105734D01*
X13288Y105452D01*
X12703Y105003D01*
X12254Y104418D01*
X11972Y103737D01*
X11876Y103006D01*
X11972Y102275D01*
X12254Y101594D01*
X12703Y101009D01*
X13288Y100560D01*
X13969Y100278D01*
X14700Y100182D01*
X15431Y100278D01*
X16112Y100560D01*
X16697Y101009D01*
X17146Y101594D01*
X17428Y102275D01*
X17524Y103006D01*
X17428Y103737D01*
X17145Y104418D01*
X16697Y105003D01*
X16112Y105452D01*
X15431Y105734D01*
X14700Y105830D01*
D02*
G37*
G36*
X172500Y96547D02*
X171564Y96361D01*
X170770Y95830D01*
X170239Y95036D01*
X170053Y94100D01*
X170239Y93164D01*
X170770Y92370D01*
X171564Y91839D01*
X172500Y91653D01*
X173436Y91839D01*
X174230Y92370D01*
X174761Y93164D01*
X174947Y94100D01*
X174761Y95036D01*
X174230Y95830D01*
X173436Y96361D01*
X172500Y96547D01*
D02*
G37*
G36*
X14700Y93925D02*
X13969Y93828D01*
X13288Y93546D01*
X12703Y93097D01*
X12254Y92513D01*
X11972Y91831D01*
X11876Y91100D01*
X11972Y90369D01*
X12254Y89688D01*
X12703Y89103D01*
X13288Y88655D01*
X13969Y88372D01*
X14700Y88276D01*
X15431Y88373D01*
X16112Y88655D01*
X16697Y89104D01*
X17146Y89688D01*
X17428Y90370D01*
X17524Y91101D01*
X17428Y91832D01*
X17146Y92513D01*
X16697Y93098D01*
X16112Y93546D01*
X15431Y93828D01*
X14700Y93925D01*
D02*
G37*
G36*
X126500Y89547D02*
X125564Y89361D01*
X124770Y88830D01*
X124239Y88036D01*
X124053Y87100D01*
X124239Y86164D01*
X124770Y85370D01*
X125564Y84839D01*
X126500Y84653D01*
X127180Y84788D01*
X127613Y84402D01*
X127553Y84100D01*
X127739Y83164D01*
X128270Y82370D01*
X129064Y81839D01*
X130000Y81653D01*
X130936Y81839D01*
X131730Y82370D01*
X132261Y83164D01*
X132447Y84100D01*
X132261Y85036D01*
X131730Y85830D01*
X130936Y86361D01*
X130000Y86547D01*
X129320Y86412D01*
X128887Y86798D01*
X128947Y87100D01*
X128761Y88036D01*
X128230Y88830D01*
X127436Y89361D01*
X126500Y89547D01*
D02*
G37*
G36*
X119000Y84047D02*
X118064Y83861D01*
X117270Y83330D01*
X116739Y82536D01*
X116553Y81600D01*
X116739Y80664D01*
X117270Y79870D01*
X118064Y79339D01*
X119000Y79153D01*
X119936Y79339D01*
X120730Y79870D01*
X121261Y80664D01*
X121447Y81600D01*
X121261Y82536D01*
X120730Y83330D01*
X119936Y83861D01*
X119000Y84047D01*
D02*
G37*
G36*
X31000Y109047D02*
X30064Y108861D01*
X29270Y108330D01*
X28739Y107536D01*
X28553Y106600D01*
X28739Y105664D01*
X29270Y104870D01*
X29776Y104531D01*
Y95607D01*
X12135Y77965D01*
X11870Y77568D01*
X11777Y77100D01*
Y75403D01*
X11564Y75361D01*
X10770Y74830D01*
X10239Y74036D01*
X10053Y73100D01*
X10239Y72164D01*
X10770Y71370D01*
X11564Y70839D01*
X12500Y70653D01*
X13436Y70839D01*
X14230Y71370D01*
X14761Y72164D01*
X14947Y73100D01*
X14761Y74036D01*
X14230Y74830D01*
X14223Y74835D01*
Y76593D01*
X31865Y94235D01*
X32130Y94632D01*
X32223Y95100D01*
Y104531D01*
X32730Y104870D01*
X33261Y105664D01*
X33447Y106600D01*
X33261Y107536D01*
X32730Y108330D01*
X31936Y108861D01*
X31000Y109047D01*
D02*
G37*
G36*
X44000Y62547D02*
X43064Y62361D01*
X42270Y61830D01*
X41739Y61036D01*
X41553Y60100D01*
X41739Y59164D01*
X42270Y58370D01*
X43064Y57839D01*
X44000Y57653D01*
X44936Y57839D01*
X45730Y58370D01*
X46261Y59164D01*
X46447Y60100D01*
X46261Y61036D01*
X45730Y61830D01*
X44936Y62361D01*
X44000Y62547D01*
D02*
G37*
G36*
X134000Y60047D02*
X133064Y59861D01*
X132270Y59330D01*
X131739Y58536D01*
X131553Y57600D01*
X131739Y56664D01*
X132270Y55870D01*
X133064Y55339D01*
X134000Y55153D01*
X134936Y55339D01*
X135730Y55870D01*
X136261Y56664D01*
X136447Y57600D01*
X136261Y58536D01*
X135730Y59330D01*
X134936Y59861D01*
X134000Y60047D01*
D02*
G37*
G36*
X126000Y70547D02*
X125064Y70361D01*
X124270Y69830D01*
X123739Y69036D01*
X123553Y68100D01*
X123739Y67164D01*
X124270Y66370D01*
X124294Y66124D01*
X114635Y56465D01*
X114370Y56068D01*
X114277Y55600D01*
Y47669D01*
X113770Y47330D01*
X113500Y46927D01*
X113000D01*
X112730Y47330D01*
X111936Y47861D01*
X111000Y48047D01*
X110064Y47861D01*
X109270Y47330D01*
X108739Y46536D01*
X108553Y45600D01*
X108739Y44664D01*
X109270Y43870D01*
X110064Y43339D01*
X111000Y43153D01*
X111936Y43339D01*
X112730Y43870D01*
X113000Y44273D01*
X113500D01*
X113770Y43870D01*
X114564Y43339D01*
X115500Y43153D01*
X116436Y43339D01*
X117230Y43870D01*
X117761Y44664D01*
X117947Y45600D01*
X117761Y46536D01*
X117230Y47330D01*
X116724Y47669D01*
Y55093D01*
X126865Y65235D01*
X127130Y65632D01*
X127208Y66021D01*
X127730Y66370D01*
X128261Y67164D01*
X128447Y68100D01*
X128261Y69036D01*
X127730Y69830D01*
X126936Y70361D01*
X126000Y70547D01*
D02*
G37*
G36*
X129000Y48047D02*
X128064Y47861D01*
X127270Y47330D01*
X126739Y46536D01*
X126553Y45600D01*
X126739Y44664D01*
X127270Y43870D01*
X128064Y43339D01*
X129000Y43153D01*
X129936Y43339D01*
X130730Y43870D01*
X131261Y44664D01*
X131447Y45600D01*
X131261Y46536D01*
X130730Y47330D01*
X129936Y47861D01*
X129000Y48047D01*
D02*
G37*
G36*
X225500Y47547D02*
X224564Y47361D01*
X223770Y46830D01*
X223239Y46036D01*
X223053Y45100D01*
X223239Y44164D01*
X223770Y43370D01*
X224564Y42839D01*
X225500Y42653D01*
X226436Y42839D01*
X227230Y43370D01*
X227761Y44164D01*
X227947Y45100D01*
X227761Y46036D01*
X227230Y46830D01*
X226436Y47361D01*
X225500Y47547D01*
D02*
G37*
G36*
X159500Y45547D02*
X158564Y45361D01*
X157770Y44830D01*
X157239Y44036D01*
X157053Y43100D01*
X157239Y42164D01*
X157770Y41370D01*
X158564Y40839D01*
X159500Y40653D01*
X160436Y40839D01*
X161230Y41370D01*
X161761Y42164D01*
X161947Y43100D01*
X161761Y44036D01*
X161230Y44830D01*
X160436Y45361D01*
X159500Y45547D01*
D02*
G37*
G36*
X281500Y41047D02*
X280564Y40861D01*
X279770Y40330D01*
X279239Y39536D01*
X279053Y38600D01*
X279239Y37664D01*
X279770Y36870D01*
X280564Y36339D01*
X281500Y36153D01*
X282436Y36339D01*
X283230Y36870D01*
X283761Y37664D01*
X283947Y38600D01*
X283761Y39536D01*
X283230Y40330D01*
X282436Y40861D01*
X281500Y41047D01*
D02*
G37*
G36*
X121500Y38047D02*
X120564Y37861D01*
X119770Y37330D01*
X119239Y36536D01*
X119053Y35600D01*
X119239Y34664D01*
X119770Y33870D01*
X120564Y33339D01*
X121500Y33153D01*
X122436Y33339D01*
X123230Y33870D01*
X123761Y34664D01*
X123947Y35600D01*
X123761Y36536D01*
X123230Y37330D01*
X122436Y37861D01*
X121500Y38047D01*
D02*
G37*
G36*
X250000Y37547D02*
X249064Y37361D01*
X248270Y36830D01*
X247739Y36036D01*
X247553Y35100D01*
X247739Y34164D01*
X248270Y33370D01*
X249064Y32839D01*
X250000Y32653D01*
X250936Y32839D01*
X251730Y33370D01*
X252261Y34164D01*
X252447Y35100D01*
X252261Y36036D01*
X251730Y36830D01*
X250936Y37361D01*
X250000Y37547D01*
D02*
G37*
G36*
X109500Y30547D02*
X108564Y30361D01*
X107770Y29830D01*
X107239Y29036D01*
X107053Y28100D01*
X107239Y27164D01*
X107770Y26370D01*
X108564Y25839D01*
X109500Y25653D01*
X110436Y25839D01*
X111230Y26370D01*
X111761Y27164D01*
X111947Y28100D01*
X111761Y29036D01*
X111230Y29830D01*
X110436Y30361D01*
X109500Y30547D01*
D02*
G37*
G36*
X32500Y81547D02*
X31564Y81361D01*
X30770Y80830D01*
X30239Y80036D01*
X30053Y79100D01*
X30239Y78164D01*
X30770Y77370D01*
X31277Y77031D01*
Y26607D01*
X29098Y24428D01*
X28500Y24547D01*
X27564Y24361D01*
X26770Y23830D01*
X26239Y23036D01*
X26053Y22100D01*
X26239Y21164D01*
X26770Y20370D01*
X27564Y19839D01*
X28500Y19653D01*
X29436Y19839D01*
X30230Y20370D01*
X30761Y21164D01*
X30947Y22100D01*
X30828Y22698D01*
X33365Y25235D01*
X33630Y25632D01*
X33724Y26100D01*
Y77031D01*
X34230Y77370D01*
X34761Y78164D01*
X34947Y79100D01*
X34761Y80036D01*
X34230Y80830D01*
X33436Y81361D01*
X32500Y81547D01*
D02*
G37*
G36*
X270700Y24347D02*
X269764Y24161D01*
X268970Y23630D01*
X268439Y22836D01*
X268253Y21900D01*
X268439Y20964D01*
X268970Y20170D01*
X269764Y19639D01*
X270700Y19453D01*
X271636Y19639D01*
X272430Y20170D01*
X272961Y20964D01*
X273147Y21900D01*
X272961Y22836D01*
X272430Y23630D01*
X271636Y24161D01*
X270700Y24347D01*
D02*
G37*
G36*
X104500Y23047D02*
X103564Y22861D01*
X102770Y22330D01*
X102239Y21536D01*
X102053Y20600D01*
X102239Y19664D01*
X102770Y18870D01*
X103564Y18339D01*
X104500Y18153D01*
X105436Y18339D01*
X106230Y18870D01*
X106761Y19664D01*
X106947Y20600D01*
X106761Y21536D01*
X106230Y22330D01*
X105436Y22861D01*
X104500Y23047D01*
D02*
G37*
G36*
X226500Y25494D02*
Y17100D01*
X234894D01*
X234771Y18345D01*
X234262Y20022D01*
X233436Y21568D01*
X232324Y22924D01*
X230968Y24036D01*
X229422Y24862D01*
X227745Y25371D01*
X226500Y25494D01*
D02*
G37*
G36*
X225500D02*
X224255Y25371D01*
X222578Y24862D01*
X221031Y24036D01*
X219676Y22924D01*
X218564Y21568D01*
X217738Y20022D01*
X217229Y18345D01*
X217106Y17100D01*
X225500D01*
Y25494D01*
D02*
G37*
G36*
X60500Y28047D02*
X59564Y27861D01*
X58770Y27330D01*
X58239Y26536D01*
X58053Y25600D01*
X58239Y24664D01*
X58770Y23870D01*
X59276Y23531D01*
Y20107D01*
X56098Y16928D01*
X55500Y17047D01*
X54564Y16861D01*
X53770Y16330D01*
X53239Y15536D01*
X53053Y14600D01*
X53239Y13664D01*
X53770Y12870D01*
X54564Y12339D01*
X55500Y12153D01*
X56436Y12339D01*
X57230Y12870D01*
X57761Y13664D01*
X57947Y14600D01*
X57828Y15198D01*
X61365Y18735D01*
X61630Y19132D01*
X61724Y19600D01*
Y23531D01*
X62230Y23870D01*
X62761Y24664D01*
X62947Y25600D01*
X62761Y26536D01*
X62230Y27330D01*
X61436Y27861D01*
X60500Y28047D01*
D02*
G37*
G36*
X77000Y44547D02*
X76064Y44361D01*
X75270Y43830D01*
X74739Y43036D01*
X74553Y42100D01*
X74739Y41164D01*
X75270Y40370D01*
X76064Y39839D01*
X76276Y39797D01*
Y18600D01*
X76370Y18132D01*
X76635Y17735D01*
X79135Y15235D01*
X79532Y14970D01*
X80000Y14876D01*
X81931D01*
X82270Y14370D01*
X83064Y13839D01*
X84000Y13653D01*
X84936Y13839D01*
X85730Y14370D01*
X86261Y15164D01*
X86447Y16100D01*
X86261Y17036D01*
X85730Y17830D01*
X84936Y18361D01*
X84000Y18547D01*
X83064Y18361D01*
X82270Y17830D01*
X81931Y17323D01*
X80507D01*
X78724Y19107D01*
Y40365D01*
X78730Y40370D01*
X79261Y41164D01*
X79447Y42100D01*
X79261Y43036D01*
X78730Y43830D01*
X77936Y44361D01*
X77000Y44547D01*
D02*
G37*
G36*
X234894Y16100D02*
X226500D01*
Y7706D01*
X227745Y7829D01*
X229422Y8338D01*
X230968Y9164D01*
X232324Y10276D01*
X233436Y11631D01*
X234262Y13178D01*
X234771Y14855D01*
X234894Y16100D01*
D02*
G37*
G36*
X225500D02*
X217106D01*
X217229Y14855D01*
X217738Y13178D01*
X218564Y11631D01*
X219676Y10276D01*
X221031Y9164D01*
X222578Y8338D01*
X224255Y7829D01*
X225500Y7706D01*
Y16100D01*
D02*
G37*
G36*
X167000Y9317D02*
Y6100D01*
X170217D01*
X170153Y6579D01*
X169776Y7491D01*
X169175Y8275D01*
X168391Y8876D01*
X167479Y9253D01*
X167000Y9317D01*
D02*
G37*
G36*
X166000D02*
X165521Y9253D01*
X164609Y8876D01*
X163826Y8275D01*
X163224Y7491D01*
X162847Y6579D01*
X162784Y6100D01*
X166000D01*
Y9317D01*
D02*
G37*
G36*
X146500Y9181D02*
X145573Y9059D01*
X144710Y8701D01*
X143968Y8132D01*
X143399Y7390D01*
X143041Y6527D01*
X142919Y5600D01*
X143041Y4673D01*
X143399Y3810D01*
X143968Y3068D01*
X144710Y2499D01*
X145573Y2141D01*
X146500Y2019D01*
X147427Y2141D01*
X148290Y2499D01*
X149032Y3068D01*
X149601Y3810D01*
X149959Y4673D01*
X150081Y5600D01*
X149959Y6527D01*
X149601Y7390D01*
X149032Y8132D01*
X148290Y8701D01*
X147427Y9059D01*
X146500Y9181D01*
D02*
G37*
G36*
X136500D02*
X135573Y9059D01*
X134710Y8701D01*
X133968Y8132D01*
X133399Y7390D01*
X133041Y6527D01*
X132919Y5600D01*
X133041Y4673D01*
X133399Y3810D01*
X133968Y3068D01*
X134710Y2499D01*
X135573Y2141D01*
X136500Y2019D01*
X137427Y2141D01*
X138290Y2499D01*
X139032Y3068D01*
X139601Y3810D01*
X139959Y4673D01*
X140081Y5600D01*
X139959Y6527D01*
X139601Y7390D01*
X139032Y8132D01*
X138290Y8701D01*
X137427Y9059D01*
X136500Y9181D01*
D02*
G37*
G36*
X126500D02*
X125573Y9059D01*
X124710Y8701D01*
X123968Y8132D01*
X123399Y7390D01*
X123041Y6527D01*
X122919Y5600D01*
X123041Y4673D01*
X123399Y3810D01*
X123968Y3068D01*
X124710Y2499D01*
X125573Y2141D01*
X126500Y2019D01*
X127427Y2141D01*
X128290Y2499D01*
X129032Y3068D01*
X129601Y3810D01*
X129959Y4673D01*
X130081Y5600D01*
X129959Y6527D01*
X129601Y7390D01*
X129032Y8132D01*
X128290Y8701D01*
X127427Y9059D01*
X126500Y9181D01*
D02*
G37*
G36*
X116500D02*
X115573Y9059D01*
X114710Y8701D01*
X113968Y8132D01*
X113399Y7390D01*
X113041Y6527D01*
X112919Y5600D01*
X113041Y4673D01*
X113399Y3810D01*
X113968Y3068D01*
X114710Y2499D01*
X115573Y2141D01*
X116500Y2019D01*
X117427Y2141D01*
X118290Y2499D01*
X119032Y3068D01*
X119601Y3810D01*
X119959Y4673D01*
X120081Y5600D01*
X119959Y6527D01*
X119601Y7390D01*
X119032Y8132D01*
X118290Y8701D01*
X117427Y9059D01*
X116500Y9181D01*
D02*
G37*
%LPD*%
G36*
X30923Y195100D02*
X30186D01*
Y196487D01*
X30181Y196613D01*
X30175Y196722D01*
X30163Y196813D01*
X30152Y196887D01*
X30141Y196944D01*
X30135Y196984D01*
X30123Y197013D01*
Y197019D01*
X30095Y197081D01*
X30061Y197133D01*
X30026Y197184D01*
X29992Y197218D01*
X29964Y197247D01*
X29935Y197270D01*
X29918Y197281D01*
X29912Y197287D01*
X29855Y197316D01*
X29798Y197338D01*
X29741Y197355D01*
X29689Y197367D01*
X29644Y197373D01*
X29610Y197378D01*
X29581D01*
X29524Y197373D01*
X29473Y197367D01*
X29427Y197355D01*
X29387Y197344D01*
X29353Y197327D01*
X29330Y197316D01*
X29318Y197310D01*
X29313Y197304D01*
X29273Y197275D01*
X29244Y197247D01*
X29216Y197213D01*
X29199Y197184D01*
X29181Y197156D01*
X29170Y197139D01*
X29164Y197121D01*
Y197116D01*
X29158Y197093D01*
X29147Y197058D01*
X29136Y196979D01*
X29130Y196893D01*
X29124Y196796D01*
X29118Y196704D01*
Y196670D01*
Y196630D01*
Y196602D01*
Y196579D01*
Y196567D01*
Y196562D01*
Y195100D01*
X28382D01*
Y196727D01*
Y196859D01*
X28388Y196973D01*
X28393Y197070D01*
X28399Y197144D01*
X28411Y197207D01*
X28416Y197247D01*
X28422Y197275D01*
Y197281D01*
X28439Y197344D01*
X28462Y197407D01*
X28485Y197458D01*
X28508Y197510D01*
X28530Y197544D01*
X28547Y197578D01*
X28559Y197595D01*
X28565Y197601D01*
X28605Y197652D01*
X28656Y197704D01*
X28707Y197744D01*
X28759Y197778D01*
X28804Y197807D01*
X28839Y197829D01*
X28862Y197841D01*
X28873Y197846D01*
X28953Y197881D01*
X29033Y197904D01*
X29107Y197921D01*
X29181Y197932D01*
X29244Y197938D01*
X29290Y197944D01*
X29335D01*
X29427Y197938D01*
X29513Y197926D01*
X29598Y197904D01*
X29678Y197875D01*
X29821Y197807D01*
X29889Y197772D01*
X29947Y197732D01*
X29998Y197692D01*
X30049Y197652D01*
X30089Y197612D01*
X30123Y197584D01*
X30152Y197555D01*
X30169Y197532D01*
X30181Y197521D01*
X30186Y197515D01*
Y198943D01*
X30923D01*
Y195100D01*
D02*
G37*
G36*
X43205D02*
X42354D01*
X41589Y197972D01*
X40824Y195100D01*
X39996D01*
X39065Y198943D01*
X39848D01*
X40436Y196253D01*
X41115Y198943D01*
X42035D01*
X42737Y196299D01*
X43314Y198943D01*
X44107D01*
X43205Y195100D01*
D02*
G37*
G36*
X32670Y198440D02*
Y197887D01*
X33007D01*
Y197298D01*
X32670D01*
Y196082D01*
Y196014D01*
Y195945D01*
Y195888D01*
X32664Y195837D01*
Y195745D01*
X32659Y195677D01*
X32653Y195625D01*
Y195591D01*
X32647Y195568D01*
Y195563D01*
X32636Y195500D01*
X32619Y195443D01*
X32602Y195391D01*
X32585Y195351D01*
X32567Y195317D01*
X32556Y195294D01*
X32550Y195277D01*
X32544Y195271D01*
X32510Y195237D01*
X32476Y195203D01*
X32402Y195146D01*
X32368Y195129D01*
X32339Y195111D01*
X32316Y195106D01*
X32310Y195100D01*
X32248Y195077D01*
X32185Y195066D01*
X32128Y195054D01*
X32071Y195043D01*
X32025D01*
X31985Y195037D01*
X31951D01*
X31831Y195043D01*
X31722Y195054D01*
X31625Y195071D01*
X31540Y195094D01*
X31465Y195111D01*
X31414Y195129D01*
X31380Y195140D01*
X31368Y195146D01*
X31437Y195717D01*
X31505Y195694D01*
X31562Y195677D01*
X31614Y195665D01*
X31659Y195660D01*
X31688Y195654D01*
X31717Y195648D01*
X31734D01*
X31785Y195654D01*
X31825Y195665D01*
X31848Y195677D01*
X31859Y195682D01*
X31888Y195711D01*
X31905Y195739D01*
X31916Y195762D01*
X31922Y195774D01*
Y195785D01*
X31928Y195808D01*
Y195859D01*
Y195928D01*
X31934Y195996D01*
Y196065D01*
Y196122D01*
Y196139D01*
Y196156D01*
Y196168D01*
Y196174D01*
Y197298D01*
X31431D01*
Y197887D01*
X31934D01*
Y198874D01*
X32670Y198440D01*
D02*
G37*
G36*
X27645Y196122D02*
X27640Y195985D01*
X27628Y195859D01*
X27617Y195757D01*
X27594Y195665D01*
X27577Y195597D01*
X27565Y195545D01*
X27554Y195517D01*
X27548Y195505D01*
X27508Y195425D01*
X27457Y195357D01*
X27406Y195300D01*
X27354Y195248D01*
X27303Y195209D01*
X27263Y195180D01*
X27240Y195163D01*
X27229Y195157D01*
X27143Y195117D01*
X27057Y195089D01*
X26972Y195066D01*
X26892Y195054D01*
X26829Y195043D01*
X26772Y195037D01*
X26726D01*
X26623Y195043D01*
X26526Y195054D01*
X26441Y195077D01*
X26361Y195100D01*
X26298Y195123D01*
X26246Y195146D01*
X26218Y195157D01*
X26206Y195163D01*
X26115Y195214D01*
X26035Y195271D01*
X25967Y195328D01*
X25910Y195386D01*
X25864Y195437D01*
X25830Y195477D01*
X25807Y195500D01*
X25801Y195511D01*
Y195100D01*
X25116D01*
Y197887D01*
X25852D01*
Y196710D01*
Y196602D01*
Y196505D01*
X25858Y196419D01*
X25864Y196339D01*
Y196271D01*
X25870Y196208D01*
X25875Y196156D01*
X25881Y196111D01*
X25887Y196071D01*
X25892Y196036D01*
X25898Y196008D01*
Y195991D01*
X25910Y195962D01*
Y195957D01*
X25932Y195905D01*
X25967Y195854D01*
X26001Y195814D01*
X26035Y195774D01*
X26064Y195745D01*
X26092Y195722D01*
X26109Y195711D01*
X26115Y195705D01*
X26172Y195671D01*
X26229Y195648D01*
X26286Y195625D01*
X26338Y195614D01*
X26383Y195608D01*
X26418Y195603D01*
X26452D01*
X26509Y195608D01*
X26566Y195614D01*
X26612Y195625D01*
X26652Y195642D01*
X26680Y195654D01*
X26709Y195665D01*
X26720Y195671D01*
X26726Y195677D01*
X26760Y195711D01*
X26789Y195745D01*
X26834Y195814D01*
X26852Y195842D01*
X26863Y195865D01*
X26869Y195882D01*
Y195888D01*
X26875Y195916D01*
X26880Y195957D01*
X26886Y196002D01*
X26892Y196054D01*
X26897Y196174D01*
X26903Y196299D01*
X26909Y196413D01*
Y196465D01*
Y196516D01*
Y196550D01*
Y196585D01*
Y196602D01*
Y196607D01*
Y197887D01*
X27645D01*
Y196122D01*
D02*
G37*
G36*
X37718Y197938D02*
X37815Y197926D01*
X37906Y197909D01*
X37992Y197881D01*
X38072Y197852D01*
X38146Y197818D01*
X38215Y197784D01*
X38277Y197749D01*
X38335Y197710D01*
X38386Y197675D01*
X38426Y197641D01*
X38466Y197612D01*
X38494Y197584D01*
X38511Y197567D01*
X38523Y197555D01*
X38529Y197550D01*
X38591Y197475D01*
X38649Y197390D01*
X38694Y197304D01*
X38734Y197213D01*
X38768Y197121D01*
X38803Y197036D01*
X38843Y196859D01*
X38860Y196779D01*
X38871Y196704D01*
X38877Y196636D01*
X38883Y196579D01*
X38888Y196533D01*
Y196493D01*
Y196470D01*
Y196465D01*
X38883Y196362D01*
X38877Y196259D01*
X38866Y196162D01*
X38843Y196071D01*
X38826Y195991D01*
X38803Y195911D01*
X38774Y195837D01*
X38751Y195774D01*
X38723Y195711D01*
X38700Y195660D01*
X38677Y195614D01*
X38654Y195580D01*
X38637Y195551D01*
X38626Y195528D01*
X38620Y195517D01*
X38614Y195511D01*
X38546Y195425D01*
X38466Y195357D01*
X38386Y195294D01*
X38300Y195237D01*
X38209Y195191D01*
X38123Y195151D01*
X38032Y195123D01*
X37946Y195094D01*
X37866Y195077D01*
X37786Y195060D01*
X37718Y195054D01*
X37661Y195043D01*
X37609D01*
X37575Y195037D01*
X37541D01*
X37375Y195049D01*
X37227Y195071D01*
X37101Y195100D01*
X36987Y195140D01*
X36941Y195157D01*
X36901Y195180D01*
X36867Y195197D01*
X36833Y195209D01*
X36810Y195226D01*
X36793Y195231D01*
X36787Y195243D01*
X36781D01*
X36673Y195328D01*
X36582Y195431D01*
X36502Y195528D01*
X36439Y195631D01*
X36393Y195722D01*
X36370Y195757D01*
X36359Y195791D01*
X36347Y195819D01*
X36336Y195842D01*
X36330Y195854D01*
Y195859D01*
X37067Y195985D01*
X37095Y195911D01*
X37124Y195848D01*
X37152Y195797D01*
X37181Y195751D01*
X37210Y195717D01*
X37232Y195694D01*
X37244Y195682D01*
X37250Y195677D01*
X37295Y195648D01*
X37341Y195625D01*
X37392Y195608D01*
X37432Y195597D01*
X37472Y195591D01*
X37506Y195585D01*
X37535D01*
X37626Y195591D01*
X37712Y195614D01*
X37781Y195642D01*
X37843Y195677D01*
X37895Y195705D01*
X37935Y195734D01*
X37958Y195757D01*
X37963Y195762D01*
X38020Y195837D01*
X38060Y195922D01*
X38089Y196008D01*
X38112Y196088D01*
X38123Y196162D01*
X38129Y196219D01*
X38135Y196242D01*
Y196259D01*
Y196271D01*
Y196276D01*
X36290D01*
Y196430D01*
X36302Y196573D01*
X36319Y196704D01*
X36342Y196830D01*
X36364Y196944D01*
X36393Y197047D01*
X36427Y197139D01*
X36462Y197224D01*
X36496Y197293D01*
X36524Y197355D01*
X36553Y197413D01*
X36582Y197452D01*
X36604Y197487D01*
X36621Y197515D01*
X36633Y197527D01*
X36639Y197532D01*
X36707Y197607D01*
X36781Y197669D01*
X36861Y197721D01*
X36941Y197772D01*
X37021Y197812D01*
X37101Y197841D01*
X37181Y197869D01*
X37261Y197892D01*
X37330Y197909D01*
X37398Y197921D01*
X37461Y197932D01*
X37512Y197938D01*
X37558Y197944D01*
X37615D01*
X37718Y197938D01*
D02*
G37*
G36*
X23403D02*
X23500Y197926D01*
X23591Y197909D01*
X23677Y197881D01*
X23757Y197852D01*
X23831Y197818D01*
X23900Y197784D01*
X23962Y197749D01*
X24020Y197710D01*
X24071Y197675D01*
X24111Y197641D01*
X24151Y197612D01*
X24179Y197584D01*
X24196Y197567D01*
X24208Y197555D01*
X24214Y197550D01*
X24276Y197475D01*
X24333Y197390D01*
X24379Y197304D01*
X24419Y197213D01*
X24453Y197121D01*
X24488Y197036D01*
X24528Y196859D01*
X24545Y196779D01*
X24556Y196704D01*
X24562Y196636D01*
X24568Y196579D01*
X24573Y196533D01*
Y196493D01*
Y196470D01*
Y196465D01*
X24568Y196362D01*
X24562Y196259D01*
X24551Y196162D01*
X24528Y196071D01*
X24511Y195991D01*
X24488Y195911D01*
X24459Y195837D01*
X24436Y195774D01*
X24408Y195711D01*
X24385Y195660D01*
X24362Y195614D01*
X24339Y195580D01*
X24322Y195551D01*
X24311Y195528D01*
X24305Y195517D01*
X24299Y195511D01*
X24231Y195425D01*
X24151Y195357D01*
X24071Y195294D01*
X23985Y195237D01*
X23894Y195191D01*
X23808Y195151D01*
X23717Y195123D01*
X23631Y195094D01*
X23551Y195077D01*
X23471Y195060D01*
X23403Y195054D01*
X23346Y195043D01*
X23294D01*
X23260Y195037D01*
X23226D01*
X23060Y195049D01*
X22912Y195071D01*
X22786Y195100D01*
X22672Y195140D01*
X22626Y195157D01*
X22586Y195180D01*
X22552Y195197D01*
X22518Y195209D01*
X22495Y195226D01*
X22478Y195231D01*
X22472Y195243D01*
X22466D01*
X22358Y195328D01*
X22266Y195431D01*
X22187Y195528D01*
X22124Y195631D01*
X22078Y195722D01*
X22055Y195757D01*
X22044Y195791D01*
X22032Y195819D01*
X22021Y195842D01*
X22015Y195854D01*
Y195859D01*
X22752Y195985D01*
X22780Y195911D01*
X22809Y195848D01*
X22838Y195797D01*
X22866Y195751D01*
X22895Y195717D01*
X22918Y195694D01*
X22929Y195682D01*
X22935Y195677D01*
X22980Y195648D01*
X23026Y195625D01*
X23077Y195608D01*
X23117Y195597D01*
X23157Y195591D01*
X23192Y195585D01*
X23220D01*
X23312Y195591D01*
X23397Y195614D01*
X23466Y195642D01*
X23528Y195677D01*
X23580Y195705D01*
X23620Y195734D01*
X23643Y195757D01*
X23648Y195762D01*
X23705Y195837D01*
X23745Y195922D01*
X23774Y196008D01*
X23797Y196088D01*
X23808Y196162D01*
X23814Y196219D01*
X23820Y196242D01*
Y196259D01*
Y196271D01*
Y196276D01*
X21975D01*
Y196430D01*
X21987Y196573D01*
X22004Y196704D01*
X22027Y196830D01*
X22050Y196944D01*
X22078Y197047D01*
X22112Y197139D01*
X22147Y197224D01*
X22181Y197293D01*
X22209Y197355D01*
X22238Y197413D01*
X22266Y197452D01*
X22289Y197487D01*
X22307Y197515D01*
X22318Y197527D01*
X22324Y197532D01*
X22392Y197607D01*
X22466Y197669D01*
X22546Y197721D01*
X22626Y197772D01*
X22706Y197812D01*
X22786Y197841D01*
X22866Y197869D01*
X22946Y197892D01*
X23015Y197909D01*
X23083Y197921D01*
X23146Y197932D01*
X23197Y197938D01*
X23243Y197944D01*
X23300D01*
X23403Y197938D01*
D02*
G37*
G36*
X46722Y195100D02*
X45986D01*
Y195837D01*
X46722D01*
Y195100D01*
D02*
G37*
G36*
X48316Y196459D02*
Y196373D01*
X48321Y196299D01*
X48327Y196231D01*
X48333Y196168D01*
X48338Y196111D01*
X48350Y196059D01*
X48361Y196014D01*
X48367Y195974D01*
X48390Y195916D01*
X48407Y195871D01*
X48418Y195848D01*
X48424Y195842D01*
X48470Y195797D01*
X48527Y195762D01*
X48590Y195734D01*
X48647Y195717D01*
X48704Y195705D01*
X48750Y195700D01*
X48790D01*
X48881Y195711D01*
X48955Y195734D01*
X49024Y195762D01*
X49075Y195802D01*
X49121Y195842D01*
X49149Y195871D01*
X49166Y195894D01*
X49172Y195905D01*
X49201Y195962D01*
X49218Y196036D01*
X49235Y196116D01*
X49246Y196191D01*
X49258Y196259D01*
Y196322D01*
X49263Y196345D01*
Y196356D01*
Y196368D01*
Y196373D01*
X50000Y196288D01*
X49994Y196174D01*
X49989Y196071D01*
X49971Y195974D01*
X49954Y195882D01*
X49931Y195797D01*
X49903Y195722D01*
X49874Y195648D01*
X49846Y195591D01*
X49823Y195534D01*
X49794Y195483D01*
X49766Y195443D01*
X49743Y195408D01*
X49726Y195386D01*
X49709Y195368D01*
X49703Y195357D01*
X49697Y195351D01*
X49635Y195294D01*
X49572Y195248D01*
X49503Y195209D01*
X49429Y195168D01*
X49286Y195111D01*
X49143Y195077D01*
X49075Y195066D01*
X49012Y195054D01*
X48961Y195049D01*
X48909Y195043D01*
X48875Y195037D01*
X48818D01*
X48647Y195049D01*
X48493Y195071D01*
X48355Y195100D01*
X48247Y195140D01*
X48196Y195157D01*
X48156Y195174D01*
X48121Y195191D01*
X48087Y195209D01*
X48064Y195220D01*
X48047Y195231D01*
X48041Y195237D01*
X48036D01*
X47933Y195317D01*
X47847Y195408D01*
X47773Y195500D01*
X47716Y195585D01*
X47676Y195660D01*
X47648Y195717D01*
X47636Y195739D01*
X47630Y195757D01*
X47625Y195768D01*
Y195774D01*
X47596Y195877D01*
X47573Y195996D01*
X47562Y196122D01*
X47550Y196236D01*
X47545Y196345D01*
X47539Y196390D01*
Y196430D01*
Y196465D01*
Y196487D01*
Y196505D01*
Y196510D01*
Y198943D01*
X48316D01*
Y196459D01*
D02*
G37*
G36*
X34886Y197932D02*
X34977Y197921D01*
X35063Y197904D01*
X35143Y197887D01*
X35217Y197864D01*
X35285Y197841D01*
X35342Y197818D01*
X35394Y197795D01*
X35440Y197772D01*
X35474Y197749D01*
X35508Y197732D01*
X35531Y197715D01*
X35548Y197704D01*
X35554Y197698D01*
X35559Y197692D01*
X35611Y197647D01*
X35651Y197595D01*
X35691Y197544D01*
X35725Y197493D01*
X35776Y197395D01*
X35811Y197298D01*
X35828Y197213D01*
X35839Y197150D01*
X35845Y197121D01*
Y197104D01*
Y197093D01*
Y197087D01*
X35839Y197013D01*
X35828Y196944D01*
X35816Y196881D01*
X35794Y196819D01*
X35742Y196710D01*
X35679Y196625D01*
X35616Y196550D01*
X35565Y196499D01*
X35542Y196482D01*
X35525Y196470D01*
X35519Y196459D01*
X35514D01*
X35462Y196430D01*
X35399Y196396D01*
X35320Y196368D01*
X35240Y196333D01*
X35148Y196305D01*
X35051Y196276D01*
X34863Y196219D01*
X34766Y196196D01*
X34680Y196174D01*
X34600Y196151D01*
X34526Y196133D01*
X34469Y196116D01*
X34423Y196111D01*
X34395Y196099D01*
X34383D01*
X34315Y196082D01*
X34263Y196065D01*
X34218Y196054D01*
X34189Y196036D01*
X34166Y196025D01*
X34149Y196014D01*
X34138Y196002D01*
X34103Y195957D01*
X34086Y195916D01*
X34080Y195882D01*
Y195871D01*
Y195865D01*
X34086Y195825D01*
X34098Y195785D01*
X34132Y195722D01*
X34149Y195700D01*
X34166Y195682D01*
X34178Y195677D01*
X34183Y195671D01*
X34240Y195637D01*
X34309Y195614D01*
X34383Y195591D01*
X34452Y195580D01*
X34514Y195574D01*
X34566Y195568D01*
X34611D01*
X34703Y195574D01*
X34789Y195585D01*
X34857Y195603D01*
X34914Y195625D01*
X34960Y195642D01*
X34994Y195660D01*
X35017Y195671D01*
X35023Y195677D01*
X35074Y195722D01*
X35114Y195774D01*
X35143Y195825D01*
X35171Y195882D01*
X35188Y195928D01*
X35200Y195968D01*
X35211Y195991D01*
Y196002D01*
X35948Y195888D01*
X35902Y195751D01*
X35839Y195625D01*
X35771Y195517D01*
X35696Y195431D01*
X35628Y195357D01*
X35571Y195306D01*
X35548Y195288D01*
X35531Y195277D01*
X35525Y195266D01*
X35519D01*
X35382Y195191D01*
X35234Y195134D01*
X35085Y195094D01*
X34943Y195066D01*
X34874Y195054D01*
X34811Y195049D01*
X34760Y195043D01*
X34709D01*
X34669Y195037D01*
X34617D01*
X34503Y195043D01*
X34395Y195049D01*
X34297Y195060D01*
X34206Y195083D01*
X34121Y195100D01*
X34041Y195123D01*
X33972Y195151D01*
X33909Y195174D01*
X33852Y195203D01*
X33801Y195226D01*
X33761Y195248D01*
X33727Y195271D01*
X33704Y195288D01*
X33687Y195300D01*
X33675Y195306D01*
X33669Y195311D01*
X33612Y195363D01*
X33561Y195420D01*
X33521Y195471D01*
X33481Y195528D01*
X33447Y195585D01*
X33424Y195642D01*
X33384Y195745D01*
X33361Y195831D01*
X33355Y195871D01*
X33350Y195905D01*
X33344Y195934D01*
Y195951D01*
Y195962D01*
Y195968D01*
X33355Y196093D01*
X33378Y196202D01*
X33418Y196293D01*
X33458Y196368D01*
X33504Y196430D01*
X33544Y196476D01*
X33567Y196499D01*
X33578Y196510D01*
X33624Y196545D01*
X33681Y196579D01*
X33806Y196642D01*
X33944Y196699D01*
X34075Y196745D01*
X34200Y196784D01*
X34258Y196802D01*
X34303Y196813D01*
X34343Y196824D01*
X34372Y196830D01*
X34395Y196836D01*
X34400D01*
X34503Y196859D01*
X34600Y196887D01*
X34680Y196904D01*
X34754Y196927D01*
X34823Y196944D01*
X34880Y196961D01*
X34926Y196979D01*
X34966Y196996D01*
X35000Y197007D01*
X35028Y197019D01*
X35051Y197024D01*
X35068Y197036D01*
X35085Y197041D01*
X35091Y197047D01*
X35114Y197070D01*
X35131Y197087D01*
X35148Y197133D01*
X35160Y197167D01*
Y197173D01*
Y197178D01*
X35154Y197213D01*
X35148Y197241D01*
X35120Y197287D01*
X35091Y197316D01*
X35085Y197327D01*
X35080D01*
X35028Y197355D01*
X34960Y197378D01*
X34891Y197390D01*
X34823Y197401D01*
X34760Y197407D01*
X34709Y197413D01*
X34663D01*
X34583Y197407D01*
X34509Y197401D01*
X34452Y197384D01*
X34400Y197367D01*
X34360Y197350D01*
X34332Y197338D01*
X34315Y197327D01*
X34309Y197321D01*
X34263Y197287D01*
X34229Y197247D01*
X34200Y197207D01*
X34178Y197167D01*
X34161Y197133D01*
X34149Y197104D01*
X34138Y197081D01*
Y197076D01*
X33441Y197201D01*
X33487Y197333D01*
X33549Y197441D01*
X33612Y197538D01*
X33675Y197618D01*
X33732Y197675D01*
X33784Y197721D01*
X33818Y197744D01*
X33824Y197755D01*
X33829D01*
X33886Y197789D01*
X33944Y197818D01*
X34075Y197864D01*
X34218Y197898D01*
X34355Y197921D01*
X34417Y197926D01*
X34480Y197932D01*
X34532Y197938D01*
X34583Y197944D01*
X34783D01*
X34886Y197932D01*
D02*
G37*
G36*
X20571D02*
X20662Y197921D01*
X20748Y197904D01*
X20828Y197887D01*
X20902Y197864D01*
X20970Y197841D01*
X21027Y197818D01*
X21079Y197795D01*
X21125Y197772D01*
X21159Y197749D01*
X21193Y197732D01*
X21216Y197715D01*
X21233Y197704D01*
X21239Y197698D01*
X21244Y197692D01*
X21296Y197647D01*
X21336Y197595D01*
X21376Y197544D01*
X21410Y197493D01*
X21461Y197395D01*
X21496Y197298D01*
X21513Y197213D01*
X21524Y197150D01*
X21530Y197121D01*
Y197104D01*
Y197093D01*
Y197087D01*
X21524Y197013D01*
X21513Y196944D01*
X21501Y196881D01*
X21479Y196819D01*
X21427Y196710D01*
X21364Y196625D01*
X21302Y196550D01*
X21250Y196499D01*
X21227Y196482D01*
X21210Y196470D01*
X21204Y196459D01*
X21199D01*
X21147Y196430D01*
X21085Y196396D01*
X21005Y196368D01*
X20925Y196333D01*
X20833Y196305D01*
X20736Y196276D01*
X20548Y196219D01*
X20451Y196196D01*
X20365Y196174D01*
X20285Y196151D01*
X20211Y196133D01*
X20154Y196116D01*
X20108Y196111D01*
X20080Y196099D01*
X20068D01*
X20000Y196082D01*
X19948Y196065D01*
X19903Y196054D01*
X19874Y196036D01*
X19851Y196025D01*
X19834Y196014D01*
X19823Y196002D01*
X19788Y195957D01*
X19771Y195916D01*
X19766Y195882D01*
Y195871D01*
Y195865D01*
X19771Y195825D01*
X19783Y195785D01*
X19817Y195722D01*
X19834Y195700D01*
X19851Y195682D01*
X19863Y195677D01*
X19868Y195671D01*
X19925Y195637D01*
X19994Y195614D01*
X20068Y195591D01*
X20137Y195580D01*
X20200Y195574D01*
X20251Y195568D01*
X20297D01*
X20388Y195574D01*
X20474Y195585D01*
X20542Y195603D01*
X20599Y195625D01*
X20645Y195642D01*
X20679Y195660D01*
X20702Y195671D01*
X20708Y195677D01*
X20759Y195722D01*
X20799Y195774D01*
X20828Y195825D01*
X20856Y195882D01*
X20873Y195928D01*
X20885Y195968D01*
X20896Y195991D01*
Y196002D01*
X21633Y195888D01*
X21587Y195751D01*
X21524Y195625D01*
X21456Y195517D01*
X21382Y195431D01*
X21313Y195357D01*
X21256Y195306D01*
X21233Y195288D01*
X21216Y195277D01*
X21210Y195266D01*
X21204D01*
X21067Y195191D01*
X20919Y195134D01*
X20771Y195094D01*
X20628Y195066D01*
X20559Y195054D01*
X20496Y195049D01*
X20445Y195043D01*
X20394D01*
X20354Y195037D01*
X20302D01*
X20188Y195043D01*
X20080Y195049D01*
X19983Y195060D01*
X19891Y195083D01*
X19805Y195100D01*
X19726Y195123D01*
X19657Y195151D01*
X19594Y195174D01*
X19537Y195203D01*
X19486Y195226D01*
X19446Y195248D01*
X19411Y195271D01*
X19389Y195288D01*
X19372Y195300D01*
X19360Y195306D01*
X19354Y195311D01*
X19297Y195363D01*
X19246Y195420D01*
X19206Y195471D01*
X19166Y195528D01*
X19132Y195585D01*
X19109Y195642D01*
X19069Y195745D01*
X19046Y195831D01*
X19040Y195871D01*
X19035Y195905D01*
X19029Y195934D01*
Y195951D01*
Y195962D01*
Y195968D01*
X19040Y196093D01*
X19063Y196202D01*
X19103Y196293D01*
X19143Y196368D01*
X19189Y196430D01*
X19229Y196476D01*
X19252Y196499D01*
X19263Y196510D01*
X19309Y196545D01*
X19366Y196579D01*
X19491Y196642D01*
X19628Y196699D01*
X19760Y196745D01*
X19885Y196784D01*
X19943Y196802D01*
X19988Y196813D01*
X20028Y196824D01*
X20057Y196830D01*
X20080Y196836D01*
X20085D01*
X20188Y196859D01*
X20285Y196887D01*
X20365Y196904D01*
X20439Y196927D01*
X20508Y196944D01*
X20565Y196961D01*
X20611Y196979D01*
X20651Y196996D01*
X20685Y197007D01*
X20713Y197019D01*
X20736Y197024D01*
X20753Y197036D01*
X20771Y197041D01*
X20776Y197047D01*
X20799Y197070D01*
X20816Y197087D01*
X20833Y197133D01*
X20845Y197167D01*
Y197173D01*
Y197178D01*
X20839Y197213D01*
X20833Y197241D01*
X20805Y197287D01*
X20776Y197316D01*
X20771Y197327D01*
X20765D01*
X20713Y197355D01*
X20645Y197378D01*
X20576Y197390D01*
X20508Y197401D01*
X20445Y197407D01*
X20394Y197413D01*
X20348D01*
X20268Y197407D01*
X20194Y197401D01*
X20137Y197384D01*
X20085Y197367D01*
X20045Y197350D01*
X20017Y197338D01*
X20000Y197327D01*
X19994Y197321D01*
X19948Y197287D01*
X19914Y197247D01*
X19885Y197207D01*
X19863Y197167D01*
X19846Y197133D01*
X19834Y197104D01*
X19823Y197081D01*
Y197076D01*
X19126Y197201D01*
X19172Y197333D01*
X19234Y197441D01*
X19297Y197538D01*
X19360Y197618D01*
X19417Y197675D01*
X19469Y197721D01*
X19503Y197744D01*
X19509Y197755D01*
X19514D01*
X19571Y197789D01*
X19628Y197818D01*
X19760Y197864D01*
X19903Y197898D01*
X20040Y197921D01*
X20102Y197926D01*
X20165Y197932D01*
X20217Y197938D01*
X20268Y197944D01*
X20468D01*
X20571Y197932D01*
D02*
G37*
%LPC*%
G36*
X37609Y197378D02*
X37569D01*
X37489Y197373D01*
X37415Y197350D01*
X37352Y197327D01*
X37295Y197293D01*
X37255Y197264D01*
X37221Y197236D01*
X37198Y197213D01*
X37192Y197207D01*
X37141Y197139D01*
X37095Y197064D01*
X37067Y196984D01*
X37044Y196904D01*
X37033Y196836D01*
X37027Y196779D01*
X37021Y196756D01*
Y196739D01*
Y196733D01*
Y196727D01*
X38123D01*
X38118Y196836D01*
X38100Y196927D01*
X38078Y197007D01*
X38049Y197076D01*
X38020Y197127D01*
X37992Y197167D01*
X37975Y197196D01*
X37969Y197201D01*
X37906Y197258D01*
X37843Y197304D01*
X37775Y197333D01*
X37712Y197355D01*
X37655Y197367D01*
X37609Y197378D01*
D02*
G37*
G36*
X23294D02*
X23254D01*
X23174Y197373D01*
X23100Y197350D01*
X23037Y197327D01*
X22980Y197293D01*
X22940Y197264D01*
X22906Y197236D01*
X22883Y197213D01*
X22877Y197207D01*
X22826Y197139D01*
X22780Y197064D01*
X22752Y196984D01*
X22729Y196904D01*
X22718Y196836D01*
X22712Y196779D01*
X22706Y196756D01*
Y196739D01*
Y196733D01*
Y196727D01*
X23808D01*
X23802Y196836D01*
X23785Y196927D01*
X23763Y197007D01*
X23734Y197076D01*
X23705Y197127D01*
X23677Y197167D01*
X23660Y197196D01*
X23654Y197201D01*
X23591Y197258D01*
X23528Y197304D01*
X23460Y197333D01*
X23397Y197355D01*
X23340Y197367D01*
X23294Y197378D01*
D02*
G37*
%LPD*%
G36*
X156961Y139217D02*
Y134201D01*
X156716Y133834D01*
X156561Y133054D01*
Y132954D01*
X153724Y130116D01*
X153224Y130323D01*
Y136133D01*
X156499Y139409D01*
X156961Y139217D01*
D02*
G37*
G36*
X190577Y113753D02*
Y112447D01*
X188880Y110751D01*
X188645Y110849D01*
X188413Y110991D01*
X188330Y111408D01*
X188065Y111805D01*
X183999Y115872D01*
Y119678D01*
X184460Y119869D01*
X190577Y113753D01*
D02*
G37*
G36*
X161974Y129812D02*
X162270Y129370D01*
X163064Y128839D01*
X164000Y128653D01*
X164144Y128682D01*
X164391Y128221D01*
X164135Y127965D01*
X163870Y127568D01*
X163777Y127100D01*
Y115100D01*
X163870Y114632D01*
X164135Y114235D01*
X166135Y112235D01*
X166532Y111970D01*
X167000Y111876D01*
X169176D01*
X169460Y111377D01*
X169428Y111323D01*
X169000D01*
X168532Y111230D01*
X168135Y110965D01*
X163135Y105965D01*
X162870Y105568D01*
X162777Y105100D01*
Y89007D01*
X162276Y88957D01*
X162261Y89036D01*
X161730Y89830D01*
X161223Y90169D01*
Y94640D01*
X161130Y95108D01*
X160865Y95505D01*
X158423Y97947D01*
Y99320D01*
X158553Y99515D01*
X158647Y99983D01*
Y124717D01*
X158553Y125185D01*
X158423Y125380D01*
Y126808D01*
X161477Y129861D01*
X161974Y129812D01*
D02*
G37*
G36*
X168777Y86593D02*
Y60107D01*
X165135Y56465D01*
X164870Y56068D01*
X164777Y55600D01*
Y54169D01*
X164270Y53830D01*
X163739Y53036D01*
X163635Y52514D01*
X163135Y52563D01*
Y70500D01*
X162996Y71202D01*
X162598Y71798D01*
X160710Y73685D01*
X160875Y74228D01*
X161436Y74339D01*
X162230Y74870D01*
X162761Y75664D01*
X162947Y76600D01*
X162761Y77536D01*
X162230Y78330D01*
X161436Y78861D01*
X160500Y79047D01*
X159564Y78861D01*
X158770Y78330D01*
X158239Y77536D01*
X158128Y76975D01*
X157585Y76810D01*
X154785Y79610D01*
Y81897D01*
X154834Y81970D01*
X154989Y82750D01*
X154834Y83530D01*
X154392Y84192D01*
X153939Y84645D01*
Y85226D01*
X154380Y85462D01*
X154564Y85339D01*
X155500Y85153D01*
X156436Y85339D01*
X157230Y85870D01*
X157616Y86448D01*
X158195Y86481D01*
X158270Y86370D01*
X159064Y85839D01*
X160000Y85653D01*
X160936Y85839D01*
X161240Y86042D01*
X161702Y85851D01*
X161739Y85664D01*
X162270Y84870D01*
X163064Y84339D01*
X164000Y84153D01*
X164936Y84339D01*
X165730Y84870D01*
X166261Y85664D01*
X166447Y86600D01*
X166261Y87536D01*
X165730Y88330D01*
X165224Y88669D01*
Y89493D01*
X165685Y89684D01*
X168777Y86593D01*
D02*
G37*
G36*
X189477Y60233D02*
Y58667D01*
X189135Y58325D01*
X188870Y57928D01*
X188777Y57460D01*
Y52741D01*
X188573Y52436D01*
X188326Y52356D01*
X187830Y52408D01*
X187565Y52805D01*
X187205Y53165D01*
X186808Y53430D01*
X186598Y53472D01*
X185624Y54447D01*
Y63379D01*
X186124Y63586D01*
X189477Y60233D01*
D02*
G37*
G36*
X73869Y176724D02*
Y159230D01*
X73739Y159036D01*
X73553Y158100D01*
X73739Y157164D01*
X73905Y156915D01*
X73993Y156476D01*
X74169Y156213D01*
Y153800D01*
X74293Y153176D01*
X74647Y152647D01*
X78869Y148424D01*
Y146043D01*
X78369Y145994D01*
X78261Y146536D01*
X77730Y147330D01*
X76936Y147861D01*
X76000Y148047D01*
X75064Y147861D01*
X74270Y147330D01*
X73739Y146536D01*
X73553Y145600D01*
X73739Y144664D01*
X74270Y143870D01*
X75064Y143339D01*
X76000Y143153D01*
X76936Y143339D01*
X77730Y143870D01*
X78261Y144664D01*
X78369Y145206D01*
X78869Y145157D01*
Y107600D01*
Y105543D01*
X78369Y105494D01*
X78261Y106036D01*
X77730Y106830D01*
X76936Y107361D01*
X76000Y107547D01*
X75064Y107361D01*
X74270Y106830D01*
X73931Y106324D01*
X73000D01*
X72532Y106230D01*
X72135Y105965D01*
X69135Y102965D01*
X68870Y102568D01*
X68777Y102100D01*
Y71107D01*
X67185Y69516D01*
X66724Y69707D01*
Y100600D01*
X66630Y101068D01*
X66365Y101465D01*
X63328Y104502D01*
X63447Y105100D01*
X63261Y106036D01*
X62730Y106830D01*
X61936Y107361D01*
X61000Y107547D01*
X60064Y107361D01*
X59270Y106830D01*
X59000Y106427D01*
X58500D01*
X58230Y106830D01*
X57436Y107361D01*
X56500Y107547D01*
X55564Y107361D01*
X55553Y107354D01*
X55131Y107776D01*
Y108861D01*
X55631Y109128D01*
X56064Y108839D01*
X57000Y108653D01*
X57936Y108839D01*
X58730Y109370D01*
X59261Y110164D01*
X59447Y111100D01*
X59261Y112036D01*
X58730Y112830D01*
X57936Y113361D01*
X57000Y113547D01*
X56064Y113361D01*
X55631Y113072D01*
X55131Y113339D01*
Y135600D01*
X55007Y136224D01*
X54654Y136753D01*
X54124Y137107D01*
X53500Y137231D01*
X53146Y137161D01*
X48531Y141776D01*
Y149837D01*
X48607Y149950D01*
X48731Y150575D01*
Y155798D01*
X49172Y156034D01*
X49464Y155839D01*
X50400Y155653D01*
X51336Y155839D01*
X52130Y156370D01*
X52661Y157164D01*
X52847Y158100D01*
X52661Y159036D01*
X52130Y159830D01*
X51336Y160361D01*
X50400Y160547D01*
X49464Y160361D01*
X49172Y160166D01*
X48731Y160402D01*
Y162400D01*
X48607Y163024D01*
X48531Y163138D01*
Y165924D01*
X55976Y173369D01*
X57600D01*
X58224Y173493D01*
X58754Y173846D01*
X61383Y176476D01*
X61500Y176453D01*
X62436Y176639D01*
X63230Y177170D01*
X63296Y177269D01*
X73324D01*
X73869Y176724D01*
D02*
G37*
%LPC*%
G36*
X69900Y160547D02*
X68964Y160361D01*
X68170Y159830D01*
X67639Y159036D01*
X67453Y158100D01*
X67572Y157502D01*
X62535Y152465D01*
X62465Y152361D01*
X62464Y152361D01*
X61670Y151830D01*
X61139Y151036D01*
X60953Y150100D01*
X61139Y149164D01*
X61670Y148370D01*
X62464Y147839D01*
X63400Y147653D01*
X64336Y147839D01*
X65130Y148370D01*
X65661Y149164D01*
X65847Y150100D01*
X65661Y151036D01*
X65223Y151692D01*
X69302Y155772D01*
X69900Y155653D01*
X70836Y155839D01*
X71630Y156370D01*
X72161Y157164D01*
X72347Y158100D01*
X72161Y159036D01*
X71630Y159830D01*
X70836Y160361D01*
X69900Y160547D01*
D02*
G37*
G36*
X67400Y148047D02*
X66464Y147861D01*
X65670Y147330D01*
X65139Y146536D01*
X64953Y145600D01*
X65139Y144664D01*
X65670Y143870D01*
X66464Y143339D01*
X67400Y143153D01*
X68336Y143339D01*
X69130Y143870D01*
X69661Y144664D01*
X69847Y145600D01*
X69661Y146536D01*
X69130Y147330D01*
X68336Y147861D01*
X67400Y148047D01*
D02*
G37*
G36*
X56400Y157047D02*
X55464Y156861D01*
X54670Y156330D01*
X54139Y155536D01*
X53953Y154600D01*
X54139Y153664D01*
X54670Y152870D01*
X55177Y152531D01*
Y148100D01*
X55270Y147632D01*
X55535Y147235D01*
X70135Y132635D01*
X70532Y132370D01*
X70805Y132315D01*
X71170Y131770D01*
X71964Y131239D01*
X72900Y131053D01*
X73836Y131239D01*
X74630Y131770D01*
X75161Y132564D01*
X75347Y133500D01*
X75161Y134436D01*
X74630Y135230D01*
X73836Y135761D01*
X72900Y135947D01*
X71964Y135761D01*
X71170Y135230D01*
X71015Y135215D01*
X57623Y148607D01*
Y152531D01*
X58130Y152870D01*
X58661Y153664D01*
X58847Y154600D01*
X58661Y155536D01*
X58130Y156330D01*
X57336Y156861D01*
X56400Y157047D01*
D02*
G37*
G36*
X62300Y135547D02*
X61364Y135361D01*
X60570Y134830D01*
X60039Y134036D01*
X59853Y133100D01*
X60039Y132164D01*
X60570Y131370D01*
X61364Y130839D01*
X62300Y130653D01*
X63236Y130839D01*
X64030Y131370D01*
X64561Y132164D01*
X64747Y133100D01*
X64561Y134036D01*
X64030Y134830D01*
X63236Y135361D01*
X62300Y135547D01*
D02*
G37*
G36*
X245000Y191311D02*
X243910Y191167D01*
X242894Y190747D01*
X242022Y190077D01*
X241353Y189205D01*
X240932Y188190D01*
X240789Y187100D01*
X240932Y186010D01*
X241353Y184994D01*
X242022Y184122D01*
X242895Y183453D01*
X243910Y183032D01*
X245000Y182889D01*
X246090Y183032D01*
X247106Y183453D01*
X247978Y184122D01*
X248647Y184994D01*
X249067Y186010D01*
X249211Y187100D01*
X249067Y188190D01*
X248647Y189206D01*
X247977Y190078D01*
X247105Y190747D01*
X246090Y191167D01*
X245000Y191311D01*
D02*
G37*
G36*
X254500Y181447D02*
X253858Y181362D01*
X252794Y180922D01*
X251880Y180220D01*
X251179Y179306D01*
X250738Y178242D01*
X250653Y177600D01*
X254500Y177600D01*
X254500Y181447D01*
D02*
G37*
G36*
X245500Y181447D02*
X245500Y177600D01*
X249347Y177600D01*
X249262Y178242D01*
X248822Y179306D01*
X248120Y180220D01*
X247206Y180921D01*
X246142Y181362D01*
X245500Y181447D01*
D02*
G37*
G36*
X244500Y181447D02*
X243858Y181362D01*
X242794Y180921D01*
X241880Y180220D01*
X241178Y179306D01*
X240738Y178242D01*
X240653Y177600D01*
X244500Y177600D01*
X244500Y181447D01*
D02*
G37*
G36*
X235500Y181446D02*
X235500Y177600D01*
X239347Y177600D01*
X239263Y178242D01*
X238822Y179306D01*
X238120Y180220D01*
X237206Y180921D01*
X236142Y181362D01*
X235500Y181446D01*
D02*
G37*
G36*
X254500Y176600D02*
X250653Y176600D01*
X250738Y175958D01*
X251179Y174894D01*
X251880Y173980D01*
X252794Y173278D01*
X253858Y172838D01*
X254500Y172753D01*
X254500Y176600D01*
D02*
G37*
G36*
X249347Y176600D02*
X245500Y176600D01*
X245500Y172753D01*
X246142Y172837D01*
X247207Y173278D01*
X248121Y173980D01*
X248822Y174894D01*
X249263Y175958D01*
X249347Y176600D01*
D02*
G37*
G36*
X244500Y176600D02*
X240653Y176600D01*
X240738Y175958D01*
X241179Y174893D01*
X241880Y173979D01*
X242794Y173278D01*
X243858Y172837D01*
X244500Y172753D01*
X244500Y176600D01*
D02*
G37*
G36*
X239347Y176600D02*
X235500Y176600D01*
X235500Y172753D01*
X236142Y172837D01*
X237207Y173278D01*
X238121Y173979D01*
X238822Y174893D01*
X239263Y175958D01*
X239347Y176600D01*
D02*
G37*
G36*
X234500Y141047D02*
X233564Y140861D01*
X232770Y140330D01*
X232239Y139536D01*
X232053Y138600D01*
X232239Y137664D01*
X232770Y136870D01*
X233564Y136339D01*
X234500Y136153D01*
X235436Y136339D01*
X236230Y136870D01*
X236761Y137664D01*
X236947Y138600D01*
X236761Y139536D01*
X236230Y140330D01*
X235436Y140861D01*
X234500Y141047D01*
D02*
G37*
%LPD*%
D10*
X46900Y166600D02*
X55300Y175000D01*
X57600D01*
X61500Y178900D02*
X71000D01*
X57600Y175000D02*
X61500Y178900D01*
X75500Y157100D02*
Y177400D01*
X74000Y178900D02*
X75500Y177400D01*
X75800Y153800D02*
Y157400D01*
Y153800D02*
X80500Y149100D01*
X53500Y107100D02*
Y135600D01*
X112700Y14300D02*
X115500Y17100D01*
X112700Y12274D02*
Y14300D01*
X110826Y10400D02*
X112700Y12274D01*
X92700Y10400D02*
X110826D01*
X90000Y13100D02*
X92700Y10400D01*
X46900Y162600D02*
Y166600D01*
Y141100D02*
X52400Y135600D01*
X56000Y104600D02*
X61000Y99600D01*
X53500Y107100D02*
X56000Y104600D01*
X61000Y57100D02*
Y99600D01*
X54500Y50600D02*
X61000Y57100D01*
X43400Y162600D02*
X46900D01*
X71000Y178900D02*
X74000D01*
X80500Y50100D02*
Y107600D01*
Y50100D02*
X90000Y40600D01*
Y36100D02*
Y40600D01*
Y36100D02*
X92500D01*
X80500Y107600D02*
X84500D01*
X69500Y190400D02*
X71000Y188900D01*
Y178900D02*
Y188900D01*
X90000Y13100D02*
Y36100D01*
X173000Y33100D02*
Y44600D01*
X197000Y46600D02*
Y47100D01*
X196500Y31100D02*
Y46100D01*
X197000Y46600D01*
X196500Y31100D02*
X200853Y26747D01*
Y26537D02*
Y26747D01*
X173000Y44600D02*
Y68600D01*
X195200Y53175D02*
X196300Y54274D01*
X195200Y48900D02*
X197000Y47100D01*
X195200Y48900D02*
Y53175D01*
X196300Y54274D02*
Y56512D01*
X194400Y58412D02*
X196300Y56512D01*
X194400Y58412D02*
Y62628D01*
X167000Y27100D02*
X173000Y33100D01*
X46900Y141100D02*
Y150374D01*
X47100Y150575D01*
X46900Y162600D02*
X47100Y162400D01*
Y150575D02*
Y162400D01*
X80500Y107600D02*
Y149100D01*
D46*
X84500Y196400D02*
Y198900D01*
Y160100D02*
Y196400D01*
X75800Y157400D02*
X76000Y157600D01*
X38200Y132900D02*
X44657D01*
X38000Y133100D02*
X38200Y132900D01*
X71000Y133500D02*
X72900D01*
X203000Y92600D02*
X205000Y94600D01*
X205500Y89600D02*
X210500Y94600D01*
X226300Y98300D02*
X228100Y96500D01*
X226300Y98300D02*
Y112600D01*
X216500Y73600D02*
Y98600D01*
X213500Y90100D02*
Y102100D01*
X210500Y94600D02*
Y98600D01*
X213500Y102100D02*
X214500Y103100D01*
X228100Y85200D02*
Y96500D01*
X230000Y88600D02*
Y191600D01*
Y88600D02*
X231500Y87100D01*
X227000Y84100D02*
X228100Y85200D01*
X139500Y177600D02*
X141600Y179700D01*
X150840Y183900D02*
X169800D01*
X141500Y73100D02*
Y177100D01*
X143200Y178800D01*
X150178Y185500D02*
X159800D01*
X164900Y190600D01*
X166500D01*
X169800Y183900D02*
X176500Y190600D01*
X99500Y15100D02*
X103000D01*
X205864Y29445D02*
Y30464D01*
X301000Y121600D02*
Y162100D01*
Y52600D02*
Y121600D01*
Y52600D02*
X307000Y46600D01*
X298000Y121600D02*
X301000D01*
X297000Y160100D02*
Y163600D01*
X299000Y165600D01*
X302000D01*
X304500Y163100D01*
Y160100D02*
Y163100D01*
X303000Y158600D02*
X304500Y160100D01*
X303000Y121600D02*
Y158600D01*
Y56600D02*
Y121600D01*
Y56600D02*
X306500Y53100D01*
X303000Y121600D02*
X307000D01*
X263500Y36600D02*
X265000D01*
X262500Y35600D02*
X263500Y36600D01*
X274000Y70600D02*
Y72100D01*
Y70600D02*
X274500Y70100D01*
X74900Y157600D02*
Y158100D01*
X56000Y104600D02*
X56500Y105100D01*
X264500Y169600D02*
X268000Y166100D01*
Y60100D02*
Y166100D01*
X266000Y58100D02*
X268000Y60100D01*
X264500Y58100D02*
X266000D01*
X255000Y187100D02*
X257000D01*
X260000Y184100D01*
Y67100D02*
Y71100D01*
X259500Y71600D02*
X260000Y71100D01*
X258500Y145100D02*
X259000Y144600D01*
X258500Y145100D02*
Y153100D01*
X260000Y154600D01*
Y184100D01*
Y67100D02*
X261500Y65600D01*
X259500Y71600D02*
Y144100D01*
X259000Y144600D02*
X259500Y144100D01*
X235000Y187100D02*
Y189600D01*
X240000Y194600D01*
X268500D01*
X270000Y193100D01*
Y53100D02*
Y193100D01*
Y53100D02*
X270500Y52600D01*
X275000Y187100D02*
Y192100D01*
X270500Y196600D02*
X275000Y192100D01*
X235000Y196600D02*
X270500D01*
X230000Y191600D02*
X235000Y196600D01*
X230000Y79600D02*
X231500Y81100D01*
Y87100D01*
X62500Y52600D02*
X65500Y55600D01*
Y100600D01*
X61000Y105100D02*
X65500Y100600D01*
X98000Y35600D02*
Y46600D01*
X86000Y58600D02*
X98000Y46600D01*
X98500Y88100D02*
Y113600D01*
Y88100D02*
X100500Y86100D01*
Y73100D02*
Y86100D01*
X86000Y58600D02*
X100500Y73100D01*
X101000Y116100D02*
Y130600D01*
X98500Y113600D02*
X101000Y116100D01*
X102000Y87600D02*
X103000D01*
X100500Y86100D02*
X102000Y87600D01*
X96000Y18600D02*
X99500Y15100D01*
X96000Y18600D02*
Y33600D01*
X98000Y35600D01*
X77000Y42100D02*
X77500Y41600D01*
Y18600D02*
Y41600D01*
Y18600D02*
X80000Y16100D01*
X84000D02*
X84500D01*
X80000D02*
X84000D01*
X115500Y45600D02*
Y55600D01*
X126000Y66100D01*
Y68100D01*
X141500Y73100D02*
X143000Y71600D01*
X210500Y81100D02*
X211000Y81600D01*
X254500Y78100D02*
X255000Y77600D01*
X256500Y81600D02*
X257500Y80600D01*
X161500Y135600D02*
X165500D01*
X171000Y141100D01*
Y148100D01*
X164500Y154600D02*
X171000Y148100D01*
X297500Y134100D02*
Y147100D01*
X295000Y131600D02*
X297500Y134100D01*
X295000Y105600D02*
Y131600D01*
Y105600D02*
X297500Y103100D01*
Y59600D02*
Y103100D01*
X296000Y58100D02*
X297500Y59600D01*
X288000Y58100D02*
X296000D01*
X287500Y57600D02*
X288000Y58100D01*
X70000Y54600D02*
Y59100D01*
X67500Y61600D02*
X70000Y59100D01*
X67500Y61600D02*
Y68100D01*
X70000Y70600D01*
X61500Y46100D02*
X70000Y54600D01*
Y70600D02*
Y102100D01*
X73000Y105100D01*
X76000D01*
X245500Y75600D02*
Y76100D01*
X237500Y84100D02*
Y130100D01*
Y84100D02*
X240500Y81100D01*
X243500D01*
X245500Y79100D01*
Y75600D02*
Y79100D01*
X172500Y45100D02*
X173000D01*
X172500D02*
X173000Y44600D01*
X28500Y144100D02*
Y159100D01*
X35000Y165600D01*
X36000D01*
X34500Y144100D02*
Y150100D01*
X37000Y152600D01*
X43500D01*
X35500Y95600D02*
Y130600D01*
X38000Y133100D01*
X262500Y40100D02*
Y50100D01*
X265000Y84100D02*
X265500Y83600D01*
Y64600D02*
Y83600D01*
X261500Y60600D02*
X265500Y64600D01*
X261500Y51100D02*
X262500Y50100D01*
X111000Y122600D02*
Y142600D01*
Y122600D02*
X113500Y120100D01*
X117500D01*
X118500Y121100D01*
X132500Y123600D02*
X135500Y120600D01*
Y72100D02*
Y120600D01*
X133500Y70100D02*
X135500Y72100D01*
X133500Y67600D02*
Y70100D01*
X131000Y65100D02*
X133500Y67600D01*
X150000Y141100D02*
X155000Y146100D01*
X157500D01*
X136500Y70600D02*
X137500Y71600D01*
Y134100D01*
X136000Y135600D02*
X137500Y134100D01*
X56400Y148100D02*
Y154600D01*
Y148100D02*
X71000Y133500D01*
X63400Y150100D02*
Y151600D01*
X69900Y158100D01*
X60500Y19600D02*
Y25600D01*
X55500Y14600D02*
X60500Y19600D01*
X247500Y66600D02*
X249000D01*
X76000Y91600D02*
X77000D01*
X78000Y90600D01*
Y62100D02*
Y90600D01*
X76500Y60600D02*
X78000Y62100D01*
X4500Y36600D02*
X17000Y24100D01*
X4500Y36600D02*
Y125100D01*
X32500Y26100D02*
Y79100D01*
X28500Y22100D02*
X32500Y26100D01*
X31000Y95100D02*
Y106600D01*
X12500Y73100D02*
X13000Y73600D01*
Y77100D02*
X31000Y95100D01*
X13000Y73600D02*
Y77100D01*
X38500Y38600D02*
Y70600D01*
X51000Y83100D01*
X54000Y56100D02*
X56000Y58100D01*
Y78100D01*
X51000Y83100D02*
X56000Y78100D01*
X18500Y41100D02*
Y71600D01*
X49500Y102600D01*
Y122600D01*
X278500Y98100D02*
X280000Y96600D01*
X284000Y50600D02*
X287500D01*
X282500Y52100D02*
X284000Y50600D01*
X282500Y52100D02*
Y139100D01*
X281000Y140600D02*
X282500Y139100D01*
X288000Y38600D02*
X290000D01*
X293500Y42100D01*
Y49600D01*
X288500Y54600D02*
X293500Y49600D01*
X286000Y54600D02*
X288500D01*
X284500Y56100D02*
X286000Y54600D01*
X284500Y56100D02*
Y154100D01*
X282500Y156100D02*
X284500Y154100D01*
X212500Y69600D02*
X216500Y73600D01*
X212500Y40100D02*
Y69600D01*
Y40100D02*
X217000Y35600D01*
X218000D01*
X214000Y145100D02*
Y153600D01*
X210500Y141600D02*
X214000Y145100D01*
X254500Y101600D02*
X255000Y102100D01*
Y149600D01*
X254500Y150100D02*
X255000Y149600D01*
X210500Y114100D02*
Y141600D01*
Y114100D02*
X214500Y110100D01*
Y103100D02*
Y110100D01*
X164000Y86600D02*
Y105100D01*
X169000Y110100D01*
X172000D01*
X235000Y74600D02*
X236500Y76100D01*
X239500D01*
X240000Y76600D01*
X166000Y55600D02*
X170000Y59600D01*
Y87100D01*
X166000Y91100D02*
X170000Y87100D01*
X166000Y91100D02*
Y95600D01*
Y96100D01*
X165000Y115100D02*
Y127100D01*
X173000Y135100D01*
Y158100D01*
X165000Y115100D02*
X167000Y113100D01*
X166000Y97600D02*
X174000Y105600D01*
X174500Y106100D01*
X166000Y95600D02*
Y97600D01*
X167000Y113100D02*
X173500D01*
X175500Y111100D01*
Y107100D02*
Y111100D01*
X174000Y105600D02*
X175500Y107100D01*
X315000Y64100D02*
Y69600D01*
X311000Y73600D02*
X315000Y69600D01*
X311000Y73600D02*
Y104100D01*
X312500Y105600D01*
Y131100D01*
X307500Y136100D02*
X312500Y131100D01*
X105500Y156100D02*
X110500Y151100D01*
X64500Y192900D02*
X68000Y196400D01*
X64500Y188900D02*
Y192900D01*
X68000Y196400D02*
X84500D01*
X306500Y74600D02*
X309000Y77100D01*
Y101600D01*
X306500Y104100D02*
X309000Y101600D01*
X306500Y104100D02*
Y108600D01*
X262500Y35100D02*
Y35600D01*
X280000Y44600D02*
Y96600D01*
X256000Y7100D02*
Y33600D01*
X262500Y40100D01*
X205864Y30464D02*
X210500Y35100D01*
X306500Y74600D02*
X308000Y73100D01*
Y64600D02*
Y73100D01*
X139500Y32900D02*
X143500Y28900D01*
Y28400D02*
Y28900D01*
X154300Y23800D02*
X154500D01*
X166000Y52100D02*
Y55600D01*
X220000Y54600D02*
X220000Y54600D01*
X246500Y62600D02*
X247000D01*
X245500Y63600D02*
Y75600D01*
Y63600D02*
X246500Y62600D01*
X261500Y51100D02*
Y60600D01*
X258500Y55100D02*
Y61100D01*
X257500Y62100D02*
X258500Y61100D01*
X257500Y62100D02*
Y80600D01*
X255000Y57600D02*
Y77600D01*
X230000Y50600D02*
X235500Y45100D01*
Y44080D02*
Y45100D01*
X239000Y39600D02*
Y44540D01*
X237840Y45700D02*
X239000Y44540D01*
X237840Y45700D02*
X237840D01*
X235000Y48540D02*
X237840Y45700D01*
X235000Y48540D02*
Y74600D01*
X219800Y54400D02*
X220000Y54600D01*
X219500Y60700D02*
Y70100D01*
X230000Y50600D02*
Y79600D01*
X220000Y54600D02*
X222400Y57000D01*
Y59760D01*
X225100Y62460D01*
Y68360D01*
X223000Y70460D02*
X225100Y68360D01*
X223000Y70460D02*
Y81100D01*
X219000Y60200D02*
X219500Y60700D01*
X217400Y54400D02*
X219800D01*
X197000Y47100D02*
X198000D01*
X200400Y44700D01*
X203000Y88600D02*
Y92600D01*
X205500Y89600D02*
X206100Y89000D01*
X203000Y88600D02*
X205600Y86000D01*
X206100Y87763D02*
X207200Y86663D01*
X206100Y87763D02*
Y89000D01*
X208800Y85400D02*
X213500Y90100D01*
X208700Y80440D02*
X208800Y80340D01*
X208700Y80440D02*
Y82760D01*
X207200Y73478D02*
Y79677D01*
X207100Y79777D02*
X207200Y79677D01*
X207100Y79777D02*
Y83422D01*
X205500Y79115D02*
X205600Y79015D01*
X205500Y79115D02*
Y84085D01*
X206100Y70320D02*
Y72378D01*
X207200Y73478D01*
X203500Y56100D02*
Y62503D01*
X210500Y35100D02*
Y81100D01*
X208500Y45600D02*
Y72100D01*
X208293Y72307D02*
X208500Y72100D01*
X208293Y72307D02*
Y72307D01*
X208800Y72815D01*
Y80340D01*
X205600Y74140D02*
Y79015D01*
X193520Y56020D02*
Y56463D01*
X192400Y57583D02*
X193520Y56463D01*
X186700Y50200D02*
Y51940D01*
X186340Y52300D02*
X186700Y51940D01*
X186040Y52300D02*
X186340D01*
X190000Y57460D02*
X190700Y58160D01*
X184400Y53940D02*
X186040Y52300D01*
X190000Y52000D02*
Y57460D01*
X198300Y51000D02*
X198400Y50900D01*
X190000Y52000D02*
X190700Y51300D01*
X192800Y55300D02*
X193520Y56020D01*
X196400Y59240D02*
X198300Y57340D01*
Y51000D02*
Y57340D01*
X223000Y81100D02*
X223500Y81600D01*
X205500Y84085D02*
X205600Y84185D01*
Y86000D01*
X207100Y83422D02*
X207200Y83522D01*
Y86663D01*
X208700Y82760D02*
X208800Y82860D01*
Y85400D01*
X211000Y81600D02*
X211500D01*
X202900Y69200D02*
X202900Y69200D01*
X202900Y69200D02*
Y71440D01*
X205600Y74140D01*
X205700Y69920D02*
X206100Y70320D01*
X184400Y53940D02*
Y69540D01*
X196400Y59240D02*
Y61517D01*
X192400Y57583D02*
Y61517D01*
X192200Y61717D02*
X192400Y61517D01*
X189400Y66000D02*
Y107278D01*
X187800Y68360D02*
Y107940D01*
X186600Y67160D02*
X187800Y68360D01*
X186600Y64840D02*
Y67160D01*
X184400Y69540D02*
X186200Y71340D01*
Y108603D01*
X182500Y74100D02*
X183400D01*
X190700Y58160D02*
Y60740D01*
X186600Y64840D02*
X190700Y60740D01*
X196400Y61517D02*
X197100Y62217D01*
Y64378D01*
X186200Y108603D02*
X187200Y109603D01*
X203300Y66663D02*
Y67126D01*
X192200Y61717D02*
Y67840D01*
X200463Y65540D02*
X203500Y62503D01*
X197100Y64378D02*
X197263Y64540D01*
X202063Y68363D02*
X203300Y67126D01*
X202063Y68363D02*
X202900Y69200D01*
X198900Y73585D02*
X200463Y72022D01*
Y65540D02*
Y72022D01*
X197263Y64540D02*
Y70697D01*
X195560Y72400D02*
X197263Y70697D01*
X194700Y72400D02*
X195560D01*
X191600Y68440D02*
X192200Y67840D01*
X191600Y68440D02*
Y107215D01*
X194700Y72400D02*
Y102100D01*
X193900Y102900D02*
X194700Y102100D01*
X198900Y73585D02*
Y102426D01*
X197200Y104125D02*
X198900Y102426D01*
X197200Y106026D02*
X199800Y108626D01*
X197200Y104125D02*
Y106026D01*
X193900Y102900D02*
Y107252D01*
X196600Y109952D01*
X187200Y109603D02*
Y110940D01*
X191800Y111940D02*
Y114260D01*
X193400Y111277D02*
Y114922D01*
X195000Y110615D02*
Y115585D01*
X198200Y119174D02*
X199800Y117573D01*
X187800Y107940D02*
X191800Y111940D01*
X189400Y107278D02*
X193400Y111277D01*
X191600Y107215D02*
X195000Y110615D01*
X199800Y108626D02*
Y117573D01*
X196600Y109952D02*
Y116248D01*
X193500Y119348D02*
X196600Y116248D01*
X191900Y118685D02*
X195000Y115585D01*
X190300Y118023D02*
X193400Y114922D01*
X191900Y118685D02*
Y145895D01*
X190300Y118023D02*
Y145233D01*
X193500Y119348D02*
Y146558D01*
X189175Y150883D02*
X193500Y146558D01*
X206500Y113100D02*
X207000Y113600D01*
Y156100D01*
X197200Y161879D02*
X202625Y156454D01*
Y151546D02*
Y156454D01*
X198200Y147121D02*
X202625Y151546D01*
X198200Y119174D02*
Y147121D01*
X187575Y150220D02*
Y157780D01*
X190300Y160505D01*
X185975Y149558D02*
Y158442D01*
X188700Y161167D01*
X184375Y159105D02*
X187100Y161830D01*
X182775Y159768D02*
X185300Y162293D01*
X182775Y115365D02*
Y159768D01*
X184375Y121685D02*
Y159105D01*
X187575Y150220D02*
X191900Y145895D01*
X185975Y149558D02*
X190300Y145233D01*
X184375Y121685D02*
X191800Y114260D01*
X182775Y115365D02*
X187200Y110940D01*
X189175Y150883D02*
Y157117D01*
X205600Y42700D02*
X205900Y43000D01*
X205600Y42000D02*
Y42700D01*
X200400Y44700D02*
Y44800D01*
X205900Y43000D02*
X208500Y45600D01*
X158500Y167600D02*
X159500Y166600D01*
X158500Y152115D02*
Y157085D01*
X159500Y158085D01*
Y166600D01*
X158500Y152115D02*
X160300Y150315D01*
X152000Y136640D02*
X160300Y144940D01*
Y150315D01*
X161400Y135500D02*
X161500Y135600D01*
X161200Y132260D02*
X161400Y132460D01*
Y135500D01*
X161200Y131315D02*
Y132260D01*
X157200Y127315D02*
X161200Y131315D01*
X157200Y124940D02*
X157423Y124717D01*
X157200Y124940D02*
Y127315D01*
X148500Y29600D02*
X154300Y23800D01*
X144500Y67600D02*
X146500Y69600D01*
X157200Y97440D02*
Y99760D01*
X157423Y99983D01*
X149500Y90085D02*
X152000Y92585D01*
Y136640D01*
X147900Y90748D02*
X150000Y92848D01*
Y141100D01*
X146300Y91411D02*
X148000Y93111D01*
X157200Y97440D02*
X160000Y94640D01*
Y88100D02*
Y94640D01*
X157423Y99983D02*
Y124717D01*
X144700Y175437D02*
X146400Y177137D01*
X143100Y176100D02*
X144800Y177800D01*
X136500Y65600D02*
Y70600D01*
X139500Y32900D02*
Y177600D01*
X143000Y67600D02*
X144500D01*
X156300Y62500D02*
Y66960D01*
X154100Y60300D02*
X156300Y62500D01*
X156700Y57200D02*
X157900Y58400D01*
X155150Y68110D02*
X156300Y66960D01*
X143100Y75500D02*
Y176100D01*
Y75500D02*
X146500Y72100D01*
Y69600D02*
Y72100D01*
X155150Y68110D02*
Y71276D01*
X153500Y65800D02*
Y70663D01*
X148500Y29600D02*
Y73400D01*
X144700Y77201D02*
X148500Y73400D01*
X146300Y77863D02*
X153500Y70663D01*
X147900Y78526D02*
X155150Y71276D01*
X149500Y79189D02*
Y90085D01*
X147900Y78526D02*
Y90748D01*
X146300Y77863D02*
Y91411D01*
X144700Y77201D02*
Y175437D01*
X149500Y79189D02*
X157900Y70789D01*
Y58400D02*
Y70789D01*
X160200Y9300D02*
Y24980D01*
X156500Y5600D02*
X160200Y9300D01*
X148000Y93111D02*
Y177100D01*
X185300Y162293D02*
Y166600D01*
X188700Y161167D02*
Y171040D01*
X187700Y172040D02*
X188700Y171040D01*
X187700Y172040D02*
Y174360D01*
X187100Y161830D02*
Y170378D01*
X186100Y171378D02*
X187100Y170378D01*
X186100Y171378D02*
Y175022D01*
X184500Y175685D02*
X185000Y176185D01*
X184500Y167400D02*
Y175685D01*
X189175Y157117D02*
X193300Y161242D01*
X184500Y167400D02*
X185300Y166600D01*
X190300Y160505D02*
Y173200D01*
X192800Y176700D02*
X193300Y176200D01*
Y161242D02*
Y176200D01*
X186100Y175022D02*
X188000Y176923D01*
X187700Y174360D02*
X189600Y176260D01*
X185000Y176185D02*
Y178300D01*
X197200Y161879D02*
Y177740D01*
X198400Y178940D01*
Y182200D01*
X188000Y176923D02*
Y181340D01*
X189600Y176260D02*
Y183200D01*
X186800Y182540D02*
X188000Y181340D01*
X186800Y182540D02*
Y194800D01*
X196900Y183700D02*
X198400Y182200D01*
X196900Y183700D02*
Y189200D01*
X153014Y190599D02*
X156500D01*
X141600Y179700D02*
Y181448D01*
X143200Y178800D02*
Y180785D01*
X144800Y177800D02*
Y180122D01*
X146400Y177137D02*
Y179460D01*
X141600Y181448D02*
X146500Y186348D01*
Y190599D01*
X143200Y180785D02*
X153014Y190599D01*
X144800Y180122D02*
X150178Y185500D01*
X146400Y179460D02*
X150840Y183900D01*
X150700Y179800D02*
X151200D01*
X148000Y177100D02*
X150700Y179800D01*
X84500Y160100D02*
X88500Y156100D01*
X105500D01*
D47*
X241500Y167100D02*
X243000Y168600D01*
X241500Y153600D02*
Y167100D01*
X274500Y91100D02*
Y153600D01*
Y70100D02*
Y91100D01*
X265000Y36600D02*
X272000D01*
X136000Y151100D02*
Y176100D01*
X182500Y24600D02*
Y39100D01*
X178500D02*
X182500D01*
X272000Y36600D02*
X274500Y39100D01*
Y70100D01*
X182000Y39600D02*
X182500Y39100D01*
X182000Y73600D02*
X182500Y74100D01*
X182000Y39600D02*
Y73600D01*
X180375Y76225D02*
X182500Y74100D01*
X176600Y157375D02*
X180375Y153600D01*
X176600Y157375D02*
Y159591D01*
X171991Y164200D02*
X176600Y159591D01*
X165500Y164200D02*
X171991D01*
X180375Y76225D02*
Y153600D01*
X162700Y166491D02*
Y176600D01*
X161900Y165691D02*
X162700Y166491D01*
X161900Y162709D02*
Y165691D01*
Y162709D02*
X162700Y161909D01*
Y158700D02*
Y161909D01*
X162100Y158100D02*
X162700Y158700D01*
X162100Y157291D02*
Y158100D01*
X160900Y156091D02*
X162100Y157291D01*
X160900Y153109D02*
Y156091D01*
Y153109D02*
X162700Y151309D01*
Y143946D02*
Y151309D01*
X159000Y140246D02*
X162700Y143946D01*
X159000Y133454D02*
Y140246D01*
X158600Y133054D02*
X159000Y133454D01*
X158600Y132109D02*
Y133054D01*
X154800Y128309D02*
X158600Y132109D01*
X154800Y123946D02*
Y128309D01*
Y123946D02*
X155023Y123723D01*
Y100977D02*
Y123723D01*
X154800Y100754D02*
X155023Y100977D01*
X154800Y91991D02*
Y100754D01*
X151900Y89091D02*
X154800Y91991D01*
X151900Y83800D02*
Y89091D01*
Y83800D02*
X152950Y82750D01*
X241500Y84600D02*
Y153600D01*
D48*
X194400Y62628D02*
Y69600D01*
X152950Y78850D02*
Y82750D01*
Y78850D02*
X161300Y70500D01*
Y48300D02*
Y70500D01*
Y48300D02*
X164800Y44800D01*
Y29708D02*
Y44800D01*
X163600Y28508D02*
X164800Y29708D01*
X163600Y25692D02*
Y28508D01*
Y25692D02*
X163600Y25692D01*
X163600Y18500D02*
X176500Y5600D01*
X163600Y18500D02*
Y19792D01*
X163600Y19792D01*
Y25692D01*
D49*
X111000Y179600D02*
D03*
X226000Y16600D02*
D03*
D50*
X24303Y182800D02*
D03*
Y168986D02*
D03*
D51*
X176500Y5600D02*
D03*
Y200600D02*
D03*
D52*
X166500Y5600D02*
D03*
X156500D02*
D03*
X146500D02*
D03*
X136500D02*
D03*
X126500D02*
D03*
X116500D02*
D03*
X106500D02*
D03*
X166500Y200600D02*
D03*
X156500D02*
D03*
X146500D02*
D03*
X136500D02*
D03*
X126500D02*
D03*
X116500D02*
D03*
X106500D02*
D03*
D53*
X196700Y154000D02*
D03*
D54*
X14700Y103006D02*
D03*
X14700Y91101D02*
D03*
D55*
X295000Y187102D02*
D03*
X176500Y190600D02*
D03*
D56*
X295000Y177102D02*
D03*
X285000Y187101D02*
D03*
X285000Y177101D02*
D03*
X275000Y187101D02*
D03*
X275000Y177101D02*
D03*
X265000Y187101D02*
D03*
X265000Y177101D02*
D03*
X255000Y187100D02*
D03*
X255000Y177100D02*
D03*
X245000Y187100D02*
D03*
X245000Y177100D02*
D03*
X235000Y187100D02*
D03*
X235000Y177100D02*
D03*
X225000Y187099D02*
D03*
X225000Y177099D02*
D03*
X215000Y187099D02*
D03*
X215000Y177099D02*
D03*
X205000Y187098D02*
D03*
X205000Y177098D02*
D03*
X166500Y190600D02*
D03*
X156500Y190599D02*
D03*
X146500Y190599D02*
D03*
X136500Y190599D02*
D03*
X126500Y190598D02*
D03*
D57*
X39700Y168600D02*
D03*
X44657Y132900D02*
D03*
X50100Y131800D02*
D03*
X93700Y132500D02*
D03*
X72900Y133500D02*
D03*
X62300Y133100D02*
D03*
X40000Y173700D02*
D03*
X250000Y35100D02*
D03*
X226300Y112600D02*
D03*
X224300Y93900D02*
D03*
X216500Y98600D02*
D03*
X210500D02*
D03*
X221500Y99100D02*
D03*
X233000Y92600D02*
D03*
X118200Y14000D02*
D03*
X103000Y15100D02*
D03*
X205864Y29445D02*
D03*
X72900Y149600D02*
D03*
X45800Y128900D02*
D03*
X95500Y122600D02*
D03*
X107500Y138600D02*
D03*
X59500Y30100D02*
D03*
X81000Y35100D02*
D03*
X99000Y52600D02*
D03*
X160000Y126100D02*
D03*
X169500Y127100D02*
D03*
X160000Y98600D02*
D03*
X76000Y96600D02*
D03*
X109500Y13600D02*
D03*
X130000Y69100D02*
D03*
X166000Y69600D02*
D03*
X127400Y39400D02*
D03*
X265000Y118100D02*
D03*
X290000Y70600D02*
D03*
X306000Y79100D02*
D03*
X155000Y133600D02*
D03*
X73500Y64100D02*
D03*
X29500Y65600D02*
D03*
X290000Y25600D02*
D03*
X189500Y25100D02*
D03*
X125500Y153100D02*
D03*
X41500Y186100D02*
D03*
X89000Y183400D02*
D03*
X7500Y183100D02*
D03*
X18500Y182600D02*
D03*
X17500Y171100D02*
D03*
X17000Y96600D02*
D03*
X31000Y114100D02*
D03*
X28500Y86100D02*
D03*
Y75600D02*
D03*
X43500Y42600D02*
D03*
X42500Y21100D02*
D03*
X60500Y38600D02*
D03*
X126200Y35200D02*
D03*
X130500Y34200D02*
D03*
X121000Y67600D02*
D03*
X113000Y78600D02*
D03*
X126500Y112600D02*
D03*
X155000Y35100D02*
D03*
X262000Y9400D02*
D03*
X293500Y100100D02*
D03*
X290000Y118100D02*
D03*
X291500Y128600D02*
D03*
X289500Y145600D02*
D03*
X223500Y136600D02*
D03*
X237500Y150600D02*
D03*
X262000Y149100D02*
D03*
X70000Y17100D02*
D03*
X86000Y102100D02*
D03*
X93500Y152600D02*
D03*
X102500D02*
D03*
X130500D02*
D03*
X10500Y179100D02*
D03*
X22500Y34100D02*
D03*
X225000Y195100D02*
D03*
X290500Y196600D02*
D03*
X307000Y176100D02*
D03*
X308000Y141100D02*
D03*
X314500D02*
D03*
X315000Y94100D02*
D03*
X316000Y53100D02*
D03*
X313500Y39100D02*
D03*
X195400Y6900D02*
D03*
X217000Y127600D02*
D03*
X204000Y136100D02*
D03*
X134500Y130600D02*
D03*
X56500Y86600D02*
D03*
X17000Y177100D02*
D03*
X21000Y176100D02*
D03*
X97000Y83600D02*
D03*
X100500Y19100D02*
D03*
X301000Y162100D02*
D03*
X307000Y46600D02*
D03*
X298000Y121600D02*
D03*
X45500Y175400D02*
D03*
X297000Y160100D02*
D03*
X306500Y53100D02*
D03*
X307000Y121600D02*
D03*
X243000Y168600D02*
D03*
X241500Y153600D02*
D03*
X274500D02*
D03*
X274000Y72100D02*
D03*
X274500Y91100D02*
D03*
X241500Y84600D02*
D03*
X61500Y178900D02*
D03*
X136000Y176100D02*
D03*
Y151100D02*
D03*
X54500Y50600D02*
D03*
X43400Y162600D02*
D03*
X56500Y105100D02*
D03*
X115500Y17100D02*
D03*
X92500Y36100D02*
D03*
X84500Y107600D02*
D03*
X76000Y158100D02*
D03*
X69500Y190400D02*
D03*
X159500Y43100D02*
D03*
X281500Y38600D02*
D03*
X241500Y72600D02*
D03*
X308000Y60100D02*
D03*
X264500Y169600D02*
D03*
Y58100D02*
D03*
X261500Y65600D02*
D03*
X270500Y52600D02*
D03*
X61000Y105100D02*
D03*
X62500Y52600D02*
D03*
X134000Y57600D02*
D03*
X98000Y35600D02*
D03*
X86000Y58600D02*
D03*
X98500Y113600D02*
D03*
X57000Y111100D02*
D03*
X101000Y130600D02*
D03*
X103000Y87600D02*
D03*
X109500Y28100D02*
D03*
X84000Y16100D02*
D03*
X77000Y42100D02*
D03*
X111000Y45600D02*
D03*
X115500D02*
D03*
X126000Y68100D02*
D03*
X182500Y24600D02*
D03*
X178500Y39100D02*
D03*
X143000Y71600D02*
D03*
X252000Y69600D02*
D03*
X254500Y78100D02*
D03*
X155500Y87600D02*
D03*
X256500Y81600D02*
D03*
X160500Y76600D02*
D03*
X160000Y88100D02*
D03*
X164500Y154600D02*
D03*
X297500Y147100D02*
D03*
X287500Y57600D02*
D03*
X131000Y114600D02*
D03*
X171500Y116100D02*
D03*
X76000Y105100D02*
D03*
X61500Y46100D02*
D03*
X129000Y45600D02*
D03*
X121500Y149100D02*
D03*
X164000Y131100D02*
D03*
X237500Y130100D02*
D03*
X173000Y45100D02*
D03*
X22000Y144100D02*
D03*
X28500D02*
D03*
X36000Y165600D02*
D03*
X34500Y144100D02*
D03*
X88000Y151600D02*
D03*
X35500Y95600D02*
D03*
X104500Y20600D02*
D03*
X265000Y84100D02*
D03*
X111000Y142600D02*
D03*
X118500Y121100D02*
D03*
X126500Y87100D02*
D03*
X246000Y84600D02*
D03*
X117000Y104100D02*
D03*
X130000Y84100D02*
D03*
X253000Y84600D02*
D03*
X123000Y105100D02*
D03*
X245500Y99600D02*
D03*
X84500Y96100D02*
D03*
X119000Y81600D02*
D03*
X131000Y65100D02*
D03*
X132500Y123600D02*
D03*
X157500Y146100D02*
D03*
X76000Y145600D02*
D03*
X136000Y135600D02*
D03*
X56400Y154600D02*
D03*
X100000Y179100D02*
D03*
X63400Y150100D02*
D03*
X69900Y158100D02*
D03*
X60500Y25600D02*
D03*
X55500Y14600D02*
D03*
X249000Y66600D02*
D03*
X73500Y53100D02*
D03*
X44000Y60100D02*
D03*
X76500Y60600D02*
D03*
X76000Y91600D02*
D03*
X17000Y24100D02*
D03*
X4500Y125100D02*
D03*
X124000Y121600D02*
D03*
X32500Y79100D02*
D03*
X28500Y22100D02*
D03*
X31000Y106600D02*
D03*
X12500Y73100D02*
D03*
X38500Y38600D02*
D03*
X51000Y83100D02*
D03*
X54000Y56100D02*
D03*
X85500Y53600D02*
D03*
X18500Y41100D02*
D03*
X49500Y122600D02*
D03*
X264500Y101100D02*
D03*
X92000Y103600D02*
D03*
X278500Y98100D02*
D03*
X287500Y50600D02*
D03*
X281000Y140600D02*
D03*
X234500Y138600D02*
D03*
X288000Y38600D02*
D03*
X282500Y156100D02*
D03*
X206500Y113100D02*
D03*
X251500Y98600D02*
D03*
X218000Y35600D02*
D03*
X254500Y101600D02*
D03*
X255000Y149600D02*
D03*
X214000Y153600D02*
D03*
X172500Y94100D02*
D03*
X205000Y94600D02*
D03*
X164000Y86600D02*
D03*
X172000Y110100D02*
D03*
X227000Y84100D02*
D03*
X200000Y36100D02*
D03*
X240000Y76600D02*
D03*
X158500Y167600D02*
D03*
X50400Y158100D02*
D03*
X173000D02*
D03*
X80000Y156600D02*
D03*
X39900Y143600D02*
D03*
X67400Y145600D02*
D03*
X9500Y144600D02*
D03*
X103000Y140100D02*
D03*
X265000Y53100D02*
D03*
X315000Y64100D02*
D03*
X307500Y136100D02*
D03*
X64500Y188900D02*
D03*
X84500Y198900D02*
D03*
X110500Y151100D02*
D03*
X264500Y123600D02*
D03*
X262500Y74600D02*
D03*
X279000Y115600D02*
D03*
X66500Y185400D02*
D03*
X101000Y197100D02*
D03*
X306500Y108600D02*
D03*
X247000Y25100D02*
D03*
X262500Y35100D02*
D03*
X280000Y44600D02*
D03*
X256000Y7100D02*
D03*
X200600Y32100D02*
D03*
X200853Y26537D02*
D03*
X308000Y64600D02*
D03*
X121500Y35600D02*
D03*
X143500Y28400D02*
D03*
X154500Y23800D02*
D03*
X151700Y11000D02*
D03*
X156600Y13900D02*
D03*
X184200Y7900D02*
D03*
X176400Y13100D02*
D03*
X166000Y52100D02*
D03*
X178000Y56100D02*
D03*
X173000Y68600D02*
D03*
X246500Y62600D02*
D03*
X258500Y55100D02*
D03*
X225500Y45100D02*
D03*
X231500Y44100D02*
D03*
X245700Y52600D02*
D03*
X255000Y57600D02*
D03*
X249000Y59100D02*
D03*
X239000Y39600D02*
D03*
X244500Y56600D02*
D03*
X241000Y60100D02*
D03*
X241200Y54100D02*
D03*
X239000Y48500D02*
D03*
X235500Y44080D02*
D03*
X219500Y70100D02*
D03*
X225200Y57800D02*
D03*
X222700Y49500D02*
D03*
X222300Y67200D02*
D03*
X219000Y60200D02*
D03*
X217400Y54400D02*
D03*
X186700Y50200D02*
D03*
X187900Y46000D02*
D03*
X203500Y56100D02*
D03*
X187200Y55100D02*
D03*
X198400Y50900D02*
D03*
X190700Y51300D02*
D03*
X192800Y55300D02*
D03*
X223500Y81600D02*
D03*
X211500D02*
D03*
X205700Y69920D02*
D03*
X199300Y60300D02*
D03*
X189400Y66000D02*
D03*
X183400Y74100D02*
D03*
X203300Y66663D02*
D03*
X194400Y69600D02*
D03*
X202000Y74500D02*
D03*
X189000Y113100D02*
D03*
X202600Y116600D02*
D03*
X207000Y156100D02*
D03*
X165500Y164200D02*
D03*
X205600Y42000D02*
D03*
X200400Y44800D02*
D03*
X162700Y176600D02*
D03*
X156700Y163600D02*
D03*
X164800Y140800D02*
D03*
X154100Y60300D02*
D03*
X156700Y57200D02*
D03*
X156500Y50000D02*
D03*
X136500Y65600D02*
D03*
X143000Y67600D02*
D03*
X153500Y65800D02*
D03*
X270700Y21900D02*
D03*
X268800Y26600D02*
D03*
X167000Y27100D02*
D03*
X160200Y24980D02*
D03*
X126900Y179400D02*
D03*
X190500Y173200D02*
D03*
X192800Y176700D02*
D03*
X185200Y178300D02*
D03*
X190100Y183200D02*
D03*
X196900Y189200D02*
D03*
X186800Y194800D02*
D03*
X151200Y179800D02*
D03*
X245500Y137600D02*
D03*
X43900Y151900D02*
D03*
M02*
