M48
;Layer_Color=9474304
;FILE_FORMAT=2:5
INCH,LZ
;TYPE=PLATED
T1F00S00C0.01600
T2F00S00C0.03600
T3F00S00C0.04000
T4F00S00C0.04500
T5F00S00C0.06300
T6F00S00C0.07900
%
T01
X0017Y00241
X00285Y00221
X00425Y00211
X00555Y00146
X00545Y00506
X0054Y00561
X00435Y00426
X00385Y00386
X00225Y00341
X00185Y00411
X00605Y00386
X00615Y00461
X00625Y00526
X00735Y00531
X00855Y00536
X0086Y00586
X0099Y00526
X0098Y00356
X00925Y00361
X0081Y00351
X0077Y00421
X00595Y00301
X00605Y00256
X007Y00171
X0084Y00161
X01005Y00191
X01045Y00206
X0103Y00151
X01095Y00136
X01182Y0014
X01155Y00171
X01095Y00281
X0111Y00456
X01155
X0129
X01274Y00394
X01262Y00352
X01215Y00356
X01305Y00342
X01435Y00284
X01545Y00238
X01602Y002498
X0167Y00271
X01825Y00246
X01895Y00251
X0200853Y0026537
X02006Y00321
X02Y00361
X02004Y00448
X02056Y0042
X0205864Y0029445
X01984Y00509
X01907Y00513
X01867Y00502
X01879Y0046
X01872Y00551
X01928Y00553
X02035Y00561
X0178
X0173Y00451
X01785Y00391
X01595Y00431
X01565Y005
X01567Y00572
X0166Y00521
X0155Y00351
X01566Y00139
X01517Y0011
X01764Y00131
X01842Y00079
X01954Y00069
X0134Y00576
X02174Y00544
X02227Y00495
X02255Y00451
X02315Y00441
X02355Y004408
X0239Y00485
X02412Y00541
X02445Y00566
X02457Y00526
X0249Y00591
X0255Y00576
X02585Y00551
X0265Y00531
X02645Y00581
X02705Y00526
X028Y00446
X02815Y00386
X0288
X02875Y00506
Y00576
X03065Y00531
X0307Y00466
X03135Y00391
X0316Y00531
X029Y00256
X02688Y00266
X02707Y00219
X0262Y00094
X0256Y00071
X0247Y00251
X025Y00351
X02625
X0239Y00396
X0218Y00356
X02252Y00578
X0219Y00602
X02223Y00672
X02195Y00701
X02235Y00816
X0227Y00841
X02243Y00939
X02215Y00991
X02165Y00986
X0233Y00926
X02415Y00846
X0246
X0253
X02565Y00816
X02545Y00781
X0252Y00696
X0249Y00666
X02465Y00626
X0241Y00601
X02415Y00726
X024Y00766
X02625Y00746
X02615Y00656
X0274Y00721
X029Y00706
X0308Y00646
Y00601
X0315Y00641
X0306Y00791
X0315Y00941
X03065Y01086
X0307Y01216
X0298
X029Y01181
X02915Y01286
X02895Y01456
X02975Y01471
X0297Y01601
X0301Y01621
X0307Y01761
X0308Y01411
X03075Y01361
X03145Y01411
X0281Y01406
X02825Y01561
X02745Y01536
X0262Y01491
X0255Y01496
X02415Y01536
X02375Y01506
X02345Y01386
X02375Y01301
X02455Y01376
X02235Y01366
X0217Y01276
X02263Y01126
X02455Y00996
X02515Y00986
X02545Y01016
X02645Y01011
X02785Y00981
X02745Y00911
X0265Y00841
Y01181
X02645Y01236
X0279Y01156
X02935Y01001
X02645Y01696
X0243Y01686
X0214Y01536
X0225Y01951
X02905Y01966
X01969Y01892
X01901Y01832
X01928Y01767
X01905Y01732
X01852Y01783
X01868Y01948
X01627Y01766
X01585Y01676
X01567Y01636
X01655Y01642
X01645Y01546
X0173Y01581
X01648Y01408
X0164Y01311
X016Y01261
X01695Y01271
X01715Y01161
X0172Y01101
X01725Y00941
X0164Y00866
X016Y00881
X01555Y00876
X016Y00986
X01605Y00766
X0166Y00696
X0173Y00686
X01834Y00741
X01894Y0066
X01944Y00696
X02057Y006992
X02033Y0066663
X0202Y00745
X02115Y00816
X02105Y00986
X0205Y00946
X02065Y01131
X02026Y01166
X0189Y01131
X0204Y01361
X0207Y01561
X01575Y01461
X0155Y01336
X0136Y01356
X01345Y01306
X01325Y01236
X0131Y01146
X01265Y01126
X0123Y01051
X0117Y01041
X01185Y01211
X0124Y01216
X00955Y01226
X00937Y01325
X0101Y01306
X0103Y01401
X01075Y01386
X0111Y01426
X01105Y01511
X01025Y01526
X00935
X0088Y01516
X008Y01566
X0076Y01581
X00699
X00729Y01496
X0076Y01456
X00674
X00634Y01501
X00564Y01546
X00623Y01331
X00729Y01335
X0076Y01051
Y00966
Y00916
X00845Y00961
X0086Y01021
X00845Y01076
X0092Y01036
X00985Y01136
X0103Y00876
X0097Y00836
X0113Y00786
X0119Y00816
X01265Y00871
X013Y00841
Y00691
X0126Y00681
X0121Y00676
X0131Y00651
X01365Y00656
X0143Y00676
Y00716
X01535Y00658
X01541Y00603
X01993
X00765Y00606
X00735Y00641
X00565Y00866
Y01051
X0061
X0057Y01111
X00615Y01789
X00665Y01854
X00645Y01889
X00695Y01904
X00845Y01989
X0101Y01971
X01Y01791
X0089Y01834
X01269Y01794
X0136Y01761
X01512Y01798
X0136Y01511
X01305Y01526
X01255Y01531
X01215Y01491
X00504Y01581
X00434Y01626
X00397Y01686
X004Y01737
X00455Y01754
X00415Y01861
X0036Y01656
X00439Y01519
X00399Y01436
X00345Y01441
X00285
X0022
X00095Y01446
X00045Y01251
X0031Y01141
Y01066
X00355Y00956
X00285Y00861
Y00756
X00325Y00791
X00295Y00656
X0044Y00601
X0051Y00831
X00495Y01226
X00501Y01318
X0044657Y01329
X00458Y01289
X0017Y00966
X00125Y00731
X00175Y01711
X0017Y01771
X0021Y01761
X00185Y01826
X00075Y01831
X00105Y01791
T02
X0024303Y0168986
Y01828
T03
X01065Y00056
X01165
X01265
X01365
X01465
X01565
X01665
X01765
Y02006
X01665
X01565
X01465
X01365
X01265
X01165
X01065
X00147Y0103006
X00147Y0091101
T04
X0215Y0177099
X0215Y0187099
X0225Y0187099
X0225Y0177099
X0235Y01771
X0235Y01871
X0245Y01871
X0255Y01871
X0255Y01771
X0245Y01771
X0265Y0177101
X0265Y0187101
X0275Y0187101
X0275Y0177101
X0285Y0177101
X0285Y0187101
X0295Y0187102
X0295Y0177102
X0205Y0177098
X0205Y0187098
X01765Y01906
X01665Y01906
X01565Y0190599
X01465Y0190599
X01365Y0190599
X01265Y0190598
T05
X01967Y0154
T06
X0226Y00166
X0111Y01796
M30
