G04 Layer_Color=8388736*
%FSLAX25Y25*%
%MOIN*%
G70*
G01*
G75*
%ADD54C,0.04000*%
%ADD60C,0.04000*%
G04:AMPARAMS|DCode=68|XSize=80mil|YSize=19mil|CornerRadius=0mil|HoleSize=0mil|Usage=FLASHONLY|Rotation=90.018|XOffset=0mil|YOffset=0mil|HoleType=Round|Shape=Rectangle|*
%AMROTATEDRECTD68*
4,1,4,0.00951,-0.04000,-0.00949,-0.04000,-0.00951,0.04000,0.00949,0.04000,0.00951,-0.04000,0.0*
%
%ADD68ROTATEDRECTD68*%

%ADD69R,0.09500X0.02400*%
%ADD70R,0.14200X0.14200*%
G04:AMPARAMS|DCode=71|XSize=14mil|YSize=83mil|CornerRadius=0mil|HoleSize=0mil|Usage=FLASHONLY|Rotation=180.010|XOffset=0mil|YOffset=0mil|HoleType=Round|Shape=Rectangle|*
%AMROTATEDRECTD71*
4,1,4,0.00699,0.04150,0.00701,-0.04150,-0.00699,-0.04150,-0.00701,0.04150,0.00699,0.04150,0.0*
%
%ADD71ROTATEDRECTD71*%

G04:AMPARAMS|DCode=72|XSize=14mil|YSize=83mil|CornerRadius=0mil|HoleSize=0mil|Usage=FLASHONLY|Rotation=270.010|XOffset=0mil|YOffset=0mil|HoleType=Round|Shape=Rectangle|*
%AMROTATEDRECTD72*
4,1,4,-0.04150,0.00699,0.04150,0.00701,0.04150,-0.00699,-0.04150,-0.00701,-0.04150,0.00699,0.0*
%
%ADD72ROTATEDRECTD72*%

G04:AMPARAMS|DCode=73|XSize=56mil|YSize=19mil|CornerRadius=0mil|HoleSize=0mil|Usage=FLASHONLY|Rotation=90.018|XOffset=0mil|YOffset=0mil|HoleType=Round|Shape=Rectangle|*
%AMROTATEDRECTD73*
4,1,4,0.00951,-0.02800,-0.00949,-0.02800,-0.00951,0.02800,0.00949,0.02800,0.00951,-0.02800,0.0*
%
%ADD73ROTATEDRECTD73*%

%ADD74R,0.03000X0.08400*%
G04:AMPARAMS|DCode=75|XSize=20mil|YSize=64mil|CornerRadius=0mil|HoleSize=0mil|Usage=FLASHONLY|Rotation=90.018|XOffset=0mil|YOffset=0mil|HoleType=Round|Shape=Rectangle|*
%AMROTATEDRECTD75*
4,1,4,0.03200,-0.00999,-0.03200,-0.01001,-0.03200,0.00999,0.03200,0.01001,0.03200,-0.00999,0.0*
%
%ADD75ROTATEDRECTD75*%

G04:AMPARAMS|DCode=76|XSize=64mil|YSize=123mil|CornerRadius=0mil|HoleSize=0mil|Usage=FLASHONLY|Rotation=270.002|XOffset=0mil|YOffset=0mil|HoleType=Round|Shape=Rectangle|*
%AMROTATEDRECTD76*
4,1,4,-0.06150,0.03200,0.06150,0.03200,0.06150,-0.03200,-0.06150,-0.03200,-0.06150,0.03200,0.0*
%
%ADD76ROTATEDRECTD76*%

G04:AMPARAMS|DCode=77|XSize=142mil|YSize=64mil|CornerRadius=0mil|HoleSize=0mil|Usage=FLASHONLY|Rotation=180.010|XOffset=0mil|YOffset=0mil|HoleType=Round|Shape=Rectangle|*
%AMROTATEDRECTD77*
4,1,4,0.07100,0.03201,0.07101,-0.03199,-0.07100,-0.03201,-0.07101,0.03199,0.07100,0.03201,0.0*
%
%ADD77ROTATEDRECTD77*%

%ADD78R,0.04400X0.04400*%
%ADD79R,0.04400X0.07400*%
%ADD80P,0.06223X4X135.0*%
G04:AMPARAMS|DCode=81|XSize=44mil|YSize=74mil|CornerRadius=0mil|HoleSize=0mil|Usage=FLASHONLY|Rotation=90.018|XOffset=0mil|YOffset=0mil|HoleType=Round|Shape=Rectangle|*
%AMROTATEDRECTD81*
4,1,4,0.03701,-0.02199,-0.03699,-0.02201,-0.03701,0.02199,0.03699,0.02201,0.03701,-0.02199,0.0*
%
%ADD81ROTATEDRECTD81*%

G04:AMPARAMS|DCode=82|XSize=84mil|YSize=30mil|CornerRadius=0mil|HoleSize=0mil|Usage=FLASHONLY|Rotation=0.002|XOffset=0mil|YOffset=0mil|HoleType=Round|Shape=Rectangle|*
%AMROTATEDRECTD82*
4,1,4,-0.04200,-0.01500,-0.04200,0.01500,0.04200,0.01500,0.04200,-0.01500,-0.04200,-0.01500,0.0*
%
%ADD82ROTATEDRECTD82*%

G04:AMPARAMS|DCode=83|XSize=21mil|YSize=45mil|CornerRadius=0mil|HoleSize=0mil|Usage=FLASHONLY|Rotation=90.018|XOffset=0mil|YOffset=0mil|HoleType=Round|Shape=Rectangle|*
%AMROTATEDRECTD83*
4,1,4,0.02250,-0.01049,-0.02250,-0.01051,-0.02250,0.01049,0.02250,0.01051,0.02250,-0.01049,0.0*
%
%ADD83ROTATEDRECTD83*%

%ADD84R,0.01700X0.07500*%
%ADD85P,0.14001X4X315.0*%
G04:AMPARAMS|DCode=86|XSize=64mil|YSize=24mil|CornerRadius=0mil|HoleSize=0mil|Usage=FLASHONLY|Rotation=180.010|XOffset=0mil|YOffset=0mil|HoleType=Round|Shape=Rectangle|*
%AMROTATEDRECTD86*
4,1,4,0.03200,0.01201,0.03200,-0.01200,-0.03200,-0.01201,-0.03200,0.01200,0.03200,0.01201,0.0*
%
%ADD86ROTATEDRECTD86*%

%ADD87P,0.14001X4X225.0*%
G04:AMPARAMS|DCode=88|XSize=14mil|YSize=64mil|CornerRadius=0mil|HoleSize=0mil|Usage=FLASHONLY|Rotation=90.018|XOffset=0mil|YOffset=0mil|HoleType=Round|Shape=Rectangle|*
%AMROTATEDRECTD88*
4,1,4,0.03200,-0.00699,-0.03200,-0.00701,-0.03200,0.00699,0.03200,0.00701,0.03200,-0.00699,0.0*
%
%ADD88ROTATEDRECTD88*%

G04:AMPARAMS|DCode=89|XSize=14mil|YSize=54mil|CornerRadius=0mil|HoleSize=0mil|Usage=FLASHONLY|Rotation=180.018|XOffset=0mil|YOffset=0mil|HoleType=Round|Shape=Rectangle|*
%AMROTATEDRECTD89*
4,1,4,0.00699,0.02700,0.00701,-0.02700,-0.00699,-0.02700,-0.00701,0.02700,0.00699,0.02700,0.0*
%
%ADD89ROTATEDRECTD89*%

G04:AMPARAMS|DCode=90|XSize=44mil|YSize=48mil|CornerRadius=0mil|HoleSize=0mil|Usage=FLASHONLY|Rotation=90.018|XOffset=0mil|YOffset=0mil|HoleType=Round|Shape=Rectangle|*
%AMROTATEDRECTD90*
4,1,4,0.02401,-0.02199,-0.02399,-0.02201,-0.02401,0.02199,0.02399,0.02201,0.02401,-0.02199,0.0*
%
%ADD90ROTATEDRECTD90*%

G04:AMPARAMS|DCode=91|XSize=44mil|YSize=48mil|CornerRadius=0mil|HoleSize=0mil|Usage=FLASHONLY|Rotation=90.018|XOffset=0mil|YOffset=0mil|HoleType=Round|Shape=Rectangle|*
%AMROTATEDRECTD91*
4,1,4,0.02401,-0.02199,-0.02399,-0.02201,-0.02401,0.02199,0.02399,0.02201,0.02401,-0.02199,0.0*
%
%ADD91ROTATEDRECTD91*%

%ADD92R,0.04400X0.04800*%
%ADD93R,0.06400X0.11900*%
G04:AMPARAMS|DCode=94|XSize=64mil|YSize=119mil|CornerRadius=0mil|HoleSize=0mil|Usage=FLASHONLY|Rotation=270.002|XOffset=0mil|YOffset=0mil|HoleType=Round|Shape=Rectangle|*
%AMROTATEDRECTD94*
4,1,4,-0.05950,0.03200,0.05950,0.03200,0.05950,-0.03200,-0.05950,-0.03200,-0.05950,0.03200,0.0*
%
%ADD94ROTATEDRECTD94*%

%ADD95R,0.05600X0.06400*%
G04:AMPARAMS|DCode=96|XSize=139mil|YSize=74mil|CornerRadius=0mil|HoleSize=0mil|Usage=FLASHONLY|Rotation=90.018|XOffset=0mil|YOffset=0mil|HoleType=Round|Shape=Rectangle|*
%AMROTATEDRECTD96*
4,1,4,0.03702,-0.06949,-0.03698,-0.06951,-0.03702,0.06949,0.03698,0.06951,0.03702,-0.06949,0.0*
%
%ADD96ROTATEDRECTD96*%

G04:AMPARAMS|DCode=97|XSize=139mil|YSize=74mil|CornerRadius=0mil|HoleSize=0mil|Usage=FLASHONLY|Rotation=180.010|XOffset=0mil|YOffset=0mil|HoleType=Round|Shape=Rectangle|*
%AMROTATEDRECTD97*
4,1,4,0.06949,0.03701,0.06951,-0.03699,-0.06949,-0.03701,-0.06951,0.03699,0.06949,0.03701,0.0*
%
%ADD97ROTATEDRECTD97*%

G04:AMPARAMS|DCode=98|XSize=95mil|YSize=154mil|CornerRadius=0mil|HoleSize=0mil|Usage=FLASHONLY|Rotation=270.002|XOffset=0mil|YOffset=0mil|HoleType=Round|Shape=Rectangle|*
%AMROTATEDRECTD98*
4,1,4,-0.07700,0.04750,0.07700,0.04750,0.07700,-0.04750,-0.07700,-0.04750,-0.07700,0.04750,0.0*
%
%ADD98ROTATEDRECTD98*%

G04:AMPARAMS|DCode=99|XSize=26mil|YSize=103mil|CornerRadius=0mil|HoleSize=0mil|Usage=FLASHONLY|Rotation=270.002|XOffset=0mil|YOffset=0mil|HoleType=Round|Shape=Rectangle|*
%AMROTATEDRECTD99*
4,1,4,-0.05150,0.01300,0.05150,0.01300,0.05150,-0.01300,-0.05150,-0.01300,-0.05150,0.01300,0.0*
%
%ADD99ROTATEDRECTD99*%

%ADD100R,0.01600X0.06400*%
G04:AMPARAMS|DCode=101|XSize=44mil|YSize=123mil|CornerRadius=0mil|HoleSize=0mil|Usage=FLASHONLY|Rotation=0.010|XOffset=0mil|YOffset=0mil|HoleType=Round|Shape=Rectangle|*
%AMROTATEDRECTD101*
4,1,4,-0.02199,-0.06150,-0.02201,0.06150,0.02199,0.06150,0.02201,-0.06150,-0.02199,-0.06150,0.0*
%
%ADD101ROTATEDRECTD101*%

G04:AMPARAMS|DCode=102|XSize=142mil|YSize=64mil|CornerRadius=0mil|HoleSize=0mil|Usage=FLASHONLY|Rotation=270.002|XOffset=0mil|YOffset=0mil|HoleType=Round|Shape=Rectangle|*
%AMROTATEDRECTD102*
4,1,4,-0.03200,0.07100,0.03200,0.07100,0.03200,-0.07100,-0.03200,-0.07100,-0.03200,0.07100,0.0*
%
%ADD102ROTATEDRECTD102*%

%ADD103C,0.16200*%
%ADD104R,0.05900X0.05900*%
%ADD105C,0.05900*%
%ADD106C,0.09850*%
%ADD107C,0.04400*%
%ADD108P,0.10112X4X315.0*%
%ADD109C,0.07150*%
D54*
X24303Y182800D02*
D03*
Y168986D02*
D03*
D60*
X195700Y201700D02*
G03*
X195700Y201700I-1600J0D01*
G01*
X310700Y200900D02*
G03*
X310700Y200900I-1600J0D01*
G01*
X25100Y27600D02*
G03*
X25100Y27600I-1600J0D01*
G01*
X143100Y80100D02*
G03*
X143100Y80100I-1600J0D01*
G01*
X288100Y44100D02*
G03*
X288100Y44100I-1600J0D01*
G01*
X213600Y12100D02*
G03*
X213600Y12100I-1600J0D01*
G01*
D68*
X76000Y138600D02*
D03*
X78559Y138601D02*
D03*
X81118Y138602D02*
D03*
X83678Y138602D02*
D03*
X86237Y138603D02*
D03*
X88796Y138604D02*
D03*
X91355Y138605D02*
D03*
X93914Y138605D02*
D03*
X96473Y138606D02*
D03*
X99032Y138607D02*
D03*
X75992Y164600D02*
D03*
X78551Y164601D02*
D03*
X81110Y164602D02*
D03*
X83670Y164602D02*
D03*
X86229Y164603D02*
D03*
X88788Y164604D02*
D03*
X91347Y164605D02*
D03*
X93906Y164605D02*
D03*
X96465Y164606D02*
D03*
X99024Y164607D02*
D03*
X46900Y138600D02*
D03*
X49459Y138601D02*
D03*
X52018Y138602D02*
D03*
X54577Y138602D02*
D03*
X57136Y138603D02*
D03*
X59696Y138604D02*
D03*
X62255Y138605D02*
D03*
X64814Y138605D02*
D03*
X67373Y138606D02*
D03*
X69932Y138607D02*
D03*
X46892Y164600D02*
D03*
X49451Y164601D02*
D03*
X52010Y164602D02*
D03*
X54570Y164602D02*
D03*
X57129Y164603D02*
D03*
X59688Y164604D02*
D03*
X62247Y164605D02*
D03*
X64806Y164605D02*
D03*
X67365Y164606D02*
D03*
X69924Y164607D02*
D03*
D69*
X32400Y182200D02*
D03*
Y179025D02*
D03*
Y175876D02*
D03*
Y172726D02*
D03*
Y169576D02*
D03*
D70*
X33200Y196000D02*
D03*
X15445D02*
D03*
X33200Y155797D02*
D03*
X15445D02*
D03*
D71*
X271508Y43800D02*
D03*
X269508Y43800D02*
D03*
X267508Y43799D02*
D03*
X265508Y43799D02*
D03*
X263608Y43799D02*
D03*
X261608Y43798D02*
D03*
X259608Y43798D02*
D03*
X257708Y43798D02*
D03*
X255708Y43797D02*
D03*
X253708Y43797D02*
D03*
X251808Y43797D02*
D03*
X249808Y43796D02*
D03*
X247808Y43796D02*
D03*
X245908Y43795D02*
D03*
X243908Y43795D02*
D03*
X241908Y43795D02*
D03*
X271500Y91100D02*
D03*
X269500Y91100D02*
D03*
X267500Y91099D02*
D03*
X265500Y91099D02*
D03*
X263600Y91099D02*
D03*
X261600Y91098D02*
D03*
X259600Y91098D02*
D03*
X257700Y91098D02*
D03*
X255700Y91097D02*
D03*
X253700Y91097D02*
D03*
X251800Y91097D02*
D03*
X249800Y91096D02*
D03*
X247800Y91096D02*
D03*
X245900Y91096D02*
D03*
X243900Y91095D02*
D03*
X241900Y91095D02*
D03*
D72*
X280360Y82201D02*
D03*
X280360Y80202D02*
D03*
X280361Y78302D02*
D03*
X280361Y76301D02*
D03*
X280361Y74301D02*
D03*
X280362Y72302D02*
D03*
X280362Y70402D02*
D03*
X280362Y68401D02*
D03*
X280363Y66401D02*
D03*
X280363Y64502D02*
D03*
X280363Y62502D02*
D03*
X280364Y60501D02*
D03*
X280364Y58601D02*
D03*
X280364Y56602D02*
D03*
X280365Y54602D02*
D03*
X280365Y52701D02*
D03*
X233102Y82193D02*
D03*
X233102Y80193D02*
D03*
X233102Y78293D02*
D03*
X233103Y76293D02*
D03*
X233103Y74293D02*
D03*
X233103Y72293D02*
D03*
X233104Y70393D02*
D03*
X233104Y68393D02*
D03*
X233104Y66393D02*
D03*
X233105Y64493D02*
D03*
X233105Y62493D02*
D03*
X233105Y60493D02*
D03*
X233106Y58593D02*
D03*
X233106Y56593D02*
D03*
X233106Y54593D02*
D03*
X233107Y52693D02*
D03*
D73*
X118500Y74600D02*
D03*
X121059Y74601D02*
D03*
X123618Y74602D02*
D03*
X126177Y74602D02*
D03*
X128736Y74603D02*
D03*
X131295Y74604D02*
D03*
X133854Y74605D02*
D03*
X118493Y98600D02*
D03*
X121052Y98601D02*
D03*
X123611Y98602D02*
D03*
X126170Y98602D02*
D03*
X128729Y98603D02*
D03*
X131288Y98604D02*
D03*
X133847Y98605D02*
D03*
X100500Y38100D02*
D03*
X103059Y38101D02*
D03*
X105618Y38102D02*
D03*
X108177Y38102D02*
D03*
X110736Y38103D02*
D03*
X113295Y38104D02*
D03*
X115854Y38105D02*
D03*
X100493Y62100D02*
D03*
X103052Y62101D02*
D03*
X105611Y62102D02*
D03*
X108170Y62102D02*
D03*
X110729Y62103D02*
D03*
X113288Y62104D02*
D03*
X115847Y62105D02*
D03*
D74*
X115500Y142100D02*
D03*
X120500D02*
D03*
X125500D02*
D03*
X130500D02*
D03*
Y162100D02*
D03*
X125500D02*
D03*
X120500D02*
D03*
X115500D02*
D03*
D75*
X154601Y111902D02*
D03*
X154600Y115702D02*
D03*
X154599Y119402D02*
D03*
X143301Y111898D02*
D03*
X143299Y119398D02*
D03*
X68900Y180600D02*
D03*
X68900Y176800D02*
D03*
X68900Y173100D02*
D03*
X80200Y180600D02*
D03*
X80200Y173100D02*
D03*
D76*
X310800Y147459D02*
D03*
X310800Y129701D02*
D03*
X275283Y147458D02*
D03*
X275284Y129699D02*
D03*
D77*
X216600Y145098D02*
D03*
X238327Y145102D02*
D03*
D78*
X74800Y9600D02*
D03*
X82300D02*
D03*
X305200Y115601D02*
D03*
X297699Y115599D02*
D03*
X60800Y9600D02*
D03*
X68300D02*
D03*
X71200Y34101D02*
D03*
X63700Y34099D02*
D03*
X36300Y65600D02*
D03*
X43800D02*
D03*
X87700Y49601D02*
D03*
X80199Y49599D02*
D03*
D79*
X78600Y17100D02*
D03*
X301401Y108100D02*
D03*
X64600Y17100D02*
D03*
X67401Y26600D02*
D03*
X40100Y73100D02*
D03*
X83901Y42100D02*
D03*
D80*
X69001Y54901D02*
D03*
X68999Y62401D02*
D03*
X232000Y37300D02*
D03*
X232000Y29800D02*
D03*
X50000Y74800D02*
D03*
X50000Y67300D02*
D03*
D81*
X61500Y58699D02*
D03*
X239500Y33500D02*
D03*
X57500Y71000D02*
D03*
D82*
Y201900D02*
D03*
X57500Y196900D02*
D03*
X57500Y191900D02*
D03*
X57500Y186900D02*
D03*
X77500Y186901D02*
D03*
X77500Y191901D02*
D03*
X77500Y196901D02*
D03*
X77500Y201901D02*
D03*
D83*
X102500Y118100D02*
D03*
X102499Y120700D02*
D03*
X102498Y123300D02*
D03*
X102498Y125800D02*
D03*
X83600Y118094D02*
D03*
X83599Y120694D02*
D03*
X83598Y123294D02*
D03*
X83598Y125794D02*
D03*
D84*
X67220Y88104D02*
D03*
X64661D02*
D03*
X69800D02*
D03*
X72400D02*
D03*
X67220Y101100D02*
D03*
X64661D02*
D03*
X69800D02*
D03*
X72400D02*
D03*
D85*
X299500Y88887D02*
D03*
X299501Y69500D02*
D03*
D86*
X299500Y11600D02*
D03*
X299499Y15340D02*
D03*
X299499Y19080D02*
D03*
X290800Y11598D02*
D03*
X290799Y19079D02*
D03*
D87*
X299787Y31100D02*
D03*
X280400Y31097D02*
D03*
D88*
X211504Y26488D02*
D03*
X211503Y28456D02*
D03*
X211502Y30425D02*
D03*
X211502Y32393D02*
D03*
X211501Y34362D02*
D03*
X211500Y36330D02*
D03*
X211500Y38299D02*
D03*
X211499Y40267D02*
D03*
X211498Y42236D02*
D03*
X211498Y44204D02*
D03*
X211497Y46173D02*
D03*
X211497Y48141D02*
D03*
X211496Y50110D02*
D03*
X211495Y52110D02*
D03*
X211495Y54110D02*
D03*
X211494Y56110D02*
D03*
X211494Y58010D02*
D03*
X211493Y60010D02*
D03*
X211492Y62010D02*
D03*
X211492Y63910D02*
D03*
X211491Y65910D02*
D03*
X211491Y67910D02*
D03*
X211490Y69810D02*
D03*
X211489Y71810D02*
D03*
X211489Y73810D02*
D03*
X148507Y26468D02*
D03*
X148507Y28437D02*
D03*
X148506Y30405D02*
D03*
X148506Y32374D02*
D03*
X148505Y34342D02*
D03*
X148504Y36311D02*
D03*
X148504Y38279D02*
D03*
X148503Y40248D02*
D03*
X148503Y42216D02*
D03*
X148502Y44185D02*
D03*
X148501Y46153D02*
D03*
X148501Y48122D02*
D03*
X148500Y50090D02*
D03*
X148499Y52090D02*
D03*
X148499Y54090D02*
D03*
X148498Y56090D02*
D03*
X148497Y57990D02*
D03*
X148497Y59990D02*
D03*
X148496Y61990D02*
D03*
X148496Y63890D02*
D03*
X148495Y65890D02*
D03*
X148494Y67890D02*
D03*
X148494Y69790D02*
D03*
X148493Y71790D02*
D03*
X148493Y73790D02*
D03*
D89*
X203612Y81607D02*
D03*
X201644Y81607D02*
D03*
X199675Y81606D02*
D03*
X197707Y81606D02*
D03*
X195738Y81605D02*
D03*
X193770Y81604D02*
D03*
X191801Y81604D02*
D03*
X189833Y81603D02*
D03*
X187864Y81603D02*
D03*
X185896Y81602D02*
D03*
X183927Y81601D02*
D03*
X181959Y81601D02*
D03*
X179990Y81600D02*
D03*
X177990Y81599D02*
D03*
X175990Y81599D02*
D03*
X173990Y81598D02*
D03*
X172090Y81598D02*
D03*
X170090Y81597D02*
D03*
X168090Y81596D02*
D03*
X166190Y81596D02*
D03*
X164190Y81595D02*
D03*
X162190Y81594D02*
D03*
X160290Y81594D02*
D03*
X158290Y81593D02*
D03*
X156290Y81593D02*
D03*
X203632Y18611D02*
D03*
X201663Y18611D02*
D03*
X199695Y18610D02*
D03*
X197726Y18609D02*
D03*
X195758Y18609D02*
D03*
X193789Y18608D02*
D03*
X191821Y18608D02*
D03*
X189852Y18607D02*
D03*
X187884Y18606D02*
D03*
X185915Y18606D02*
D03*
X183947Y18605D02*
D03*
X181978Y18605D02*
D03*
X180010Y18604D02*
D03*
X178010Y18603D02*
D03*
X176010Y18603D02*
D03*
X174010Y18602D02*
D03*
X172110Y18601D02*
D03*
X170110Y18601D02*
D03*
X168110Y18600D02*
D03*
X166210Y18600D02*
D03*
X164210Y18599D02*
D03*
X162210Y18598D02*
D03*
X160310Y18598D02*
D03*
X158310Y18597D02*
D03*
X156310Y18597D02*
D03*
D90*
X47501Y190053D02*
D03*
X47499Y196800D02*
D03*
X287500Y97947D02*
D03*
X287500Y91200D02*
D03*
X287500Y110947D02*
D03*
X287500Y104200D02*
D03*
X281000Y110947D02*
D03*
X281000Y104200D02*
D03*
X312500Y75946D02*
D03*
X312500Y69200D02*
D03*
X115500Y27946D02*
D03*
X115500Y21200D02*
D03*
X109000Y24446D02*
D03*
X109000Y17700D02*
D03*
X65500Y74946D02*
D03*
X65500Y68200D02*
D03*
X78500Y74946D02*
D03*
X78500Y68200D02*
D03*
X21500Y139946D02*
D03*
X21500Y133200D02*
D03*
X53500Y97447D02*
D03*
X53500Y90700D02*
D03*
X113000Y97447D02*
D03*
X113000Y90700D02*
D03*
X187199Y12347D02*
D03*
X187201Y5600D02*
D03*
X148300Y21046D02*
D03*
Y14300D02*
D03*
X28000Y139946D02*
D03*
X28000Y133200D02*
D03*
X15000Y139946D02*
D03*
X15000Y133200D02*
D03*
X34500Y139946D02*
D03*
X34500Y133200D02*
D03*
X110500Y116446D02*
D03*
X110500Y109700D02*
D03*
X117000Y116446D02*
D03*
X117000Y109700D02*
D03*
X68500Y116246D02*
D03*
X68500Y109500D02*
D03*
X75000Y116246D02*
D03*
X75000Y109500D02*
D03*
X58501Y121853D02*
D03*
X58499Y128600D02*
D03*
X65000Y128647D02*
D03*
X65000Y121900D02*
D03*
X91500Y74946D02*
D03*
X91500Y68200D02*
D03*
X69500Y47447D02*
D03*
X69500Y40700D02*
D03*
X41000Y139946D02*
D03*
X41000Y133200D02*
D03*
X8500Y139946D02*
D03*
X8500Y133200D02*
D03*
X71500Y128647D02*
D03*
X71500Y121900D02*
D03*
X62001Y109554D02*
D03*
X61999Y116300D02*
D03*
X265000Y18947D02*
D03*
X265000Y12200D02*
D03*
X65500Y200746D02*
D03*
X65500Y194000D02*
D03*
X134800Y14300D02*
D03*
X134800Y21046D02*
D03*
X141300Y14300D02*
D03*
X141300Y21046D02*
D03*
D91*
X309001Y27253D02*
D03*
X308999Y34000D02*
D03*
X309001Y13754D02*
D03*
X308999Y20500D02*
D03*
X312501Y80753D02*
D03*
X312499Y87500D02*
D03*
X258001Y105754D02*
D03*
X257999Y112500D02*
D03*
X121801Y14354D02*
D03*
X121799Y21100D02*
D03*
X128301Y14354D02*
D03*
X128299Y21100D02*
D03*
X23001Y62753D02*
D03*
X22999Y69500D02*
D03*
X72001Y68253D02*
D03*
X71999Y75000D02*
D03*
X85001Y68253D02*
D03*
X84999Y75000D02*
D03*
X98001Y68253D02*
D03*
X97999Y75000D02*
D03*
X122001Y52754D02*
D03*
X121999Y59500D02*
D03*
X128001Y52754D02*
D03*
X127999Y59500D02*
D03*
X122001Y39753D02*
D03*
X121999Y46500D02*
D03*
X94501Y40753D02*
D03*
X94499Y47500D02*
D03*
X265001Y105754D02*
D03*
X264999Y112500D02*
D03*
X220501Y40253D02*
D03*
X220499Y47000D02*
D03*
X217001Y78754D02*
D03*
X216999Y85500D02*
D03*
X221501Y115753D02*
D03*
X221499Y122500D02*
D03*
X231001Y115753D02*
D03*
X230999Y122500D02*
D03*
X212001Y115753D02*
D03*
X211999Y122500D02*
D03*
X221501Y103253D02*
D03*
X221499Y110000D02*
D03*
X231001Y103253D02*
D03*
X230999Y110000D02*
D03*
X212001Y103253D02*
D03*
X211999Y110000D02*
D03*
X104501Y68253D02*
D03*
X104499Y75000D02*
D03*
X91501Y55753D02*
D03*
X91499Y62500D02*
D03*
X85501Y83754D02*
D03*
X85499Y90500D02*
D03*
X92001Y83754D02*
D03*
X91999Y90500D02*
D03*
X265001Y131754D02*
D03*
X264999Y138500D02*
D03*
X167001Y96754D02*
D03*
X166999Y103500D02*
D03*
X103001Y92254D02*
D03*
X102999Y99000D02*
D03*
X169501Y132754D02*
D03*
X169499Y139500D02*
D03*
X274001Y110754D02*
D03*
X273999Y117500D02*
D03*
D92*
X276654Y13100D02*
D03*
X283400D02*
D03*
X283347Y20101D02*
D03*
X276600Y20099D02*
D03*
X301346Y47101D02*
D03*
X294600Y47099D02*
D03*
X301346Y53601D02*
D03*
X294600Y53599D02*
D03*
X294654Y60100D02*
D03*
X301400D02*
D03*
X255346Y158601D02*
D03*
X248600Y158599D02*
D03*
X247153Y30100D02*
D03*
X253900D02*
D03*
X83653Y24100D02*
D03*
X90400D02*
D03*
X90346Y30601D02*
D03*
X83600Y30599D02*
D03*
X95846Y17601D02*
D03*
X89100Y17599D02*
D03*
X95846Y11101D02*
D03*
X89100Y11099D02*
D03*
X55154Y81100D02*
D03*
X61900D02*
D03*
X182846Y132101D02*
D03*
X176100Y132099D02*
D03*
X195346Y132101D02*
D03*
X188600Y132099D02*
D03*
X85154Y111600D02*
D03*
X91900D02*
D03*
X262154Y30100D02*
D03*
X268900D02*
D03*
X140347Y39101D02*
D03*
X133600Y39099D02*
D03*
X75346Y81101D02*
D03*
X68600Y81099D02*
D03*
X153154Y137100D02*
D03*
X159900D02*
D03*
X96153Y30600D02*
D03*
X102900D02*
D03*
X96153Y24100D02*
D03*
X102900D02*
D03*
X122153Y134100D02*
D03*
X128900D02*
D03*
X128847Y127601D02*
D03*
X122100Y127599D02*
D03*
X134153Y52100D02*
D03*
X140900D02*
D03*
X133653Y45600D02*
D03*
X140400D02*
D03*
X109653Y126100D02*
D03*
X116400D02*
D03*
X204654Y130600D02*
D03*
X211400D02*
D03*
X109653Y132600D02*
D03*
X116400D02*
D03*
X60847Y173901D02*
D03*
X54100Y173899D02*
D03*
X188654Y139600D02*
D03*
X195400D02*
D03*
X176154D02*
D03*
X182900D02*
D03*
X251654Y144600D02*
D03*
X258400D02*
D03*
X251654Y138100D02*
D03*
X258400D02*
D03*
X89153Y198900D02*
D03*
X95900D02*
D03*
X213154Y92100D02*
D03*
X219900D02*
D03*
X40154Y109100D02*
D03*
X46900D02*
D03*
X40154Y115600D02*
D03*
X46900D02*
D03*
X40154Y102100D02*
D03*
X46900D02*
D03*
X40154Y95600D02*
D03*
X46900D02*
D03*
D93*
X143595Y102100D02*
D03*
X155500D02*
D03*
D94*
X91000Y189805D02*
D03*
X91000Y177900D02*
D03*
X173000Y164005D02*
D03*
X173000Y152100D02*
D03*
X247502Y107694D02*
D03*
X247498Y119600D02*
D03*
D95*
X47153Y180900D02*
D03*
X53900D02*
D03*
D96*
X165500Y117600D02*
D03*
D97*
X10000Y66100D02*
D03*
X41000Y84100D02*
D03*
X36000Y125100D02*
D03*
X16500D02*
D03*
X249500Y13100D02*
D03*
X252500Y129600D02*
D03*
D98*
X18100Y112258D02*
D03*
X18101Y81901D02*
D03*
D99*
X27100Y95501D02*
D03*
X27100Y98676D02*
D03*
X27100Y101825D02*
D03*
X27100Y92301D02*
D03*
D100*
X173484Y99002D02*
D03*
X176043D02*
D03*
X178602D02*
D03*
X181161D02*
D03*
X183721D02*
D03*
X186300D02*
D03*
X188900D02*
D03*
X191400D02*
D03*
X194000D02*
D03*
X196600D02*
D03*
X183721Y124200D02*
D03*
X186300D02*
D03*
X188900D02*
D03*
X191400D02*
D03*
X194000D02*
D03*
X196600D02*
D03*
X199100D02*
D03*
X201700D02*
D03*
X199100Y99002D02*
D03*
X201700D02*
D03*
X181161Y124200D02*
D03*
X178602D02*
D03*
X176043D02*
D03*
X173484D02*
D03*
D101*
X9497Y50415D02*
D03*
X19497Y50417D02*
D03*
X29497Y50419D02*
D03*
X39497Y50421D02*
D03*
X49497Y50422D02*
D03*
X9503Y12697D02*
D03*
X19503Y12698D02*
D03*
X29503Y12700D02*
D03*
X39503Y12702D02*
D03*
X49503Y12703D02*
D03*
D102*
X152000Y148700D02*
D03*
X152000Y170427D02*
D03*
D103*
X111000Y179600D02*
D03*
X226000Y16600D02*
D03*
D104*
X176500Y5600D02*
D03*
Y200600D02*
D03*
D105*
X166500Y5600D02*
D03*
X156500D02*
D03*
X146500D02*
D03*
X136500D02*
D03*
X126500D02*
D03*
X116500D02*
D03*
X106500D02*
D03*
X166500Y200600D02*
D03*
X156500D02*
D03*
X146500D02*
D03*
X136500D02*
D03*
X126500D02*
D03*
X116500D02*
D03*
X106500D02*
D03*
D106*
X196700Y154000D02*
D03*
D107*
X14700Y103006D02*
D03*
X14700Y91101D02*
D03*
D108*
X295000Y187102D02*
D03*
X176500Y190600D02*
D03*
D109*
X295000Y177102D02*
D03*
X285000Y187101D02*
D03*
X285000Y177101D02*
D03*
X275000Y187101D02*
D03*
X275000Y177101D02*
D03*
X265000Y187101D02*
D03*
X265000Y177101D02*
D03*
X255000Y187100D02*
D03*
X255000Y177100D02*
D03*
X245000Y187100D02*
D03*
X245000Y177100D02*
D03*
X235000Y187100D02*
D03*
X235000Y177100D02*
D03*
X225000Y187099D02*
D03*
X225000Y177099D02*
D03*
X215000Y187099D02*
D03*
X215000Y177099D02*
D03*
X205000Y187098D02*
D03*
X205000Y177098D02*
D03*
X166500Y190600D02*
D03*
X156500Y190599D02*
D03*
X146500Y190599D02*
D03*
X136500Y190599D02*
D03*
X126500Y190598D02*
D03*
M02*
